<svg enable-background="new 0 0 696.182251 696.182251" fill="none" height="696.182251" stroke="#000" stroke-linecap="round" stroke-linejoin="round" viewBox="-.000002 0 696.182251 1176.537964" width="696.182251" xmlns="http://www.w3.org/2000/svg"><g fill="#000" stroke="none"><path d="m341.241067 893.980877c-.244206-1.115874.352922-2.9082 1.328363-2.313786 1.386697.69837-.233331 3.30764-1.474299 2.374563z"/><path d="m348.241067 889.980877c-.244206-1.115874.352922-2.9082 1.328363-2.313786 1.386697.69837-.233331 3.30764-1.474299 2.374563z"/><path d="m379.917971 749.047258c8.983266 2.150117 14.079703 13.914636 9.50389 21.9386 4.020107 3.551311 8.040214 7.102622 12.060322 10.653933-16.090598 9.332139-36.242964-1.429514-54.81229-.344937-9.311838.543876-18.319728 4.142028-27.64646 4.00711-5.54213-.080171-10.966432-1.478452-16.402129-2.56235-22.65321-4.517131-46.374776-3.579271-68.600654 2.712208-.715339-6.07957 7.071235-9.152493 13.151944-9.858079 22.760826-2.641072 45.952958-1.527437 68.356011 3.282307-2.265466-4.687275-7.065332-8.050861-12.244369-8.580446 7.198849 1.699043 14.956879.928107 21.680568-2.154455 3.665055-1.680293 7.1123-4.049871 11.091277-4.700838s8.818751 1.21712 9.653432 5.161651c12.859792 2.655403 25.976043 4.067319 39.106358 4.209654 1.12682-3.962873 2.263548-8.101591 1.49936-12.15006-.764187-4.048469-4.060887-7.939336-8.18076-7.912314-2.22962.014624-3.687161-2.207888-5.328864-3.716607-4.857822-4.464332-14.086383-1.98163-16.048594 4.317451-1.646189-3.597847-4.593003-7.869285-8.423356-6.877907.453773 2.380948.907546 4.761897 1.36132 7.142845-4.104875-.187731-8.053383-2.512043-10.209681-6.009988-.647459 2.751616-5.08513 1.267219-6.3644-1.253507-2.267166-4.467318-1.326174-9.82389-.250498-14.716731s2.205294-10.161293.244375-14.771257c-1.96092-4.609964-8.4919-7.497019-12.141731-4.065444 2.545384-8.764535 6.969823-16.978334 12.888004-23.926081 3.52087-4.133384 8.212584-8.074281 13.635035-7.794246 5.422451.280034 10.067962 7.298438 6.454538 11.351161-6.25669-.218764-12.552455.736189-18.462848 2.800478.51595 3.549049 5.050093 4.922578 8.599735 4.410723 3.549642-.511856 7.086812-2.097524 10.590641-1.332584 3.50383.76494 6.121089 5.762706 3.245981 7.906466-1.037414.773525-2.412883.872737-3.705021.943074-4.317619.235031-8.635239.470062-12.952858.705093 3.186813 2.211712 6.373626 4.423424 9.56044 6.635136-3.574645.887593-7.501745.250191-10.612149-1.722445 2.08085 5.021074 8.728921 7.53684 13.612591 5.151283-1.108676-3.251808 1.714306-7.175778 5.149871-7.158368-4.611008 7.350487 3.517219 16.389865 11.618933 19.496839 8.101715 3.106974 17.959412 4.698299 22.305256 12.208606 1.449269-.418797 2.898538-.837595 4.347807-1.256392-4.998889-5.084292-10.491008-9.683406-16.374148-13.711753 9.982277 4.401413 19.964554 8.802826 29.946832 13.204239 5.126097 9.330338 10.252195 18.660677 15.378292 27.991015-4.093094-2.065943-9.397633-1.431006-12.887509 1.542596-7.621247-5.662078-11.687308-15.746525-10.124962-25.111438-4.098971 4.23784-6.789657 9.815527-7.555117 15.661459-3.07094-3.158679-2.899362-8.872546.355575-11.841269-5.07373-2.138264-11.022051-2.102889-16.06999.095569m-37.698904 22.264839c-5.747334-2.945144-13.525322-1.036772-17.256823 4.234056 6.009292.81687 12.308046-.728564 17.256823-4.234055m-7.566641-60.872032c1.068421.530382 1.656184-1.292588 1.462301-2.469549-2.107788-.389294-2.255415-4.092045-.185312-4.647909-.405601-2.549464-4.950337-1.812662-5.359954.736159-.409618 2.54882 1.951398 4.770512 4.401781 5.582849m4.273887 33.665489c2.85926-2.171304.808042-7.785776-2.777531-7.602493-.698792 2.341262.352301 5.08927 2.435165 6.366571m74.983423 16.049628c-1.231189-1.957984-4.572585-1.985689-5.836072-.048389 2.562133 1.480419 5.124267 2.960836 7.6864 4.441252.342077-1.644303-.303616-3.455255-1.608828-4.512218m-54.509296-20.601018c-.63118.954392-.133974 2.444195.943885 2.828214 1.327809-.81591.620168-3.341164-.938273-3.348276z"/><path d="m119.154797 642.955575c.356273.978806-1.342507 1.821541-1.9063.945682-.331107-.91578-.086736-2.012958.601728-2.701654.506976.507646 1.01395 1.015291 1.520924 1.522937z"/><path d="m132.251848 453.810806c2.979552 3.444317.765389 8.798164-1.960584 12.446469-2.725972 3.648305-6.095091 7.756214-5.034984 12.185348 1.746107-2.229538 3.492214-4.459077 5.238322-6.688615-2.038559 11.775709-1.974339 23.912307.188723 35.665784-7.741543-5.878544-9.971954-17.872466-4.861234-26.14104-7.865431 8.95176-10.791915 21.990842-7.506444 33.445304 3.523248-.264705 5.346712-4.233994 6.438542-7.59424 4.654159 32.682314.862034 66.531429-10.908796 97.373647 3.306684-23.599997 6.603566-47.722865 2.044315-71.113188-.498384-2.556861-2.244651-5.81148-4.713845-4.981417.284437 2.969812.568879 5.939619.85332 8.909425-5.878364-2.689984-10.469331-8.052068-12.221794-14.274612 7.770622.354642 15.541243.709284 23.311864 1.063926-16.876927-12.505974-22.884799-37.640627-13.487565-56.426846 1.237432 2.071726 2.474863 4.143453 3.712294 6.21518 4.678256-19.016525 14.267541-36.803038 27.583474-51.162712 3.191099 4.904591-1.035682 11.115937-4.890261 15.518249-3.854579 4.402311-7.61351 11.134038-3.785346 15.559338z"/><path d="m392.631071 570.682899c-1.965811-3.347776-3.289348-7.56293-6.834746-9.144754-.449299 6.887516 2.831724 13.906375 8.404368 17.978883-8.814563-1.595931-17.629125-3.191863-26.443688-4.787794-1.414999-.256194-2.889909-.538182-4.028793-1.416136-2.512956-1.937214-2.235327-6.054365-.273034-8.547787 1.962293-2.493423 5.053895-3.764592 8.00392-4.932967-6.031779-.612351-12.069822 4.3536-12.63326 10.390144s4.451292 12.034137 10.492205 12.548626c.006973 3.548336-1.946445 7.038578-4.974565 8.888235-17.068561-17.426545-22.564282-45.223131-13.411589-67.833935 1.284242-3.172591 2.833122-6.25981 3.666645-9.579426 1.822842-7.25971 5.728877-13.983844 11.132146-19.163691 1.589713 1.851616 1.718143 4.802858.29529 6.785573 1.714209.446197 3.428418.892394 5.142627 1.33859 15.063647-5.95147 31.433928-8.569592 47.602373-7.613114-1.686165.71235-.066393 3.538745 1.760369 3.422402s3.259696-1.581491 4.975503-2.219144c3.700123-1.375096 7.528126 1.253027 11.071609 2.992431 4.461472 2.190019 9.807618 3.037079 14.429571 1.209935 3.128477-1.236746 5.843219-3.637435 9.180525-4.060866s7.31121 2.963847 5.604172 5.862627c-3.10223-2.588298-8.3783-1.86975-10.675384 1.453882 19.430161-1.786159 39.00691 12.833564 42.811424 31.971149.532812 2.680167.788987 5.406939 1.011854 8.13045.415756 5.080675.14063 11.297125-4.326905 13.752169-5.773364-6.18205-6.265325-16.121643-12.438774-21.904204-2.249916-2.107457-5.081034-3.475762-7.913234-4.693194-15.20584-6.536287-31.883643-9.620817-48.421416-8.955454-10.6043-3.557277-22.863175-1.740669-31.980123 4.739045 2.054961 4.324294.236877 10.089382-3.927028 12.452488 20.641775 2.068588 41.918071 4.326878 60.121445 14.276709 4.647436 2.540255 9.112498 5.588782 14.220825 6.987547s11.209861.769914 14.74328-3.175526c1.30491 6.80946.802145 13.956891-1.443181 20.51662-1.710064.245099-2.723395-2.044894-2.324319-3.725706.399075-1.680812 1.560552-3.132494 1.793144-4.844303.400703-2.949049-2.710406-5.794881-5.612164-5.133627-2.901757.661254-4.47271 4.574037-2.833858 7.058311 2.272886 3.445383 1.162027 8.660791-2.317587 10.880916s-8.677491 1.02993-10.844341-2.483108c-1.316739 3.907942-7.428956 4.957122-9.973542 1.711988-11.182697 3.385118-22.365395 6.770235-33.548092 10.155352 8.40693 1.68947 17.131207 3.517961 23.963071 8.700278-21.411214-1.794546-42.468747-7.718975-61.674686-17.351857 8.158985-2.695329 17.628686-1.000723 24.346604 4.356833-1.280127-2.302631-2.560254-4.605261-3.840381-6.907891 7.784745 3.912767 17.038526 4.809141 25.42952 2.463248 4.442613-1.242033 8.825214-3.527497 11.33445-7.39831 2.509235-3.870813 2.566903-9.554451-.781028-12.727905-1.164399 8.385228-8.033915 15.668883-16.336711 17.321595-8.302795 1.652711-17.437858-2.445157-21.72451-9.745328m-10.750864-18.541238c5.823855-.529295 11.64771-1.05859 17.471565-1.587884 2.258363-.205249 4.522403-.41071 6.78956-.362418 8.112336.172801 16.350654 3.562018 24.130047 1.255311-12.263491-5.039819-25.939293-6.588972-39.019375-4.419997-3.648059.604931-7.690234 1.821565-9.371798 5.114986m79.324395 18.249855c-4.272455-5.584729-9.905669-10.120718-16.273222-13.10356 2.771835 6.715436 9.121085 11.827993 16.273222 13.103561m-97.513215-60.673807c-.000589-.878758-.020806-1.821767-.532821-2.535951-.394601-.550406-1.065809-.891323-1.743023-.885309-3.748723 4.403085-2.597048 12.037775 2.283699 15.139124-.002618-3.905955-.005237-7.811909-.007855-11.717864m18.07361 22.844262c-.639605 2.010911-1.282637 4.171716-.677559 6.193285s3.031578 3.621601 4.866648 2.579787c-.887095-3.19799-2.13274-6.29638-3.706101-9.218472m112.449955 14.488129c1.379558-.403114 2.588633-1.360363 3.297457-2.610663-.497121-1.48831-2.626703-2.114858-3.85061-1.132896s-1.073856 3.196724.271316 4.004629m-121.995517-21.719288c-.77843.599975-1.556859 1.199951-2.335289 1.799926 2.272553 1.009729 5.119682.558268 6.968393-1.104956-.88948-1.396456-3.210597-1.524941-4.248773-.235188m-5.734267 8.348493c.557174-.868229-1.194977-1.787897-1.732635-.90745-.884165 1.748061.329797 4.186246 2.257586 4.534249.911372-1.025541.704941-2.831325-.414367-3.624726m5.993719 32.443478c-.087929 1.871567 2.832708 2.942932 3.975865 1.45845.170011-1.429658-2.019958-1.63613-3.399722-1.22494m107.02578-49.196356c.303084.978304 1.794834 1.299367 2.473552.532373-.234493-1.008592-.636615-2.18821-1.638919-2.448279s-1.815266 1.579542-.792673 1.742491m-41.325398 38.129084c-.797038 1.399387 1.965166 2.848258 2.663373 1.397032-.804205-.495197-1.608412-.990389-2.412619-1.485582z"/><path d="m24.058938 505.822938c1.330167-.844179 2.918999 1.728814 1.56845 2.539986-.998778.636098-1.629994-1.229581-1.367552-2.384268z"/><path d="m268.305466 224.985749c.392431-1.144498 1.960049-1.690216 2.978359-1.036824-.064754 1.396983-2.225121 2.080652-3.081781.975257z"/><path d="m110.554107 559.2192c1.592332 2.631024 1.700179 5.867177 1.763361 8.941883.182836 8.897639.359257 17.874904-1.333978 26.611858-.721663 3.723723-1.782468 7.401731-2.019269 11.18734-.258993 4.140378.476025 8.271323 1.208035 12.3547l4.316619 24.079443c1.483739 8.276756 10.373487 15.871815 6.742621 23.456205-10.004817-13.564795-15.630617-30.307854-15.846716-47.161736-.250428-19.531328 6.273003-40.455151-2.762752-57.772501-2.640707-5.06101-6.623144-9.880968-6.543169-15.588924 1.047707 6.790873 10.917525 8.013274 14.475248 13.891732z"/><path d="m31.247584 449.953381c-.381738-1.099112.311575-2.762515 1.428051-2.435022.825253 1.038317-.251521 2.876964-1.560833 2.665208z"/><path d="m239.465555 574.934201c-1.686579 1.075094-3.635474 1.664446-5.586759 2.103608-5.900715 1.328033-12.401577 1.301992-17.639238-1.722743-5.23766-3.024736-8.667408-9.633567-6.663444-15.340251-3.692855-1.803344-7.665586 1.576106-10.674915 4.374886-5.797677 5.39204-12.69534 9.596242-20.144707 12.278422-.783813.282216-1.650294.548156-2.431915.259925-1.911844-.705015-1.381246-3.594051-.211864-5.262805 2.856212-4.075927 7.486508-6.860769 12.425729-7.473323 3.555305-.440922 5.914765-3.735817 8.595379-6.112561 4.42556-3.923896 10.38234-5.619955 16.213677-6.608919 15.674539-2.658318 32.450796-.838605 46.177937 7.181584 4.815123 2.813272 9.282139 6.436145 12.240107 11.163759-6.989173 2.837934-14.468559 4.463971-22.005137 4.783972-1.597313-1.405336-.360112-4.082018 1.253521-5.468585 1.613632-1.386566 3.725611-2.706876 3.873502-4.829258.237127-3.402986-4.384843-4.616644-7.796063-4.627552-1.132313 5.756963-2.678243 12.14606-7.625811 15.299841m2.749774-10.245807c.586435-.984191 1.171493-2.255924.523039-3.200406-.441323-.642795-1.284562-.842358-2.049936-.991198-3.781673 3.888544-7.245564 8.086046-10.345808 12.536923 5.048728 1.275043 9.207248-3.871984 11.872705-8.345319z"/><path d="m56.209094 530.959072c-.221651-.829609-.089321-1.747658.357603-2.480897.698744.481691 1.474818 1.106535 1.454272 1.954975s-1.52703 1.270745-1.647995.430721z"/><path d="m198.99107 318.654081c-.527358 1.300889-2.116441 1.785826-3.51686 1.881967-2.66209.182758-5.375431-.468214-7.664823-1.83891-2.647151-1.584891-4.704988-4.077865-7.492182-5.401059-2.787193-1.323194-6.922375-.795907-7.890727 2.133527 6.982679 3.556702 13.965358 7.113403 20.948037 10.670103 1.644896.837845 3.390671 1.698069 5.233354 1.587672 1.842682-.110397 3.738438-1.59579 3.587448-3.435591-.293753-3.579342 4.812778-4.556475 8.382468-4.162409 2.73352.301759 6.072826 1.103007 6.734906 3.772246-3.285944 2.604139-8.733283 1.742533-11.055138-1.748593-3.151552 3.06372 1.023315 10.099459-2.85234 12.172612-7.128508 3.813158-15.583309 4.544264-23.604823 3.538723-8.021515-1.005542-15.735836-3.640893-23.383912-6.260577-2.560237-.876954-5.297795-1.88466-6.824594-4.119106-.885457-1.295852-1.25644-2.86468-1.610389-4.393727-1.068679-4.616665-2.137359-9.23333-3.206038-13.849995-.276298-1.193599-.506876-2.592768.291794-3.521824.462311-.537783 1.170695-.782133 1.844318-1.003885 8.866953-2.918947 18.465468-5.851389 27.352197-2.993214.422386.135848.864369.30075 1.137763.650206.846222 1.081651-.560038 2.46792-1.753373 3.147636-6.715814 3.825279-12.615289 8.907553-18.467417 13.956068-1.818104 1.568442-3.69473 4.439675-1.887087 6.020161 6.887222-2.858356 12.396818-8.175493 17.982961-13.115027 3.022083-2.67227 6.419923-5.393516 10.446975-5.631975 4.027053-.238459 8.430761 3.372641 7.394368 7.271347 1.948107.81953 4.181095.278393 6.277984.542601s4.389134 2.172374 3.59513 4.131023m-19.043999 13.217294c.489195-1.675938.517118-4.156614-1.205408-4.441187-.483052 1.004056-.97902 2.088976-.800775 3.188837.178244 1.099861 1.362956 2.095403 2.381644 1.644027m-18.657477-23.893788c1.092189.39869 2.731535-.289533 2.463049-1.420792-1.560987-.727972-3.445842-.722458-5.002541.014632-.089263 1.147191 1.490442 2.00835 2.406294 1.311765m31.473481 22.671867c.090561 1.369059 2.149447 2.07147 3.057875 1.043227-.410199-1.111162-1.897621-1.663977-2.933959-1.090432z"/><path d="m419.209321 1158.959732c-.222415-.82994-.089886-1.74881.35799-2.482074.698885.482234 1.475128 1.10792 1.453684 1.956762s-1.530098 1.268532-1.648697.427743z"/><path d="m114.660555 327.212443c-1.332563 3.524486-2.686518 7.181475-2.45488 10.942336.231637 3.76086 2.50375 7.672488 6.163455 8.569309-3.639569 1.90022-7.402441-2.529073-8.542863-6.473276-1.202396-4.158545-1.551468-8.508634-1.894365-12.823918-.278842-3.509165-.552475-7.089777.284644-10.509021 1.295238 2.466478 2.886003 4.777595 4.727409 6.86814 6.271328-10.250849 13.452877-19.944608 21.432492-28.929885 2.888114 4.810521-5.119011 10.729168-2.850045 15.860845 3.105355-.915475 5.963957-2.654224 8.204989-4.990696 1.294411 5.295822 2.588823 10.591644 3.883235 15.887466.197774.809151.392579 1.678894.094033 2.456524-.802131 2.089328-4.282957 1.829564-5.284522 3.830957-.540984 1.08103-.228496 2.631212-1.214652 3.330344-.806375.571676-1.914241.144063-2.799744-.295183-3.404542-1.688793-6.809084-3.377585-10.213626-5.066378.987198-1.914599 3.596452-2.487429 5.652189-1.843848 2.055737.64358 3.682491 2.190727 5.229792 3.68943.763905-4.549635 1.52781-9.099269 2.291715-13.648904-3.939915.276307-7.87983.552615-11.819745.828922-1.955486.137138-4.637929 1.858157-3.299874 3.290757 1.757823-.286333 3.621016 1.028394 3.940448 2.780501-4.290269 1.057361-8.300691 3.229713-11.530085 6.245578z"/><path d="m171.934073 561.79807c7.239197-12.797575 22.577539-18.497157 37.003508-21.338868 14.855072-2.926238 30.803325-3.764685 44.632602 2.398687 7.052656 3.143197 13.208341 7.956063 19.28456 12.72043 1.552383 1.217224 3.247282 3.343809 2.020267 4.888464-1.262861 1.589783-3.773466.298782-5.340035-.992763-10.111873-8.336652-22.203884-14.435421-35.112296-16.698738-20.870965-3.659444-43.332172 3.371903-58.391006 18.278957-1.16456 1.152823-3.391978 2.222785-4.0976.743832z"/><path d="m237.286371 1176.48214c.413066-1.653141 3.135184-1.984649 3.932942-.478967-1.26994.526997-2.696736.668951-4.045615.402508z"/><path d="m441.683713 771.630495c-1.750222-.012415-1.730747-2.660371-1.090391-4.289289 1.722753-.138239 1.796519 2.531498 1.162373 4.139242z"/><path d="m133.737982 418.201852c-.684957-1.177753-.934383-2.602398-.690305-3.942807-2.991803.712183-5.342832 3.002271-8.169273 4.214425s-6.988253.685469-7.797936-2.281432c1.628901-1.448317 3.257801-2.896633 4.886701-4.34495.280624-1.182097-1.750362-.950992-2.810266-.357101-2.978265 1.668804-6.830354.970927-9.714385-.855909s-5.007676-4.609125-7.067482-7.331654c1.90281-5.370926 6.563854-9.679983 12.067368-11.15608s11.695306-.077878 16.03045 3.619966c-4.736888 5.881727-15.061111 1.679418-21.241545 6.019354-.883715.620549-1.697824 1.499812-1.785561 2.576071-.087738 1.076259.89646 2.239988 1.943953 1.977709 6.601839-1.653024 13.563521-1.852575 20.249205-.580426 5.648363 1.074769 11.466366 1.252997 17.169925.525984.539833-2.272095-1.330733-4.799193-3.661425-4.946516.998771-2.210216 3.710462-3.485428 6.049788-2.845.033712 5.012153-.189667 10.275371-2.739165 14.590794s-8.170438 7.220873-12.720047 5.117572m-7.854724-6.44442c.787913-.580761 1.575826-1.161521 2.363738-1.742282-.886324-.429989-1.939149-.861505-2.813927-.408489s-.724592 2.190626.252865 2.067995z"/><path d="m10.059653 442.826303c-1.050294 1.242652-3.430082.789877-3.950662-.751648 1.18376-1.191673 3.525996-.776219 4.22769.749889z"/><path d="m322.717468 830.743116c-8.043949-.452411-16.087898-.904823-24.131847-1.357234-3.157344-.177576-6.504341-.419082-9.076236-2.259112 3.944004-.014802 7.878118-1.131927 11.241327-3.192074 3.484963 1.492888 6.969925 2.985776 10.454887 4.478664.716295-5.999583-1.604693-12.284218-6.04861-16.378076-1.299455-1.197093-2.828775-3.261352-1.476952-4.398977.4838-.40714 1.16616-.452828 1.797904-.479731 5.33057-.226999 10.661139-.454 15.991709-.681 2.450663-.10436 4.991844-.193755 7.259666.740925 2.267822.934679 4.184111 3.200963 3.888958 5.636025-.607552 5.012412 2.223927 10.260779 6.746643 12.505425 2.770008 1.374769 6.841024 3.111673 5.822182 6.031415-7.492675.195692-14.986228-.225366-22.469631-.64625m4.673254-3.761124c.239173-4.084678.408959-8.173419.50926-12.263864.021592-.880446.017602-1.834644-.510559-2.539411-.934678-1.247213-3.329448-.642436-3.559874.899012-2.718568-.211556-5.437137-.423116-8.155706-.634676-2.513226-.19558-3.074651 4.041946-1.018126 5.499774 2.056525 1.457827 4.865762.892119 7.307676.266328-.086872 3.63674 2.134297 7.227079 5.427329 8.772837m-7.538085-1.496171c.135987-.849522.271974-1.699044.407961-2.548567-1.33657-.794267-3.320617.634912-2.990619 2.154247.789229.170235 1.57846.34047 2.367691.510705m13.000557.775831c1.115874.244206 2.9082-.352922 2.313786-1.328362-.69837-1.386698-3.30764.23333-2.374562 1.474298z"/><path d="m65.250545 447.922916c-.63813-.826514 1.097596-1.640695 1.879267-.94836.241174 1.176138.115313 2.424839-.355718 3.529189-.857853-.571239-1.451975-1.522873-1.588531-2.54443z"/><path d="m258.493835 504.021827c-2.798813 1.866611-6.731208 1.846104-9.510401-.049595-.893823.804669-.834962 2.425943.114859 3.163677-.553507 1.103921-2.166391 1.272781-3.243252.668319-1.076862-.604462-1.740568-1.726884-2.354311-2.798483-1.413531 1.653376-1.204714 4.439773.439458 5.864s4.431865 1.23349 5.866728-.401408c1.409966-1.60653 4.237123-1.039429 5.613779.595736s1.670406 3.901801 1.810902 6.034688c-13.883827-.778286-27.749739-1.876142-41.583053-3.292406-2.031803-.208017-4.133142-.445183-5.895051-1.478223-1.44513-.847308-2.555563-2.172174-3.96488-3.077798-1.409317-.905625-3.402195-1.303922-4.683159-.224358-1.280965 1.079564-.562967 3.810234 1.095282 3.572451-2.659267 1.460124-6.097035 1.381171-8.686468-.199497 2.61763-3.679554 5.480968-7.554016 9.706316-9.146978 6.986029-2.633745 15.35563 1.840678 22.089128-1.384414 7.193991-3.445655 15.56763-4.366092 23.338307-2.565368 3.583553.830428 7.105831 2.265285 9.845816 4.719657z"/><path d="m449.344934 545.98322c-.211999-.934667 1.529895-1.129427 1.927745-.257498s-.118921 1.867168-.62051 2.68384c-.799258-.570647-1.344583-1.484305-1.467467-2.458651z"/><path d="m118.974821 438.628288c-3.496301-1.060429-7.55003.014587-10.061397 2.668201-2.511368 2.653613-3.36164 6.760365-2.110385 10.193001 3.007265-1.286252 6.567231 1.19025 7.589489 4.297192 1.022257 3.106941.212098 6.495711-.7557 9.620045-4.248987-1.387359-7.782658-4.809043-9.306085-9.011165-2.038008-5.621509-.518741-11.837615 1.013547-17.617488.403187-1.520841 1.188442-3.363045 2.761327-3.402404 2.751707-.068857 4.261859-3.60426 3.456046-6.236237-.805813-2.631976-3.035283-4.524585-5.015764-6.436215-2.077724-2.005491-3.850553-5.77728-1.434286-7.358603 1.557022-1.018991 3.824472.074422 4.567061 1.780652s.326672 3.699976-.403787 5.411434c4.283804.325758 7.27959 5.707399 5.299511 9.520059-1.008028 1.940966 1.7729 3.692865 3.9573 3.801792 2.184401.108927 5.000271.146987 5.738131 2.205878-.616045 1.892089-3.390813 1.141402-5.295009.563862z"/><path d="m30.545633 516.520843c-1.586324.908433-3.298263-2.15045-1.694356-3.027466.485888.792295.971778 1.584593 1.457668 2.376892z"/><path d="m170.043314 275.805388c-10.333534 6.799036-19.344514 15.60012-26.385167 25.770568-.809131 1.168816-2.761328 1.276571-3.694181.203907 4.798998-5.791752 6.797349-13.384868 10.797694-19.75448s11.709233-11.760547 18.717089-9.028391c.827058.634144 1.082314 1.903907.564563 2.808395z"/><path d="m100.704301 497.449135c-.722379-.757786-.786928-2.05287-.143481-2.878731.790198.511218 1.662668 1.153632 1.737629 2.09179s-1.382187 1.71637-1.80911.877624z"/><path d="m98.316224 610.278943c-3.363513 5.921048-7.872459 11.096789-12.349445 16.227932-1.555796 1.783122-4.157846 2.577335-6.444206 1.96694-.816823-2.622824 2.105185-4.716379 4.358298-6.287963 10.250576-7.149934 13.177195-20.77919 15.303103-33.094886 4.842929 5.771936 2.853779 14.636684-.86775 21.187977z"/><path d="m267.199785 332.213117c-1.423743.171191-2.914676-.348346-3.923706-1.367273 1.255404-.844411 3.224574-.233107 3.781088 1.173787z"/><path d="m471.371711 741.323708c4.274375-.483346 8.633249 2.798484 9.350303 7.039915 3.025214-1.137263 4.227871-5.496762 2.213655-8.024255 1.567457-2.059602 5.037612.550787 4.900327 3.135363s-2.005373 4.734775-2.732447 7.218773c-.763387 2.608061-.225763 5.398257.315741 8.061247.896814 4.41032 1.793628 8.82064 2.690442 13.23096.341475 1.679292-1.904814 2.863738-3.54934 2.381905-1.644525-.481833-2.821781-1.880533-4.187197-2.916036-2.81059-2.1315-6.448531-2.729876-9.887878-3.513198s-7.068136-1.979171-9.161504-4.818274c-2.093368-2.839104-1.596366-7.73454 1.707171-8.971206 1.753592 3.028123 3.507182 6.056246 5.260773 9.084369 1.409171.490481 2.640863-1.222567 2.75924-2.709954.118377-1.487388-.267664-3.093648.441008-4.406705.862703-1.598459 2.901716-2.018178 4.605324-2.648296 1.703608-.630117 3.511564-2.25171 2.872884-3.952127-4.454564 1.677595-9.606001-3.876533-7.598502-8.192481m6.29434 15.13825c-.793213.597333-1.340511 1.511726-1.492181 2.493046.582633.796099 1.498826 1.339699 2.476771 1.46953 1.133755-.715931 1.75774-2.158483 1.503116-3.474964-.723237-.477487-1.642902-.646893-2.488806-.458449z"/><path d="m692.669848 866.367213c1.170803.104828 2.341607.209656 3.512411.314484-.604643.857948-1.34312 1.796513-2.388867 1.886414s-2.001603-1.416877-1.14369-2.021569z"/><path d="m214.846474 889.934116c-2.348445-5.403506-11.118653-5.266116-13.630985-10.5954 6.737749 1.555772 12.995282 5.132388 17.755274 10.14838 1.075411-2.92238 4.948482-4.411063 7.704396-2.961322 2.755914 1.449742 3.723275 5.484723 1.924296 8.026471-.415519-1.809558-1.191604-3.723834-2.833426-4.590768-1.641822-.866935-4.208066.117046-4.178736 1.973467.495235 2.94815 3.603613 5.192317 6.557817 4.73457-.120157 2.769645-.404123 5.532174-.849921 8.268345-5.4519-3.694686-9.823601-8.963652-12.448717-15.003741z"/><path d="m139.863358 822.439329c.131562.876853.263123 1.753707.394685 2.630561-.871849.172058-1.743694.344115-2.61554.516172-.822445-1.304449.469211-3.316414 1.99763-3.111637z"/><path d="m424.727012 410.386291c-1.065892-1.023413-1.578193-2.592053-1.321805-4.047307 3.459071-2.671256 8.796698-.931445 11.61842 2.406018 2.821723 3.337464 3.869261 7.768915 5.205925 11.929937 1.644239 5.1185 3.846907 10.057403 6.556331 14.700849-5.087397-1.351315-8.887662-6.504028-8.675953-11.763576.045028-1.118664-1.365719-1.575477-2.328706-2.146523-2.361905-1.400588-2.594852-4.631039-3.076559-7.334407-.481708-2.703368-2.419262-5.882218-5.099329-5.284319-.319761 1.175487-1.723118 1.926003-2.878324 1.539328z"/><path d="m328.197302 355.062584c-1.366895.693235-3.25693-.651546-3.05007-2.170159 1.314018-.748246 3.2309.583149 2.988529 2.075719z"/><path d="m67.664198 520.868886c-1.894938-5.31157-.527404-11.643841 3.39062-15.700027-2.445789 6.900417 4.120639 13.579615 5.406956 20.786765 1.042857 5.843041-1.172548 12.87587 2.960891 17.135373-7.194241-.0226-13.472143-7.297564-12.441662-14.417658.379067-2.619158 1.572437-5.311878.683196-7.804454z"/><path d="m87.467763 474.879802c-1.317278.549694-3.018464-.177111-3.531888-1.508944-1.2911.634913-2.051304 2.196906-1.754367 3.604697-1.04599.605193-2.376805.690273-3.491346.223207 1.054033-4.13117 2.108066-8.262341 3.162099-12.393511l3.494994-13.698258c.644507-2.526081 1.289015-5.052161 1.933523-7.578241.408623-1.601553.815748-3.304379.317989-4.880508-.542883-1.719007-2.05635-2.946919-2.880863-4.550004-.824513-1.603086-.436368-4.17043 1.351363-4.402216 3.709614 3.663416 5.469797 8.809296 7.110542 13.758014.867133 2.615396 1.734266 5.230791 2.6014 7.846187.970831 2.928166 1.954519 5.95838 1.680241 9.031073-.418019 4.683012-3.711728 9.28711-2.150508 13.721964-1.933095.548064-3.804092-1.435412-4.034179-3.431481-.230087-1.996068.61408-3.934721 1.224536-5.849029 1.887283-5.918269 1.568399-12.512495-.881132-18.221044-3.342299 5.200013-4.066113 11.995039-1.894207 17.782433 1.351254 3.600635-4.962754 7.811464-2.258197 10.545661z"/><path d="m506.09277 618.96831c.10431-1.513435 1.925121-3.00958 3.060449-2.003401.200427 1.49696-1.710631 2.794442-3.028014 2.055825z"/><path d="m386.342168 795.02554c.223055-1.111356 1.737233-1.715766 2.664272-1.063489.746461 1.663773-2.662673 2.842108-3.102933 1.072498z"/><path d="m83.842803 520.776921c-4.781522-7.424144-8.020201-15.837077-9.45127-24.551026-.350893-2.136634 1.211577-4.408096 3.332396-4.844513.91327 11.148899 5.050198 22.015077 11.782605 30.948538-.400077 1.163234-1.987017 1.529023-3.114902 1.038055-1.127886-.490968-1.882764-1.556871-2.54883-2.591053z"/><path d="m484.62198 504.59828c1.139819.375869 1.698522 1.925449 1.060817 2.942207-.895517-.201486-1.900405-.483522-2.325076-1.297283-.42467-.813762.462916-2.093691 1.243661-1.611001z"/><path d="m95.098086 585.989816c-.983283.697583-2.414757.683998-3.384624-.03212-.29803-12.393646-3.291109-24.715577-8.711819-35.86489 1.237029-1.70173 3.787641.320038 4.724573 2.203727 5.172072 10.39845 7.729031 22.085074 7.37187 33.693283z"/><path d="m462.786396 553.689493c-.834893.2279-1.473309-.959637-1.116842-1.748253.356467-.788617 1.227014-1.185702 2.026697-1.516599.651684.999453.062511 2.558721-1.08726 2.877488z"/><path d="m362.271779 647.817879c-3.183479-.570387-5.553443-4.00043-4.96087-7.179855 6.807252 7.134785 14.015449 15.15375 14.565615 24.99962.10172 1.820407-1.204127 4.371583-2.780738 3.455872-.431727-.250749-.687875-.713201-.923215-1.153517-3.029201-5.667582-6.058403-11.335162-9.087606-17.002742 1.579448-.211566 2.94152-1.544815 3.186814-3.119378z"/><path d="m484.718669 566.32466c-1.122903-.353594-1.706121-1.848886-1.119164-2.869387.829265-.11751 1.777439.238267 2.109193 1.007313.331754.769047-.273305 1.846267-1.107199 1.768077z"/><path d="m199.351492 291.543403c-4.633247.229576-9.266495.459152-13.899743.688727-3.201254.158621-6.544991.358082-9.307538 1.983359-6.43424 3.785428-16.501063-2.574951-21.426852 3.034462-.721893-1.852126.583711-3.991252 2.344773-4.913293 1.761063-.922041 3.835125-.949463 5.822249-1.002746 8.270765-.221768 16.519671-1.25132 24.591217-3.069245 2.238903-.504259 4.531046-1.072773 6.802817-.747169s4.552654 1.790704 5.073078 4.025904z"/><path d="m181.019551 350.026334c-3.157307 2.812674-6.589221 5.754995-10.784292 6.285184-2.955925.373582-5.929151-.518497-8.667912-1.691631-5.100055-2.184583-9.760362-5.390075-13.624581-9.371378 1.71753-1.541565 4.468511-.856807 6.441113.341182 1.972602 1.197988 3.804506 2.862474 6.095133 3.14419 2.665839.327864 5.126871-1.302742 7.693962-2.092829 4.458844-1.372323 9.643071-.006195 12.846578 3.38528m-11.320378.407348c-1.088121-1.433561-3.725198-1.1183-4.444721.531363.774407 1.192219 1.997474 2.08527 3.368885 2.45987 1.098458-.466775 1.643417-1.925247 1.120192-2.997966z"/><path d="m318.395098 221.851385c.8486.198296 1.697201.396593 2.545801.59489.892425.208539 1.854594.459783 2.423287 1.178461.568692.718679.395121 2.045855-.498299 2.250088-15.593845-3.98954-31.879165-5.261062-47.903252-3.74018 13.122663-6.861218 29.01279-3.652779 43.432463-.28326z"/><path d="m30.877157 453.115273c.937253 1.430814.419928 3.604028-1.061469 4.459092-.512139-1.006334-1.039194-2.094217-.883873-3.212642.155322-1.118426 1.331964-2.154546 2.374851-1.721665z"/><path d="m289.763979 265.246706c1.308178.295321.18648 2.774908-.962556 2.083344s.070174-2.848205 1.313211-2.344814z"/><path d="m371.374532 676.866573c-.487553-1.674097-.51434-4.151323 1.206032-4.435275.482984 1.003123.978897 2.086916.801644 3.186055-.177252 1.099138-1.359175 2.095213-2.378047 1.646408z"/><path d="m259.332097 235.728229c2.388216-1.428799 4.842589-2.883173 7.579822-3.385765 2.737233-.502593 5.86124.139588 7.610559 2.304057-8.586732 3.617322-17.173464 7.234639-25.760196 10.851955-.91932.198722-1.616253-1.025846-1.313418-1.916312.302836-.890465 1.169002-1.443929 1.976134-1.926813 3.302367-1.975706 6.604733-3.951414 9.907099-5.927121z"/><path d="m235.170764 246.981669c1.538462-1.065352 3.912956-.617548 4.957715.934973-1.583518 1.144852-4.050653.790173-5.247537-.754394z"/><path d="m288.210067 246.67454c-.773801-2.779748-2.758738-5.199308-5.333634-6.501489-2.751451-1.391472-7.374464-.221095-6.937745 2.831109-1.998748-1.976181-.321824-5.71543 2.315814-6.68659s5.557666-.095743 8.228449.78016c3.223133 1.057055 6.55729 2.178333 9.032788 4.497354 2.475497 2.319022 3.835268 6.199137 2.240137 9.192715-1.030295-1.814442-2.133182-3.705744-3.912678-4.795285s-4.445903-1.03384-5.633131.682026z"/><path d="m390.276019 1176.4214c-.47247-1.17503.42224-2.684755 1.681705-2.817687 1.259464-.132931 2.453641 1.179194 2.186689 2.4172-1.248326.514008-2.649556.649715-3.973319.384814z"/><path d="m113.950713 543.658045c.530872 1.762694-.376626 3.604642-1.256577 5.221615-.747409 1.373417-2.041375 2.97784-3.515028 2.455117-.539388-.191326-.938699-.642048-1.308638-1.078729-4.403814-5.198323-8.198542-10.9122-11.281829-16.987517.766749-1.315421 2.901131-.808447 3.865943.369422.964812 1.177868 1.336487 2.763247 2.339767 3.908526 2.905124 3.316312 9.884965 1.890046 11.156362 6.111566z"/><path d="m500.466372 673.489675c-.127927-.840368-.255853-1.680736-.38378-2.521104.713762-.503682 1.661958-.658892 2.49906-.40907 1.463075 1.144401-.405335 4.009197-2.042454 3.13166z"/><path d="m407.177492 372.228913c-2.292006 1.060831-.955407 4.63675 1.010118 6.22274 1.965525 1.585991 4.599253 3.450428 3.999439 5.903768-4.882153-1.92055-8.569093-6.597008-9.297297-11.79255-.144198-1.028813-.231259-2.179792-.999248-2.879394-.98604-.898234-2.525275-.578812-3.841538-.794566-1.316263-.215755-2.577157-1.971487-1.486432-2.739222 4.315499-.317693 8.705171 2.196289 10.614957 6.079224z"/><path d="m406.697489 791.606025c-1.716129.080445-1.748241-2.555207-1.113216-4.151552 1.990919.077121 2.946163 3.189028 1.341401 4.369897z"/><path d="m205.038436 314.554109c.92635-4.671456 7.412527-5.204844 12.054988-4.142685 6.40991 1.466537 12.615368 3.823837 18.3823 6.982978-1.331812 2.106462-4.28996 2.598176-6.70158 1.969694-2.411621-.628482-4.494916-2.109992-6.723595-3.225292-5.211921-2.608215-11.408126-3.185397-17.012113-1.584696z"/><path d="m430.223165 804.42011c.0542 1.170689-1.115531 2.238192-2.276399 2.077454-1.160868-.160737-1.99653-1.505914-1.626273-2.617831 1.095498-.418069 2.42176-.146475 3.264746.668558z"/><path d="m93.106225 515.36388c-6.138181-6.512289-8.11808-16.634569-4.885977-24.979669.700199-1.807873 1.61745-3.522417 2.532283-5.231734 2.659534.882727 5.936497 3.566914 4.164751 5.737913-5.368153 6.577835-3.731412 16.20323-1.811058 24.47349z"/><path d="m442.162753 443.457244c-1.690328.110732-3.398232-.91356-4.096574-2.456865 1.583661-1.323001 4.477742.414567 4.054495 2.434266z"/><path d="m195.962058 269.45971c-7.909948 3.807376-15.819896 7.614751-23.729843 11.422127 4.225788-8.448517 14.490538-13.389355 23.729843-11.42213z"/><path d="m400.672768 529.447368c-.425729-1.633718 2.202518-2.430973 3.614911-1.506082-.255475 1.587298-2.366965 2.527784-3.717773 1.655944z"/><path d="m422.488483 819.116198c2.015343-1.315156.160583-4.483056-1.947261-5.644192-2.107845-1.161136-4.894604-2.598906-4.533361-4.978139.515229-3.393448.351354-7.941219-2.940313-8.913791 1.236938-2.246684 4.897584-.411239 5.721746 2.017417.824163 2.428655.565735 5.357213 2.307714 7.23953 1.179886 1.274942 2.99137 1.718425 4.44488 2.669697 1.453509.951272 2.550343 3.03831 1.440796 4.374914-1.498067 1.078188-2.996134 2.156376-4.494201 3.234564z"/><path d="m91.140551 317.954425c1.302857.630489.960306 3.005717-.46761 3.242379-1.697537-.332442-1.195255-3.544681.522733-3.343056z"/><path d="m45.233425 413.464573c-.629456 2.48355-3.794982 3.313412-6.341872 3.034871-2.546891-.278542-5.166442-1.18771-7.599935-.386242-2.721755.896403-5.910913.177258-7.984554-1.800494 2.674118.436632 5.04498-1.76804 6.512454-4.045774 1.467474-2.277735 2.640846-4.930256 4.957199-6.33598 2.468165 4.097284 6.149402 7.45355 10.456708 9.533619z"/><path d="m420.544604 797.798088c-.663782-.369201-1.147611-1.183703-.882334-1.895422.265277-.711718 1.464683-.900006 1.766803-.203128 1.609907.769474-.182336 3.807269-1.634388 2.770243z"/><path d="m271.190262 691.679538c-1.543584-.380635-1.992974-2.570236-1.164198-3.926947.828777-1.356711 2.422236-2.021863 3.942713-2.48628 3.886051-1.186963 8.15252-1.601034 11.978541-.232882 3.82602 1.368151 7.074804 4.798786 7.382898 8.850372-5.615922 1.085162-12.535101 1.708008-15.971508-2.864438-1.326969-1.76565-4.023982 1.18898-6.168446.660171z"/><path d="m148.86372 365.150712c.770045.56095 1.540091 1.121901 2.310136 1.682851-.283372 1.696878-2.899009.978406-4.205988-.140299.49763-.487175.995262-.974352 1.492894-1.461529z"/><path d="m51.71242 586.335044c.476651-.618153 1.300949-.828742 2.062366-1.000652 7.86656-1.776071 15.829385-3.56232 23.891792-3.375876-6.473799 3.699452-13.553839 6.335221-20.870803 7.769818-1.308101.256473-2.7217.463067-3.92728-.105688-1.205581-.568755-1.970055-2.231974-1.156076-3.2876z"/><path d="m53.560489 562.569308c1.054092.953437 1.531964 2.499851 1.199535 3.881749-1.994442-.0489-2.975475-3.170365-1.367596-4.351424z"/><path d="m282.799597 547.942878c1.903343 6.954242 3.777973 14.404812 1.503475 21.246657-1.087437 3.271072-3.111043 6.225085-5.768462 8.42066-2.332576-3.287425 2.026227-7.163016 3.124438-11.041416.904912-3.195758-.54634-6.513699-1.32752-9.741932-.781179-3.228233-.487382-7.368372 2.46807-8.883969z"/><path d="m230.587185 906.738014c-.120557-.684301.144666-1.371248.404832-2.015542 1.675369-4.148979 3.350735-8.297958 5.026101-12.446937 1.903549 6.705742 3.807098 13.411483 5.710647 20.117225-3.599945-.085052-7.155957-1.461718-9.874732-3.822882-.571977-.496741-1.135409-1.085785-1.26685-1.831863z"/><path d="m181.761494 505.213295c-.745746-1.718838 2.648389-3.028682 3.250658-1.254475-.387053 1.102814-1.880043 1.641913-2.882369 1.040784z"/><path d="m278.161475 506.957911c-.000903-1.002223-.001805-2.004447-.002707-3.006671.79748-.501072 1.799575-.664891 2.715103-.443856-.271672 1.475939-.543345 2.951881-.815017 4.427823-.551308.853839-2.204485-.026646-1.803608-.960605z"/><path d="m329.72146 255.562127c5.610799-7.326943 16.212611-10.353352 24.845812-7.092523-8.069229 3.038791-16.388396 5.413592-24.845812 7.092524z"/><path d="m334.658195 364.543695c-2.36174-.050281-3.136308-4.083082-.961245-5.004734 1.531208 1.053481 1.994222 3.382617.982359 4.941643z"/><path d="m213.214316 335.549575c2.644334-1.340908 5.288668-2.681815 7.933002-4.022723 1.495729-.758464 3.023731-1.527537 4.681784-1.779202 4.520161-.686085 8.608812 2.525054 12.051699 5.533225-1.024697 1.922132-3.736478-.093009-5.706196-1.022958-3.104188-1.465564-6.612711.57771-9.6883 2.102379s-7.574749 2.173109-9.271989-.810721z"/><path d="m368.626434 828.355232c-1.950097.507014-4.704473-.548456-4.420834-2.543322 1.896569-.40513 4.002903.755718 4.673255 2.575536z"/><path d="m294.915976 233.72782c5.383402-2.779754 12.837604-.25159 15.419234 5.229583.817915 1.736547 1.172136 3.801176.438475 5.574964-5.285901-3.601514-10.571805-7.20303-15.857709-10.804547z"/><path d="m490.202846 753.891047c.943397.57092.527898 2.345063-.570903 2.437706-1.542654-1.011464-2.011744-3.346994-.979275-4.875671.796693.5995 1.344 1.52053 1.489678 2.506889z"/><path d="m137.007009 391.051494c2.720175-.594005 5.349418-1.6764 8.126774-1.872595 2.777355-.196195 5.898377.753471 7.215456 3.20653 1.31708 2.453058-.455651 6.262925-3.22887 6.01503.868816-2.994208-3.230171-5.08199-6.321427-4.676695-3.091257.405295-6.302211 1.913739-9.177754.709006-.979942-1.610124 1.544332-2.97915 3.38582-3.381279z"/><path d="m100.705723 700.672402c-1.271838-6.350411-2.543675-12.700821-3.815512-19.051232-.828234-4.135452-1.660708-8.332793-1.349819-12.538894 4.709623 9.740282 6.527337 20.857067 5.165331 31.590125z"/><path d="m350.273258 256.013107c.622709-1.404631 2.604112-1.987257 3.888024-1.143263.188493 2.266212-3.575952 3.43254-4.701754 1.45673z"/><path d="m81.674703 324.508004c.839526-.254048 1.795224-.087564 2.499393.435398.004549 1.01294.009094 2.025881.013638 3.038822-.926518.779135-2.505937.576044-3.205204-.412143-.699266-.988188-.365344-2.545206.677647-3.159745z"/><path d="m304.695678 733.114859c3.191816 4.195247-.538106 10.266848.497101 15.435612.397924 1.986829 1.544499 3.814424 3.160211 5.037252-.911396 1.284303-2.966402 1.257646-4.221993.307081-1.255591-.950564-1.863257-2.524067-2.240082-4.053146-1.390976-5.644329-.351258-11.844915 2.804763-16.726798z"/><path d="m406.207103 821.093177c-1.627222.484395-3.548674-.505242-4.099221-2.111289.617196-.792402 1.543615-1.337251 2.536103-1.491544 1.140503.701733 1.765665 2.151937 1.492826 3.462942z"/><path d="m46.886712 409.409835c1.303395-4.861968 4.847049-9.074292 9.414192-11.190603 1.142616-.529463 2.654062-.871067 3.534161.029672-2.778707 5.119126-7.475431 9.167502-12.948353 11.160931z"/><path d="m348.095926 821.872544c-1.623521 1.412946-4.654109.266338-4.935754-1.867417 1.850587-1.288533 4.812993-.359995 5.596992 1.754326z"/><path d="m104.471379 710.048377c3.517628 4.458614 7.035257 8.917229 10.552885 13.375843-5.834825-1.662006-10.29432-7.31444-10.552888-13.375842z"/><path d="m357.44972 685.498261c3.804922 1.292516 7.660547 3.49328 9.204119 7.203457 1.188749 2.857314.73304 6.313559-1.082415 8.819849-1.809636.231584-2.96325-1.830558-3.586455-3.545209-1.511748-4.159367-3.023499-8.318732-4.535249-12.478097z"/><path d="m485.758319 677.764726c.549941-1.134934 1.099881-2.269867 1.649822-3.404801 2.140699 1.166121 2.29407 4.738053.261206 6.08338-.802791-.584567-1.352279-1.50545-1.485509-2.489548z"/><path d="m372.919523 359.254272c-3.107706-4.174854-6.175993-10.257998-2.635336-14.072574 2.647208 4.210383 5.294416 8.420766 7.941625 12.631149-1.538747 1.059391-3.443022 1.576678-5.306287 1.441426z"/><path d="m347.370116 813.773998c-1.577131-1.682986-2.32821-4.106122-1.979434-6.386065 2.579512-.452379 3.069439 3.564524 2.341148 6.080102z"/><path d="m457.956949 682.171246c-1.754434-1.723009-.685992-5.284201 1.727185-5.756829-.454191 1.860111-.908381 3.720225-1.362571 5.580339z"/><path d="m275.408596 288.39642c-4.051118-2.122441-8.102235-4.244882-12.153352-6.367323 6.378792-.783164 13.075876 1.812163 17.261155 6.68923-1.285828 1.310079-3.481785.529989-5.107804-.321904z"/><path d="m93.584333 481.308125c-1.112694.95232-2.821598-.858816-2.34-2.241952s2.005113-2.058457 3.373485-2.58053c1.144267 1.582407.794805 4.046326-.744357 5.248139z"/><path d="m39.850891 512.410357c-1.709394-4.79318-3.441603-9.721016-3.317548-14.808374 4.22106 4.836499 6.869982 11.023668 7.456448 17.416251-1.304407 1.500399-3.47107-.735264-4.138902-2.607875z"/><path d="m118.687187 449.512461c-.78661.86002-2.057963 1.243534-3.188941.961969-1.128549-2.238496 1.950465-5.10637 4.103291-3.82191.734171.857127.127081 2.440653-.99192 2.587315z"/><path d="m411.998752 802.915706c-1.560521 4.614665-1.430761 9.780546.359474 14.311044-2.411426-4.02148-5.610723-7.568484-9.362981-10.380572 2.674898-1.932254 5.767947-3.282522 9.003506-3.930472z"/><path d="m61.085807 388.15c.370916.595128.741833 1.190257 1.11275 1.785385-1.172397 1.168785-2.344793 2.337568-3.517188 3.506351-1.34732-1.705829-.176833-4.694693 1.970584-5.031928z"/><path d="m66.111161 406.908419c-4.094925 3.317761-9.023466 5.59835-14.203005 6.572172 2.857764-4.501288 7.564229-7.78893 12.774026-8.923135.793738.518648 1.334044 1.407562 1.428976 2.350962z"/><path d="m160.926903 405.439676c.216525 2.169216-1.33528 4.37889-3.449219 4.911473-.81303-2.082431.956978-4.709218 3.192318-4.737567z"/><path d="m360.728202 806.536014c-2.418554 1.539821-4.224967 4.01421-4.954745 6.786912-1.659364-.429474-2.208264-2.703389-1.471471-4.250991s2.287729-2.513228 3.758606-3.39326c2.276456-1.362008 4.55291-2.724018 6.829364-4.086029.120789 1.808235-.147309 3.641479-.780845 5.339399-1.144447-.187981-2.288893-.375961-3.433339-.563942z"/><path d="m95.01681 429.369911c-2.619903-1.536947-2.361973-6.42235.612714-7.036628.939967 2.126229.839767 4.684281-.263638 6.730475z"/><path d="m127.247682 388.052537c-3.533421.355041-7.066841.710082-10.600261 1.065122-.846943.085102-1.733487.164978-2.52216-.155255-1.154174-.46864-1.85829-1.840869-1.565916-3.051761-.467223-1.517336 1.737923-2.713714 3.169071-2.026387 1.431149.687326 2.099316 2.318826 2.644683 3.809859.008539-2.925043 2.335107-5.673195 5.218643-6.164285 2.336409 1.222303 3.832653 3.891813 3.65594 6.522707z"/><path d="m373.197681 594.558453c.800462 1.404696-1.239217 3.148267-2.704122 2.464188-1.464904-.684079-1.816238-2.763198-1.091248-4.208292.460259-.917421 1.262775-1.658092 2.214083-2.043462 2.549648 3.813255 9.717634-4.311527 12.419057-.604248-2.825395 2.83904-6.833031 4.463064-10.83777 4.391814z"/><path d="m82.501919 591.784782c-2.757131-1.198659-3.200066-5.664282-.732125-7.381205 1.634989 1.897658 1.983895 4.802354.844815 7.033228z"/><path d="m231.634295 286.624106c3.0694.519524 5.914422 2.26186 7.7722 4.759815-5.734221.053637-11.474794-1.520738-16.379392-4.492114-.906303-.23911-1.362654-1.483364-.825869-2.251751 3.229405-.086434 6.476594.579 9.411702 1.928701z"/><path d="m300.769378 949.575545c2.021209-1.75751 5.393512-1.660545 7.310397.210198-1.704513 2.016621-5.172295 2.166706-7.044668.304891z"/><path d="m149.282309 335.769335c5.142086.686053 10.214401 1.893952 15.113796 3.599134 1.099293.382596 2.282074 1.937763 1.206459 2.382597-5.964191.573733-12.139495-1.689652-16.320255-5.981731z"/><path d="m285.850394 287.828231c2.520527-.965407 5.064144 1.334392 7.735371 1.721194 2.451219.354951 4.808343-.933248 6.950591-2.176326.80232.471917.798227 1.846652-.006889 2.313785-1.368481 2.971631-4.775136 4.862181-8.020816 4.451216-3.24568-.410966-6.07362-3.090936-6.658257-6.309869z"/><path d="m189.744037 301.588898c-1.633295 1.142362-3.914342 1.277963-5.671474.337151.570448-2.88825 5.482072-3.339774 6.569541-.603938z"/><path d="m102.082645 477.296936c-2.546768-.777093-2.187288-4.47151-1.288775-6.978017 2.021506 1.523489 2.771478 4.515463 1.707594 6.812341z"/><path d="m443.862605 787.736087c.579682-.789419 1.159365-1.578837 1.739047-2.368255 2.094867 1.687908 2.157962 5.318465.123011 7.078145-1.049455-1.238748-1.635156-2.861438-1.618797-4.484884z"/><path d="m207.927503 302.455305c.451579 2.328202-2.622947 3.569397-4.973677 3.883266-3.769305.503268-7.538609 1.00654-11.307912 1.509811-1.547382-3.138562 2.383771-6.466798 5.882153-6.546116 3.498381-.079318 6.919298 1.518566 10.399436 1.153039z"/><path d="m81.090774 563.988411c-.780376 1.327801-2.75387-.130964-3.381224-1.537546-1.879327-4.213636-2.780162-8.860082-2.611655-13.470743.598002-1.183889 2.24412.326123 2.572247 1.611242 1.14021 4.465683 2.280421 8.931365 3.420633 13.397046z"/><path d="m566.344355 552.982281c-.173983 1.177846-1.64724 1.952216-2.716062 1.427611-.758994-2.312384-.762511-4.866076-.00989-7.180543 2.224947.617317 3.422875 3.566102 2.258798 5.560192z"/><path d="m157.023962 889.00729c.600366 1.56066.010993 3.494076-1.357871 4.454446-1.170767-2.122574-1.170004-4.845841.001949-6.967759.474607.83524.949213 1.67048 1.423819 2.50572z"/><path d="m96.378579 545.536944c-4.012236-2.701955-6.688176-7.296533-7.058573-12.11954 3.502293 3.204491 5.999458 7.492111 7.058574 12.119539z"/><path d="m49.395741 545.865101c-2.823821-1.756264-3.151986-6.402523-.603056-8.538263 1.663366 2.309191 1.993995 5.512757.83732 8.112995z"/><path d="m313.363372 700.890369c-.790011-2.248018-1.580022-4.496037-2.370033-6.744056.670248-1.759467 3.298801-.041945 3.982253 1.712435 1.592261 4.087278 2.2263 8.544358 1.836999 12.913519-2.474119-1.708172-3.910942-4.811006-3.6132-7.80274z"/><path d="m165.411845 362.127834c1.20356-1.876642 4.334518-2.031753 5.71767-.283259-.978159 1.940943-3.346901 3.067828-5.469935 2.602221-.484765-.717767-.656565-1.6393-.463004-2.48353z"/><path d="m140.562146 338.546368c.691702-1.674185 1.383404-3.348369 2.075106-5.022553 1.15957-.682715 2.392494 1.029166 2.203952 2.361515-.188541 1.33235-1.027539 2.583501-.843195 3.916438-2.186463.751268-4.58846 1.503384-6.755511.69782-2.167051-.805563-3.478831-3.960927-1.748499-5.494222.908858 1.95867 2.916377 3.361279 5.068147 3.541002z"/><path d="m110.182228 277.958668c.283305 1.011781-1.387629 1.819532-2.004573.969037.824137-1.492969 1.648271-2.985935 2.472405-4.478902 3.563872-.378793 7.223469 2.06729 8.236282 5.505148-.102011 1.841042-3.036874 1.618209-4.372107.346599-1.335234-1.27161-2.702457-3.144902-4.503294-2.748889z"/><path d="m411.571878 784.789194c-3.710237-2.624741-6.175336-6.936599-6.55486-11.465515 2.573199 1.188031 4.946508 2.807636 6.990806 4.770697.438036 2.218892.286146 4.551471-.435945 6.694817z"/><path d="m231.043852 781.874328c-.930348 1.148154-1.237426 2.772479-.79042 4.181021-.908638.179959-1.817272.359916-2.725907.539874-.299244-1.556031-.568687-3.286929.277851-4.626389.846538-1.339461 3.304519-1.560917 3.798672-.055395z"/><path d="m336.672099 675.351292 3.433266.376983c-1.056557 2.039907-3.119637 3.526629-5.389034 3.883513-1.249003-1.419951.021902-4.112387 1.911992-4.050597z"/><path d="m86.068971 596.39963c-.960678 6.489009-1.921356 12.978017-2.882034 19.467026-1.675704-6.17319-1.569712-12.819162.301993-18.935776.860016-.177083 1.720029-.354166 2.580041-.531249z"/><path d="m223.972629 245.288498c4.537322-3.251334 10.244956-4.831273 15.80833-4.375929-4.820888 2.688467-10.291194 4.202711-15.80833 4.37593z"/><path d="m383.301906 375.630754c-.506101-1.492843 1.60949-2.767345 3.069541-2.173231 1.46005.594115 2.234413 2.158814 2.881445 3.596197-1.941441.688113-4.287671.000126-5.550081-1.627458z"/><path d="m378.608966 820.612894c1.128801.316644 1.706918 1.846086 1.069806 2.830231-2.385025.199877-4.818897-1.262091-5.762716-3.461523 1.419936-.797221 3.370407-.485334 4.47094.714915z"/><path d="m49.552668 534.196535c-2.455445-.538326-3.982409-3.604595-2.932437-5.888576 2.149374.579117 3.623798 2.987649 3.161994 5.165246z"/><path d="m72.965118 438.058521c-1.113139-2.03992-1.222202-4.598175-.286717-6.725431 2.838067.395798 4.176083 3.842938 3.994996 6.702747-.181086 2.859808-1.284338 5.680406-.88961 8.518625-1.766393-2.480208-2.68906-5.550161-2.582673-8.59323z"/><path d="m414.38925 793.076004c1.025157-3.552787 2.050313-7.105573 3.07547-10.658359 1.011641-.147759 2.070786.052028 2.959081.558171-.446345 3.652718-.89269 7.305435-1.339035 10.958153-1.427091 1.077738-3.74176.654801-4.695513-.857967z"/><path d="m263.456743 316.158488c-4.240205-.201879-8.292623-2.756844-10.302827-6.495717 4.24882.162905 8.324074 2.732268 10.302828 6.495715z"/><path d="m45.559558 467.596704c1.128944.956601 1.584495 2.632882 1.095017 4.02931-2.091215-1.144826-3.485718-3.464311-3.516006-5.84819.879949.481396 1.759896.962792 2.639844 1.444188z"/><path d="m241.925466 899.551275c1.300592-.860712 3.302058-.327275 4.001761 1.066561.699702 1.393836-.068287 3.317534-1.53553 3.846269-.70591-1.520881-1.411821-3.041765-2.117731-4.56265z"/><path d="m377.171195 760.953744c.672896 1.033815 1.345792 2.067631 2.018687 3.101446-4.413673 1.17909-9.508593-1.400343-11.170991-5.655598 2.95674 1.077162 5.913479 2.154324 8.870218 3.231487z"/><path d="m377.412339 1160.272785c-1.133926-1.381116.490206-3.675718 2.274641-3.580522 1.784435.095197 3.131007 1.763691 3.605664 3.486472-2.041203.130718-4.082409.261436-6.123614.392154z"/><path d="m261.89375 255.763929c-.649716-1.416444 1.61063-2.378055 3.139567-2.07673 3.15567.621929 5.972728 2.774608 7.401732 5.656099-3.133845-.524913-6.211583-1.384148-9.164143-2.558421-.54484-.21669-1.132692-.487991-1.377157-1.020947z"/><path d="m473.885948 732.037199c-.480682-1.664316-2.971218-2.280217-4.172216-1.031776-1.200998 1.24844-.489116 3.713258 1.192564 4.129132 1.68168.415875 3.460335-1.433041 2.979652-3.097356z"/><path d="m442.898381 811.475752c.109468.942354.218935 1.884709.328403 2.827063-2.328106-.179335-4.417887-2.063426-4.836627-4.360577 1.393283-1.218553 3.996418-.279116 4.29043 1.548361z"/><path d="m280.997041 338.028595c-.87331-.372251-1.693773-.922519-2.239643-1.699222-.470842-.66995-.718539-1.493961-.695129-2.312482 4.375975-.039768 8.751948-.079536 13.127921-.119303-1.578507 3.756782-6.444553 5.728859-10.193148 4.131006z"/><path d="m8.839363 412.722511c.597806-.762647 1.195613-1.525295 1.793419-2.287943 1.175982 1.174145 2.35196 2.348289 3.527938 3.522433-.60564.788868-1.5185 1.335323-2.499896 1.496485-.83312-.831963-1.666239-1.663925-2.499359-2.495888z"/><path d="m253.895933 286.5998c-2.916782 2.419468-7.340245 2.831606-10.653791.992622-1.461946-.811365-2.752367-2.105006-3.120658-3.735944 4.700226-1.093359 9.851753-.06738 13.774449 2.743322z"/><path d="m474.182517 495.827504c1.973539.346564 3.791426 1.507002 4.936596 3.151249-.547688.790413-1.460524 1.316319-2.419028 1.39366-1.58532-.852629-2.638678-2.613825-2.639912-4.413884z"/><path d="m226.209803 261.40356c-6.774636 2.998274-14.826848 2.961242-21.57362-.099217 7.163967-.784501 14.417172-.751143 21.57362.099217z"/><path d="m253.141414 309.396018c-3.175745.242356-6.68426.390033-9.188567-1.577843 2.821737-2.084517 7.316002-1.324464 9.295376 1.572z"/><path d="m343.732679 257.609202c1.388049.561921.279705 2.701535-1.043731 3.402215-3.053682 1.616736-6.802524 1.860028-10.039555.651547 2.919913-2.201095 6.416271-3.630421 10.041918-4.105178.348648-.045654.715438-.080529 1.041368.051416z"/><path d="m457.095748 785.975569c.545685 1.549397-.786866 3.43884-2.429536 3.444874-.793456-2.51603-1.586911-5.032059-2.380367-7.548089-.281861-.89377-.561417-1.877097-.204987-2.743832.779741-1.89611 3.942395-1.339871 4.868541.489196.926146 1.829066.35196 4.025686-.238604 5.988966z"/><path d="m479.64493 731.448716c-1.522786.546932-3.184745-.840615-3.549819-2.416918-.365075-1.576304.173835-3.20574.705923-4.733776 2.214143 1.632678 3.477238 4.471358 3.207767 7.209145z"/><path d="m477.690507 719.901919c-.17654-2.012597 1.215001-4.053321 3.153048-4.624011.73604 2.486459-.248542 5.386213-2.346372 6.910461-.811885.804893-1.547927-1.072664-1.182271-2.155855z"/><path d="m91.959423 347.541729c.030812 2.406908-.979875 4.809411-2.722004 6.470478-1.095399 1.044431-2.648292 1.822383-4.10141 1.39908.433849-3.660987 3.260829-6.921389 6.823414-7.869559z"/><path d="m363.186937 262.180146c2.822848-.315498 5.76538 1.207582 7.137665 3.694516-3.670115 1.25094-7.850299.919719-11.277615-.89359.269785-1.770442 2.267927-3.062125 3.993046-2.581271z"/><path d="m279.060585 228.71362c5.663865-2.913099 12.579535-3.278196 18.518643-.977648-5.84261 2.340293-12.462097 2.689753-18.518644.97765z"/><path d="m498.268471 561.627271c-.509721-1.648682 2.02236-2.850001 3.488906-1.940488 1.466545.909513 1.945202 2.782466 2.300019 4.471275-2.094155.08626-4.199768-.980517-5.368902-2.720074z"/><path d="m325.655725 716.656251c2.706138-.136292 4.830135 3.329752 3.480137 5.679065-2.742165-.122748-4.798296-3.438441-3.689322-5.949363z"/><path d="m3.626823 425.494066c-1.208941-.899819-2.417882-1.799638-3.626823-2.699457 4.402648-1.106074 9.147817-.803857 13.37457.851816-3.052686 1.307633-6.390698 1.944289-9.710377 1.852053z"/><path d="m19.162515 424.939014c-1.357176-.365674-2.714351-.731348-4.071526-1.097021 3.812852-2.711681 9.239626-2.928132 13.256337-.528744-2.512569 2.078425-6.119107 2.748233-9.210401 1.71056z"/><path d="m127.834071 727.09725c-.531746 1.900041-2.44676 3.317107-4.419247 3.27014-1.972487-.046968-3.817885-1.553574-4.258595-3.476771 2.612188-.704299 5.410755-.704178 8.022885.000349z"/><path d="m428.429905 833.759718c-1.103573-1.379475.054449-3.598337 1.717586-4.193987 1.663137-.595651 3.49648-.092228 5.189321.412859-.27839 3.217623-4.307329 5.453254-7.184868 3.986835z"/><path d="m485.143851 553.006333c-1.234878-.766782-.934348-3.017846.458435-3.43382 2.13518 2.944931 3.327277 6.562901 3.360923 10.200275-2.328183-1.393596-3.813325-4.091608-3.745404-6.804157z"/><path d="m284.617273 261.642919c.546069-.319801.323574.895598-.289985 1.050554-2.375638.599962-5.078279-.474704-6.393246-2.542181.921195-.545623 1.842389-1.091246 2.763584-1.636869 1.35889.926347 2.717779 1.852694 4.076669 2.779041z"/><path d="m442.42353 443.064291c2.634224 1.618452 4.97089 3.719517 6.859162 6.167568-3.302335 2.006828-8.167912-2.051929-6.785889-5.660643z"/><path d="m481.020628 487.91056c-1.071441 3.002246-5.086562 4.508646-7.868388 2.952075 2.809988-.098729 5.326135-2.596732 5.4452-5.405931.854368.83333 1.708734 1.66666 2.5631 2.499991z"/><path d="m396.001896 834.870983c-.443017.856152-.886035 1.712303-1.329052 2.568454-.864166.210905-1.814023.041842-2.552345-.454288.010557-3.107655.426703-6.494119 2.62619-8.689544 1.460353 1.82202 1.947453 4.381011 1.25861 6.612127z"/><path d="m109.095661 671.080766c1.893524 1.020613 3.013757 3.308733 2.658588 5.430275-.233408-1.179252-1.43062-1.863833-2.482538-2.44572-1.051919-.581887-2.20304-1.41914-2.21747-2.621187-.014431-1.202047 2.102946-1.860554 2.313947-.677083z"/><path d="m101.022359 405.154729c2.515378 2.906032 1.1482 8.182879-2.46184 9.501877-.825815-3.145828.032516-6.682464 2.208484-9.099768z"/><path d="m171.518133 513.198051c1.9175-1.311906 4.988068-.168251 5.580167 2.078375-3.701282 1.96213-8.44567 1.784986-11.990332-.447691 1.791155-1.437083 4.314569-1.906671 6.502776-1.210116z"/><path d="m155.174211 800.953886c-.029105 1.519973-1.053229 2.973511-2.474758 3.512419-1.59064-1.112731-2.850345-2.692487-3.581078-4.490916l3.543036-1.517754c.833365.833334 1.66673 1.666668 2.500095 2.500003z"/><path d="m78.255929 335.376698c-1.225768-1.882806-3.487465-3.041452-5.731658-2.936276-.160216-.885549-.320432-1.771095-.480647-2.656641 2.109069-.360573 4.47092-.507207 6.193169.762458 1.722249 1.269666 1.957712 4.466991-.020832 5.281579z"/><path d="m340.24895 812.916298c.713233 1.458326 1.426465 2.916652 2.139698 4.374978-2.707542.297598-5.459352-1.799514-5.89046-4.489029.812611-1.10126 2.811135-.912547 3.40325.321356z"/><path d="m226.707847 496.540163c-3.645164 2.466898-8.619095 2.820595-12.576658.894329 3.002424-3.609208 9.093726-4.042362 12.576658-.89433z"/><path d="m253.208172 675.651124c.601646 1.484802-.181365 3.381381-1.655254 4.009289-.876566-3.342643.445647-7.153585 3.204111-9.235048.651131 1.666141.136126 3.718386-1.22454 4.879672z"/><path d="m265.504166 245.279608c-1.507973 1.253735-3.757411 1.534917-5.527598.690955 1.210846-3.535718 6.104951-5.174654 9.200895-3.081192.657305 1.696981-1.894672 3.486256-3.265987 2.28989z"/><path d="m480.441299 653.807437c1.063889 2.477685-.217494 5.699499-2.692457 6.769708-2.627102-2.529417-2.212727-7.468465.799109-9.52479.590261.929225 1.18052 1.85845 1.770779 2.787674z"/><path d="m58.772863 474.337228c-2.763411-2.904929-1.673867-8.447155 1.983552-10.089816.483252 3.208193.606508 6.470477.366713 9.705989-.645986.521748-1.571853.672953-2.350264.383825z"/><path d="m345.599709 566.44486c-.292653 1.316193-.585305 2.632385-.877958 3.948578-2.293468-3.290104-2.602682-7.857664-.773572-11.426858 1.430659 2.178909 2.165939 4.807035 2.073682 7.412016z"/><path d="m279.182035 313.77951c-3.150902-.027117-6.02284-2.822821-6.134697-5.971853 2.960382-1.334069 6.775476 1.961088 5.886253 5.08405z"/><path d="m371.453629 725.629665c-1.946469-2.399874-1.29719-6.442369 1.302896-8.112006.505589 3.217374 1.011179 6.434748 1.516769 9.652123-.906083-.485501-1.812165-.971002-2.718247-1.456503z"/><path d="m298.113887 262.967106c.235786.850138.080342 1.800528-.414005 2.531247-1.572088-1.780127-2.6453-4.536233-1.260073-6.46534s5.480671-.317115 4.382715 1.788782c-.901624.693782-1.803248 1.387565-2.704873 2.081348z"/><path d="m113.678806 288.477022c1.768125-.993843 3.53625-1.987686 5.304375-2.981529-.270462 3.125762-3.236936 5.772405-6.373188 5.686062-.599778-.935754.06258-2.393966 1.161887-2.557954z"/><path d="m394.161518 768.956659c.017388-1.100273.034776-2.200545.052164-3.300818 3.323095.597647 5.31552 4.939879 3.601421 7.848834-1.628291-1.124278-2.947081-2.692144-3.775823-4.488956z"/><path d="m265.436386 589.038281c.661399-2.588631 2.946726-4.685196 5.582645-5.121532.608899 3.306288-2.805593 6.666128-6.10163 6.003967z"/><path d="m145.043167 4.348431c-2.702278-.956857-5.404556-1.913714-8.106835-2.87057 2.362931-2.85426 7.947247-1.306561 8.503805 2.356841z"/><path d="m499.992755 573.526801c-1.370307-1.292866.920798-3.661827 2.690222-3.014999 1.769423.646827 2.548699 2.667864 3.120574 4.462914-.33505.85665-1.222533 1.466151-2.142363 1.471318-1.166543-1.162781-2.333087-2.325563-3.49963-3.488345z"/></g></svg>