<?xml version="1.0" encoding="utf-8"?><!DOCTYPE svg PUBLIC "-//W3C//DTD SVG 1.1//EN" "http://www.w3.org/Graphics/SVG/1.1/DTD/svg11.dtd"><svg version="1.1" id="Contours" xmlns="http://www.w3.org/2000/svg" xmlns:xlink="http://www.w3.org/1999/xlink" x="0px" y="0px" width="696.182251px" height="696.182251px" viewBox="-0.000002 0.000000 696.182251 1176.537964" enable-background="new 0 0 696.182251 696.182251" xml:space="preserve" stroke="black" fill="none" stroke-linecap='round' stroke-linejoin='round'><path class="selected"  fill="#000000" opacity="1.000000" stroke="none" 
 	d="
M341.241067 893.980877 C340.996861 892.865003 341.593989 891.072677 342.569430 891.667091 C343.956127 892.365461 342.336099 894.974731 341.095131 894.041654 z"/><path class="selected"  fill="#000000" opacity="1.000000" stroke="none" 
 	d="
M348.241067 889.980877 C347.996861 888.865003 348.593989 887.072677 349.569430 887.667091 C350.956127 888.365461 349.336099 890.974731 348.095131 890.041654 z"/><path class="selected"  fill="#000000" opacity="1.000000" stroke="none" 
 	d="
M379.917971 749.047258 C388.901237 751.197375 393.997674 762.961894 389.421861 770.985858 C393.441968 774.537169 397.462075 778.088480 401.482183 781.639791 C385.391585 790.971930 365.239219 780.210277 346.669893 781.294854 C337.358055 781.838730 328.350165 785.436882 319.023433 785.301964 C313.481303 785.221793 308.057001 783.823512 302.621304 782.739614 C279.968094 778.222483 256.246528 779.160343 234.020650 785.451822 C233.305311 779.372252 241.091885 776.299329 247.172594 775.593743 C269.933420 772.952671 293.125552 774.066306 315.528605 778.876050 C313.263139 774.188775 308.463273 770.825189 303.284236 770.295604 C310.483085 771.994647 318.241115 771.223711 324.964804 768.141149 C328.629859 766.460856 332.077104 764.091278 336.056081 763.440311 C340.035058 762.789344 344.874832 764.657431 345.709513 768.601962 C358.569305 771.257365 371.685556 772.669281 384.815871 772.811616 C385.942691 768.848743 387.079419 764.710025 386.315231 760.661556 C385.551044 756.613087 382.254344 752.722220 378.134471 752.749242 C375.904851 752.763866 374.447310 750.541354 372.805607 749.032635 C367.947785 744.568303 358.719224 747.051005 356.757013 753.350086 C355.110824 749.752239 352.164010 745.480801 348.333657 746.472179 C348.787430 748.853127 349.241203 751.234076 349.694977 753.615024 C345.590102 753.427293 341.641594 751.102981 339.485296 747.605036 C338.837837 750.356652 334.400166 748.872255 333.120896 746.351529 C330.853730 741.884211 331.794722 736.527639 332.870398 731.634798 C333.946074 726.741957 335.075692 721.473505 333.114773 716.863541 C331.153853 712.253577 324.622873 709.366522 320.973042 712.798097 C323.518426 704.033562 327.942865 695.819763 333.861046 688.872016 C337.381916 684.738632 342.073630 680.797735 347.496081 681.077770 C352.918532 681.357804 357.564043 688.376208 353.950619 692.428931 C347.693929 692.210167 341.398164 693.165120 335.487771 695.229409 C336.003721 698.778458 340.537864 700.151987 344.087506 699.640132 C347.637148 699.128276 351.174318 697.542608 354.678147 698.307548 C358.181977 699.072488 360.799236 704.070254 357.924128 706.214014 C356.886714 706.987539 355.511245 707.086751 354.219107 707.157088 C349.901488 707.392119 345.583868 707.627150 341.266249 707.862181 C344.453062 710.073893 347.639875 712.285605 350.826689 714.497317 C347.252044 715.384910 343.324944 714.747508 340.214540 712.774872 C342.295390 717.795946 348.943461 720.311712 353.827131 717.926155 C352.718455 714.674347 355.541437 710.750377 358.977002 710.767787 C354.365994 718.118274 362.494221 727.157652 370.595935 730.264626 C378.697650 733.371600 388.555347 734.962925 392.901191 742.473232 C394.350460 742.054435 395.799729 741.635637 397.248998 741.216840 C392.250109 736.132548 386.757990 731.533434 380.874850 727.505087 C390.857127 731.906500 400.839404 736.307913 410.821682 740.709326 C415.947779 750.039664 421.073877 759.370003 426.199974 768.700341 C422.106880 766.634398 416.802341 767.269335 413.312465 770.242937 C405.691218 764.580859 401.625157 754.496412 403.187503 745.131499 C399.088532 749.369339 396.397846 754.947026 395.632386 760.792958 C392.561446 757.634279 392.733024 751.920412 395.987961 748.951689 C390.914231 746.813425 384.965910 746.848800 379.917971 749.047258 M342.219067 771.312097 C336.471733 768.366953 328.693745 770.275325 324.962244 775.546153 C330.971536 776.363023 337.270290 774.817589 342.219067 771.312098 M334.652426 710.440066 C335.720847 710.970448 336.308610 709.147478 336.114727 707.970517 C334.006939 707.581223 333.859312 703.878472 335.929415 703.322608 C335.523814 700.773144 330.979078 701.509946 330.569461 704.058767 C330.159843 706.607587 332.520859 708.829279 334.971242 709.641616 M339.245129 743.307105 C342.104389 741.135801 340.053171 735.521329 336.467598 735.704612 C335.768806 738.045874 336.819899 740.793882 338.902763 742.071183 M413.886186 758.120811 C412.654997 756.162827 409.313601 756.135122 408.050114 758.072422 C410.612247 759.552841 413.174381 761.033258 415.736514 762.513674 C416.078591 760.869371 415.432898 759.058419 414.127686 758.001456 M359.618390 737.400438 C358.987210 738.354830 359.484416 739.844633 360.562275 740.228652 C361.890084 739.412742 361.182443 736.887488 359.624002 736.880376 z"/><path class="selected"  fill="#000000" opacity="1.000000" stroke="none" 
 	d="
M119.154797 642.955575 C119.511070 643.934381 117.812290 644.777116 117.248497 643.901257 C116.917390 642.985477 117.161761 641.888299 117.850225 641.199603 C118.357201 641.707249 118.864175 642.214894 119.371149 642.722540 z"/><path class="selected"  fill="#000000" opacity="1.000000" stroke="none" 
 	d="
M132.251848 453.810806 C135.231400 457.255123 133.017237 462.608970 130.291264 466.257275 C127.565292 469.905580 124.196173 474.013489 125.256280 478.442623 C127.002387 476.213085 128.748494 473.983546 130.494602 471.754008 C128.456043 483.529717 128.520263 495.666315 130.683325 507.419792 C122.941782 501.541248 120.711371 489.547326 125.822091 481.278752 C117.956660 490.230512 115.030176 503.269594 118.315647 514.724056 C121.838895 514.459351 123.662359 510.490062 124.754189 507.129816 C129.408348 539.812130 125.616223 573.661245 113.845393 604.503463 C117.152077 580.903466 120.448959 556.780598 115.889708 533.390275 C115.391324 530.833414 113.645057 527.578795 111.175863 528.408858 C111.460300 531.378670 111.744742 534.348477 112.029183 537.318283 C106.150819 534.628299 101.559852 529.266215 99.807389 523.043671 C107.578011 523.398313 115.348632 523.752955 123.119253 524.107597 C106.242326 511.601623 100.234454 486.466970 109.631688 467.680751 C110.869120 469.752477 112.106551 471.824204 113.343982 473.895931 C118.022238 454.879406 127.611523 437.092893 140.927456 422.733219 C144.118555 427.637810 139.891774 433.849156 136.037195 438.251468 C132.182616 442.653779 128.423685 449.385506 132.251849 453.810806 z"/><path class="selected"  fill="#000000" opacity="1.000000" stroke="none" 
 	d="
M392.631071 570.682899 C390.665260 567.335123 389.341723 563.119969 385.796325 561.538145 C385.347026 568.425661 388.628049 575.444520 394.200693 579.517028 C385.386130 577.921097 376.571568 576.325165 367.757005 574.729234 C366.342006 574.473040 364.867096 574.191052 363.728212 573.313098 C361.215256 571.375884 361.492885 567.258733 363.455178 564.765311 C365.417471 562.271888 368.509073 561.000719 371.459098 559.832344 C365.427319 559.219993 359.389276 564.185944 358.825838 570.222488 C358.262400 576.259032 363.277130 582.256625 369.318043 582.771114 C369.325016 586.319450 367.371598 589.809692 364.343478 591.659349 C347.274917 574.232804 341.779196 546.436218 350.931889 523.825414 C352.216131 520.652823 353.765011 517.565604 354.598534 514.245988 C356.421376 506.986278 360.327411 500.262144 365.730680 495.082297 C367.320393 496.933913 367.448823 499.885155 366.025970 501.867870 C367.740179 502.314067 369.454388 502.760264 371.168597 503.206460 C386.232244 497.254990 402.602525 494.636868 418.770970 495.593346 C417.084805 496.305696 418.704577 499.132091 420.531339 499.015748 C422.358101 498.899405 423.791035 497.434257 425.506842 496.796604 C429.206965 495.421508 433.034968 498.049631 436.578451 499.789035 C441.039923 501.979054 446.386069 502.826114 451.008022 500.998970 C454.136499 499.762224 456.851241 497.361535 460.188547 496.938104 C463.525853 496.514673 467.499757 499.901951 465.792719 502.800731 C462.690489 500.212433 457.414419 500.930981 455.117335 504.254613 C474.547496 502.468454 494.124245 517.088177 497.928759 536.225762 C498.461571 538.905929 498.717746 541.632701 498.940613 544.356212 C499.356369 549.436887 499.081243 555.653337 494.613708 558.108381 C488.840344 551.926331 488.348383 541.986738 482.174934 536.204177 C479.925018 534.096720 477.093900 532.728415 474.261700 531.510983 C459.055860 524.974696 442.378057 521.890166 425.840284 522.555529 C415.235984 518.998252 402.977109 520.814860 393.860161 527.294574 C395.915122 531.618868 394.097038 537.383956 389.933133 539.747062 C410.574908 541.815650 431.851204 544.073940 450.054578 554.023771 C454.702014 556.564026 459.167076 559.612553 464.275403 561.011318 C469.383730 562.410083 475.485264 561.781232 479.018683 557.835792 C480.323593 564.645252 479.820828 571.792683 477.575502 578.352412 C475.865438 578.597511 474.852107 576.307518 475.251183 574.626706 C475.650258 572.945894 476.811735 571.494212 477.044327 569.782403 C477.445030 566.833354 474.333921 563.987522 471.432163 564.648776 C468.530406 565.310030 466.959453 569.222813 468.598305 571.707087 C470.871191 575.152470 469.760332 580.367878 466.280718 582.588003 C462.801104 584.808128 457.603227 583.617933 455.436377 580.104895 C454.119638 584.012837 448.007421 585.062017 445.462835 581.816883 C434.280138 585.202001 423.097440 588.587118 411.914743 591.972235 C420.321673 593.661705 429.045950 595.490196 435.877814 600.672513 C414.466600 598.877967 393.409067 592.953538 374.203128 583.320656 C382.362113 580.625327 391.831814 582.319933 398.549732 587.677489 C397.269605 585.374858 395.989478 583.072228 394.709351 580.769598 C402.494096 584.682365 411.747877 585.578739 420.138871 583.232846 C424.581484 581.990813 428.964085 579.705349 431.473321 575.834536 C433.982556 571.963723 434.040224 566.280085 430.692293 563.106631 C429.527894 571.491859 422.658378 578.775514 414.355582 580.428226 C406.052787 582.080937 396.917724 577.983069 392.631072 570.682898 M381.880208 552.141660 C387.704063 551.612365 393.527918 551.083070 399.351773 550.553776 C401.610136 550.348527 403.874176 550.143066 406.141333 550.191358 C414.253669 550.364159 422.491987 553.753376 430.271380 551.446669 C418.007889 546.406850 404.332087 544.857697 391.252005 547.026672 C387.603946 547.631603 383.561771 548.848237 381.880207 552.141658 M461.204602 570.391513 C456.932147 564.806784 451.298933 560.270795 444.931380 557.287953 C447.703215 564.003389 454.052465 569.115946 461.204602 570.391514 M363.691387 509.717707 C363.690798 508.838949 363.670581 507.895940 363.158566 507.181756 C362.763965 506.631350 362.092757 506.290433 361.415543 506.296447 C357.666820 510.699532 358.818495 518.334222 363.699242 521.435571 C363.696624 517.529616 363.694005 513.623662 363.691387 509.717707 M381.764997 532.561969 C381.125392 534.572880 380.482360 536.733685 381.087438 538.755254 C381.692516 540.776823 384.119016 542.376855 385.954086 541.335041 C385.066991 538.137051 383.821346 535.038661 382.247985 532.116569 M494.697940 546.604698 C496.077498 546.201584 497.286573 545.244335 497.995397 543.994035 C497.498276 542.505725 495.368694 541.879177 494.144787 542.861139 C492.920880 543.843101 493.070931 546.057863 494.416103 546.865768 M372.420586 525.146480 C371.642156 525.746455 370.863727 526.346431 370.085297 526.946406 C372.357850 527.956135 375.204979 527.504674 377.053690 525.841450 C376.164210 524.444994 373.843093 524.316509 372.804917 525.606262 M367.070650 533.954755 C367.627824 533.086526 365.875673 532.166858 365.338015 533.047305 C364.453850 534.795366 365.667812 537.233551 367.595601 537.581554 C368.506973 536.556013 368.300542 534.750229 367.181234 533.956828 M373.174953 566.400306 C373.087024 568.271873 376.007661 569.343238 377.150818 567.858756 C377.320829 566.429098 375.130860 566.222626 373.751096 566.633816 M480.776876 517.437460 C481.079960 518.415764 482.571710 518.736827 483.250428 517.969833 C483.015935 516.961241 482.613813 515.781623 481.611509 515.521554 C480.609205 515.261485 479.796243 517.101096 480.818836 517.264045 M439.493438 555.393129 C438.696400 556.792516 441.458604 558.241387 442.156811 556.790161 C441.352606 556.294964 440.548399 555.799772 439.744192 555.304579 z"/><path class="selected"  fill="#000000" opacity="1.000000" stroke="none" 
 	d="
M24.058938 505.822938 C25.389105 504.978759 26.977937 507.551752 25.627388 508.362924 C24.628610 508.999022 23.997394 507.133343 24.259836 505.978656 z"/><path class="selected"  fill="#000000" opacity="1.000000" stroke="none" 
 	d="
M268.305466 224.985749 C268.697897 223.841251 270.265515 223.295533 271.283825 223.948925 C271.219071 225.345908 269.058704 226.029577 268.202044 224.924182 z"/><path class="selected"  fill="#000000" opacity="1.000000" stroke="none" 
 	d="
M110.554107 559.219200 C112.146439 561.850224 112.254286 565.086377 112.317468 568.161083 C112.500304 577.058722 112.676725 586.035987 110.983490 594.772941 C110.261827 598.496664 109.201022 602.174672 108.964221 605.960281 C108.705228 610.100659 109.440246 614.231604 110.172256 618.314981 C111.611129 626.341462 113.050002 634.367943 114.488875 642.394424 C115.972614 650.671180 124.862362 658.266239 121.231496 665.850629 C111.226679 652.285834 105.600879 635.542775 105.384780 618.688893 C105.134352 599.157565 111.657783 578.233742 102.622028 560.916392 C99.981321 555.855382 95.998884 551.035424 96.078859 545.327468 C97.126566 552.118341 106.996384 553.340742 110.554107 559.219200 z"/><path class="selected"  fill="#000000" opacity="1.000000" stroke="none" 
 	d="
M31.247584 449.953381 C30.865846 448.854269 31.559159 447.190866 32.675635 447.518359 C33.500888 448.556676 32.424114 450.395323 31.114802 450.183567 z"/><path class="selected"  fill="#000000" opacity="1.000000" stroke="none" 
 	d="
M239.465555 574.934201 C237.778976 576.009295 235.830081 576.598647 233.878796 577.037809 C227.978081 578.365842 221.477219 578.339801 216.239558 575.315066 C211.001898 572.290330 207.572150 565.681499 209.576114 559.974815 C205.883259 558.171471 201.910528 561.550921 198.901199 564.349701 C193.103522 569.741741 186.205859 573.945943 178.756492 576.628123 C177.972679 576.910339 177.106198 577.176279 176.324577 576.888048 C174.412733 576.183033 174.943331 573.293997 176.112713 571.625243 C178.968925 567.549316 183.599221 564.764474 188.538442 564.151920 C192.093747 563.710998 194.453207 560.416103 197.133821 558.039359 C201.559381 554.115463 207.516161 552.419404 213.347498 551.430440 C229.022037 548.772122 245.798294 550.591835 259.525435 558.612024 C264.340558 561.425296 268.807574 565.048169 271.765542 569.775783 C264.776369 572.613717 257.296983 574.239754 249.760405 574.559755 C248.163092 573.154419 249.400293 570.477737 251.013926 569.091170 C252.627558 567.704604 254.739537 566.384294 254.887428 564.261912 C255.124555 560.858926 250.502585 559.645268 247.091365 559.634360 C245.959052 565.391323 244.413122 571.780420 239.465554 574.934201 M242.215328 564.688394 C242.801763 563.704203 243.386821 562.432470 242.738367 561.487988 C242.297044 560.845193 241.453805 560.645630 240.688431 560.496790 C236.906758 564.385334 233.442867 568.582836 230.342623 573.033713 C235.391351 574.308756 239.549871 569.161729 242.215328 564.688394 z"/><path class="selected"  fill="#000000" opacity="1.000000" stroke="none" 
 	d="
M56.209094 530.959072 C55.987443 530.129463 56.119773 529.211414 56.566697 528.478175 C57.265441 528.959866 58.041515 529.584710 58.020969 530.433150 C58.000423 531.281590 56.493939 531.703895 56.372974 530.863871 z"/><path class="selected"  fill="#000000" opacity="1.000000" stroke="none" 
 	d="
M198.991070 318.654081 C198.463712 319.954970 196.874629 320.439907 195.474210 320.536048 C192.812120 320.718806 190.098779 320.067834 187.809387 318.697138 C185.162236 317.112247 183.104399 314.619273 180.317205 313.296079 C177.530012 311.972885 173.394830 312.500172 172.426478 315.429606 C179.409157 318.986308 186.391836 322.543009 193.374515 326.099709 C195.019411 326.937554 196.765186 327.797778 198.607869 327.687381 C200.450551 327.576984 202.346307 326.091591 202.195317 324.251790 C201.901564 320.672448 207.008095 319.695315 210.577785 320.089381 C213.311305 320.391140 216.650611 321.192388 217.312691 323.861627 C214.026747 326.465766 208.579408 325.604160 206.257553 322.113034 C203.106001 325.176754 207.280868 332.212493 203.405213 334.285646 C196.276705 338.098804 187.821904 338.829910 179.800390 337.824369 C171.778875 336.818827 164.064554 334.183476 156.416478 331.563792 C153.856241 330.686838 151.118683 329.679132 149.591884 327.444686 C148.706427 326.148834 148.335444 324.580006 147.981495 323.050959 C146.912816 318.434294 145.844136 313.817629 144.775457 309.200964 C144.499159 308.007365 144.268581 306.608196 145.067251 305.679140 C145.529562 305.141357 146.237946 304.897007 146.911569 304.675255 C155.778522 301.756308 165.377037 298.823866 174.263766 301.682041 C174.686152 301.817889 175.128135 301.982791 175.401529 302.332247 C176.247751 303.413898 174.841491 304.800167 173.648156 305.479883 C166.932342 309.305162 161.032867 314.387436 155.180739 319.435951 C153.362635 321.004393 151.486009 323.875626 153.293652 325.456112 C160.180874 322.597756 165.690470 317.280619 171.276613 312.341085 C174.298696 309.668815 177.696536 306.947569 181.723588 306.709110 C185.750641 306.470651 190.154349 310.081751 189.117956 313.980457 C191.066063 314.799987 193.299051 314.258850 195.395940 314.523058 C197.492829 314.787266 199.785074 316.695432 198.991070 318.654081 M179.947071 331.871375 C180.436266 330.195437 180.464189 327.714761 178.741663 327.430188 C178.258611 328.434244 177.762643 329.519164 177.940888 330.619025 C178.119132 331.718886 179.303844 332.714428 180.322532 332.263052 M161.665055 308.369264 C162.757244 308.767954 164.396590 308.079731 164.128104 306.948472 C162.567117 306.220500 160.682262 306.226014 159.125563 306.963104 C159.036300 308.110295 160.616005 308.971454 161.531857 308.274869 M193.005338 330.946736 C193.095899 332.315795 195.154785 333.018206 196.063213 331.989963 C195.653014 330.878801 194.165592 330.325986 193.129254 330.899531 z"/><path class="selected"  fill="#000000" opacity="1.000000" stroke="none" 
 	d="
M419.209321 1158.959732 C418.986906 1158.129792 419.119435 1157.210922 419.567311 1156.477658 C420.266196 1156.959892 421.042439 1157.585578 421.020995 1158.434420 C420.999551 1159.283262 419.490897 1159.702952 419.372298 1158.862163 z"/><path class="selected"  fill="#000000" opacity="1.000000" stroke="none" 
 	d="
M114.660555 327.212443 C113.327992 330.736929 111.974037 334.393918 112.205675 338.154779 C112.437312 341.915639 114.709425 345.827267 118.369130 346.724088 C114.729561 348.624308 110.966689 344.195015 109.826267 340.250812 C108.623871 336.092267 108.274799 331.742178 107.931902 327.426894 C107.653060 323.917729 107.379427 320.337117 108.216546 316.917873 C109.511784 319.384351 111.102549 321.695468 112.943955 323.786013 C119.215283 313.535164 126.396832 303.841405 134.376447 294.856128 C137.264561 299.666649 129.257436 305.585296 131.526402 310.716973 C134.631757 309.801498 137.490359 308.062749 139.731391 305.726277 C141.025802 311.022099 142.320214 316.317921 143.614626 321.613743 C143.812400 322.422894 144.007205 323.292637 143.708659 324.070267 C142.906528 326.159595 139.425702 325.899831 138.424137 327.901224 C137.883153 328.982254 138.195641 330.532436 137.209485 331.231568 C136.403110 331.803244 135.295244 331.375631 134.409741 330.936385 C131.005199 329.247592 127.600657 327.558800 124.196115 325.870007 C125.183313 323.955408 127.792567 323.382578 129.848304 324.026159 C131.904041 324.669739 133.530795 326.216886 135.078096 327.715589 C135.842001 323.165954 136.605906 318.616320 137.369811 314.066685 C133.429896 314.342992 129.489981 314.619300 125.550066 314.895607 C123.594580 315.032745 120.912137 316.753764 122.250192 318.186364 C124.008015 317.900031 125.871208 319.214758 126.190640 320.966865 C121.900371 322.024226 117.889949 324.196578 114.660555 327.212443 z"/><path class="selected"  fill="#000000" opacity="1.000000" stroke="none" 
 	d="
M171.934073 561.798070 C179.173270 549.000495 194.511612 543.300913 208.937581 540.459202 C223.792653 537.532964 239.740906 536.694517 253.570183 542.857889 C260.622839 546.001086 266.778524 550.813952 272.854743 555.578319 C274.407126 556.795543 276.102025 558.922128 274.875010 560.466783 C273.612149 562.056566 271.101544 560.765565 269.534975 559.474020 C259.423102 551.137368 247.331091 545.038599 234.422679 542.775282 C213.551714 539.115838 191.090507 546.147185 176.031673 561.054239 C174.867113 562.207062 172.639695 563.277024 171.934073 561.798071 z"/><path class="selected"  fill="#000000" opacity="1.000000" stroke="none" 
 	d="
M237.286371 1176.482140 C237.699437 1174.828999 240.421555 1174.497491 241.219313 1176.003173 C239.949373 1176.530170 238.522577 1176.672124 237.173698 1176.405681 z"/><path class="selected"  fill="#000000" opacity="1.000000" stroke="none" 
 	d="
M441.683713 771.630495 C439.933491 771.618080 439.952966 768.970124 440.593322 767.341206 C442.316075 767.202967 442.389841 769.872704 441.755695 771.480448 z"/><path class="selected"  fill="#000000" opacity="1.000000" stroke="none" 
 	d="
M133.737982 418.201852 C133.053025 417.024099 132.803599 415.599454 133.047677 414.259045 C130.055874 414.971228 127.704845 417.261316 124.878404 418.473470 C122.051963 419.685624 117.890151 419.158939 117.080468 416.192038 C118.709369 414.743721 120.338269 413.295405 121.967169 411.847088 C122.247793 410.664991 120.216807 410.896096 119.156903 411.489987 C116.178638 413.158791 112.326549 412.460914 109.442518 410.634078 C106.558487 408.807242 104.434842 406.024953 102.375036 403.302424 C104.277846 397.931498 108.938890 393.622441 114.442404 392.146344 C119.945918 390.670247 126.137710 392.068466 130.472854 395.766310 C125.735966 401.648037 115.411743 397.445728 109.231309 401.785664 C108.347594 402.406213 107.533485 403.285476 107.445748 404.361735 C107.358010 405.437994 108.342208 406.601723 109.389701 406.339444 C115.991540 404.686420 122.953222 404.486869 129.638906 405.759018 C135.287269 406.833787 141.105272 407.012015 146.808831 406.285002 C147.348664 404.012907 145.478098 401.485809 143.147406 401.338486 C144.146177 399.128270 146.857868 397.853058 149.197194 398.493486 C149.230906 403.505639 149.007527 408.768857 146.458029 413.084280 C143.908531 417.399703 138.287591 420.305153 133.737982 418.201852 M125.883258 411.757432 C126.671171 411.176671 127.459084 410.595911 128.246996 410.015150 C127.360672 409.585161 126.307847 409.153645 125.433069 409.606661 C124.558291 410.059677 124.708477 411.797287 125.685934 411.674656 z"/><path class="selected"  fill="#000000" opacity="1.000000" stroke="none" 
 	d="
M10.059653 442.826303 C9.009359 444.068955 6.629571 443.616180 6.108991 442.074655 C7.292751 440.882982 9.634987 441.298436 10.336681 442.824544 z"/><path class="selected"  fill="#000000" opacity="1.000000" stroke="none" 
 	d="
M322.717468 830.743116 C314.673519 830.290705 306.629570 829.838293 298.585621 829.385882 C295.428277 829.208306 292.081280 828.966800 289.509385 827.126770 C293.453389 827.111968 297.387503 825.994843 300.750712 823.934696 C304.235675 825.427584 307.720637 826.920472 311.205599 828.413360 C311.921894 822.413777 309.600906 816.129142 305.156989 812.035284 C303.857534 810.838191 302.328214 808.773932 303.680037 807.636307 C304.163837 807.229167 304.846197 807.183479 305.477941 807.156576 C310.808511 806.929577 316.139080 806.702576 321.469650 806.475576 C323.920313 806.371216 326.461494 806.281821 328.729316 807.216501 C330.997138 808.151180 332.913427 810.417464 332.618274 812.852526 C332.010722 817.864938 334.842201 823.113305 339.364917 825.357951 C342.134925 826.732720 346.205941 828.469624 345.187099 831.389366 C337.694424 831.585058 330.200871 831.164000 322.717468 830.743116 M327.390722 826.981992 C327.629895 822.897314 327.799681 818.808573 327.899982 814.718128 C327.921574 813.837682 327.917584 812.883484 327.389423 812.178717 C326.454745 810.931504 324.059975 811.536281 323.829549 813.077729 C321.110981 812.866173 318.392412 812.654613 315.673843 812.443053 C313.160617 812.247473 312.599192 816.484999 314.655717 817.942827 C316.712242 819.400654 319.521479 818.834946 321.963393 818.209155 C321.876521 821.845895 324.097690 825.436234 327.390722 826.981992 M319.852637 825.485821 C319.988624 824.636299 320.124611 823.786777 320.260598 822.937254 C318.924028 822.142987 316.939981 823.572166 317.269979 825.091501 C318.059208 825.261736 318.848439 825.431971 319.637670 825.602206 M332.638227 826.378037 C333.754101 826.622243 335.546427 826.025115 334.952013 825.049675 C334.253643 823.662977 331.644373 825.283005 332.577451 826.523973 z"/><path class="selected"  fill="#000000" opacity="1.000000" stroke="none" 
 	d="
M65.250545 447.922916 C64.612415 447.096402 66.348141 446.282221 67.129812 446.974556 C67.370986 448.150694 67.245125 449.399395 66.774094 450.503745 C65.916241 449.932506 65.322119 448.980872 65.185563 447.959315 z"/><path class="selected"  fill="#000000" opacity="1.000000" stroke="none" 
 	d="
M258.493835 504.021827 C255.695022 505.888438 251.762627 505.867931 248.983434 503.972232 C248.089611 504.776901 248.148472 506.398175 249.098293 507.135909 C248.544786 508.239830 246.931902 508.408690 245.855041 507.804228 C244.778179 507.199766 244.114473 506.077344 243.500730 505.005745 C242.087199 506.659121 242.296016 509.445518 243.940188 510.869745 C245.584360 512.293972 248.372053 512.103235 249.806916 510.468337 C251.216882 508.861807 254.044039 509.428908 255.420695 511.064073 C256.797351 512.699238 257.091101 514.965874 257.231597 517.098761 C243.347770 516.320475 229.481858 515.222619 215.648544 513.806355 C213.616741 513.598338 211.515402 513.361172 209.753493 512.328132 C208.308363 511.480824 207.197930 510.155958 205.788613 509.250334 C204.379296 508.344709 202.386418 507.946412 201.105454 509.025976 C199.824489 510.105540 200.542487 512.836210 202.200736 512.598427 C199.541469 514.058551 196.103701 513.979598 193.514268 512.398930 C196.131898 508.719376 198.995236 504.844914 203.220584 503.251952 C210.206613 500.618207 218.576214 505.092630 225.309712 501.867538 C232.503703 498.421883 240.877342 497.501446 248.648019 499.302170 C252.231572 500.132598 255.753850 501.567455 258.493835 504.021827 z"/><path class="selected"  fill="#000000" opacity="1.000000" stroke="none" 
 	d="
M449.344934 545.983220 C449.132935 545.048553 450.874829 544.853793 451.272679 545.725722 C451.670529 546.597651 451.153758 547.592890 450.652169 548.409562 C449.852911 547.838915 449.307586 546.925257 449.184702 545.950911 z"/><path class="selected"  fill="#000000" opacity="1.000000" stroke="none" 
 	d="
M118.974821 438.628288 C115.478520 437.567859 111.424791 438.642875 108.913424 441.296489 C106.402056 443.950102 105.551784 448.056854 106.803039 451.489490 C109.810304 450.203238 113.370270 452.679740 114.392528 455.786682 C115.414785 458.893623 114.604626 462.282393 113.636828 465.406727 C109.387841 464.019368 105.854170 460.597684 104.330743 456.395562 C102.292735 450.774053 103.812002 444.557947 105.344290 438.778074 C105.747477 437.257233 106.532732 435.415029 108.105617 435.375670 C110.857324 435.306813 112.367476 431.771410 111.561663 429.139433 C110.755850 426.507457 108.526380 424.614848 106.545899 422.703218 C104.468175 420.697727 102.695346 416.925938 105.111613 415.344615 C106.668635 414.325624 108.936085 415.419037 109.678674 417.125267 C110.421263 418.831497 110.005346 420.825243 109.274887 422.536701 C113.558691 422.862459 116.554477 428.244100 114.574398 432.056760 C113.566370 433.997726 116.347298 435.749625 118.531698 435.858552 C120.716099 435.967479 123.531969 436.005539 124.269829 438.064430 C123.653784 439.956519 120.879016 439.205832 118.974820 438.628292 z"/><path class="selected"  fill="#000000" opacity="1.000000" stroke="none" 
 	d="
M30.545633 516.520843 C28.959309 517.429276 27.247370 514.370393 28.851277 513.493377 C29.337165 514.285672 29.823055 515.077970 30.308945 515.870269 z"/><path class="selected"  fill="#000000" opacity="1.000000" stroke="none" 
 	d="
M170.043314 275.805388 C159.709780 282.604424 150.698800 291.405508 143.658147 301.575956 C142.849016 302.744772 140.896819 302.852527 139.963966 301.779863 C144.762964 295.988111 146.761315 288.394995 150.761660 282.025383 C154.762005 275.655771 162.470893 270.264836 169.478749 272.996992 C170.305807 273.631136 170.561063 274.900899 170.043312 275.805387 z"/><path class="selected"  fill="#000000" opacity="1.000000" stroke="none" 
 	d="
M100.704301 497.449135 C99.981922 496.691349 99.917373 495.396265 100.560820 494.570404 C101.351018 495.081622 102.223488 495.724036 102.298449 496.662194 C102.373410 497.600352 100.916262 498.378564 100.489339 497.539818 z"/><path class="selected"  fill="#000000" opacity="1.000000" stroke="none" 
 	d="
M98.316224 610.278943 C94.952711 616.199991 90.443765 621.375732 85.966779 626.506875 C84.410983 628.289997 81.808933 629.084210 79.522573 628.473815 C78.705750 625.850991 81.627758 623.757436 83.880871 622.185852 C94.131447 615.035918 97.058066 601.406662 99.183974 589.090966 C104.026903 594.862902 102.037753 603.727650 98.316224 610.278943 z"/><path class="selected"  fill="#000000" opacity="1.000000" stroke="none" 
 	d="
M267.199785 332.213117 C265.776042 332.384308 264.285109 331.864771 263.276079 330.845844 C264.531483 330.001433 266.500653 330.612737 267.057167 332.019631 z"/><path class="selected"  fill="#000000" opacity="1.000000" stroke="none" 
 	d="
M471.371711 741.323708 C475.646086 740.840362 480.004960 744.122192 480.722014 748.363623 C483.747228 747.226360 484.949885 742.866861 482.935669 740.339368 C484.503126 738.279766 487.973281 740.890155 487.835996 743.474731 C487.698711 746.059307 485.830623 748.209506 485.103549 750.693504 C484.340162 753.301565 484.877786 756.091761 485.419290 758.754751 C486.316104 763.165071 487.212918 767.575391 488.109732 771.985711 C488.451207 773.665003 486.204918 774.849449 484.560392 774.367616 C482.915867 773.885783 481.738611 772.487083 480.373195 771.451580 C477.562605 769.320080 473.924664 768.721704 470.485317 767.938382 C467.045970 767.155060 463.417181 765.959211 461.323813 763.120108 C459.230445 760.281004 459.727447 755.385568 463.030984 754.148902 C464.784576 757.177025 466.538166 760.205148 468.291757 763.233271 C469.700928 763.723752 470.932620 762.010704 471.050997 760.523317 C471.169374 759.035929 470.783333 757.429669 471.492005 756.116612 C472.354708 754.518153 474.393721 754.098434 476.097329 753.468316 C477.800937 752.838199 479.608893 751.216606 478.970213 749.516189 C474.515649 751.193784 469.364212 745.639656 471.371711 741.323708 M477.666051 756.461958 C476.872838 757.059291 476.325540 757.973684 476.173870 758.955004 C476.756503 759.751103 477.672696 760.294703 478.650641 760.424534 C479.784396 759.708603 480.408381 758.266051 480.153757 756.949570 C479.430520 756.472083 478.510855 756.302677 477.664951 756.491121 z"/><path class="selected"  fill="#000000" opacity="1.000000" stroke="none" 
 	d="
M692.669848 866.367213 C693.840651 866.472041 695.011455 866.576869 696.182259 866.681697 C695.577616 867.539645 694.839139 868.478210 693.793392 868.568111 C692.747645 868.658012 691.791789 867.151234 692.649702 866.546542 z"/><path class="selected"  fill="#000000" opacity="1.000000" stroke="none" 
 	d="
M214.846474 889.934116 C212.498029 884.530610 203.727821 884.668000 201.215489 879.338716 C207.953238 880.894488 214.210771 884.471104 218.970763 889.487096 C220.046174 886.564716 223.919245 885.076033 226.675159 886.525774 C229.431073 887.975516 230.398434 892.010497 228.599455 894.552245 C228.183936 892.742687 227.407851 890.828411 225.766029 889.961477 C224.124207 889.094542 221.557963 890.078523 221.587293 891.934944 C222.082528 894.883094 225.190906 897.127261 228.145110 896.669514 C228.024953 899.439159 227.740987 902.201688 227.295189 904.937859 C221.843289 901.243173 217.471588 895.974207 214.846472 889.934118 z"/><path class="selected"  fill="#000000" opacity="1.000000" stroke="none" 
 	d="
M139.863358 822.439329 C139.994920 823.316182 140.126481 824.193036 140.258043 825.069890 C139.386194 825.241948 138.514349 825.414005 137.642503 825.586062 C136.820058 824.281613 138.111714 822.269648 139.640133 822.474425 z"/><path class="selected"  fill="#000000" opacity="1.000000" stroke="none" 
 	d="
M424.727012 410.386291 C423.661120 409.362878 423.148819 407.794238 423.405207 406.338984 C426.864278 403.667728 432.201905 405.407539 435.023627 408.745002 C437.845350 412.082466 438.892888 416.513917 440.229552 420.674939 C441.873791 425.793439 444.076459 430.732342 446.785883 435.375788 C441.698486 434.024473 437.898221 428.871760 438.109930 423.612212 C438.154958 422.493548 436.744211 422.036735 435.781224 421.465689 C433.419319 420.065101 433.186372 416.834650 432.704665 414.131282 C432.222957 411.427914 430.285403 408.249064 427.605336 408.846963 C427.285575 410.022450 425.882218 410.772966 424.727012 410.386291 z"/><path class="selected"  fill="#000000" opacity="1.000000" stroke="none" 
 	d="
M328.197302 355.062584 C326.830407 355.755819 324.940372 354.411038 325.147232 352.892425 C326.461250 352.144179 328.378132 353.475574 328.135761 354.968144 z"/><path class="selected"  fill="#000000" opacity="1.000000" stroke="none" 
 	d="
M67.664198 520.868886 C65.769260 515.557316 67.136794 509.225045 71.054818 505.168859 C68.609029 512.069276 75.175457 518.748474 76.461774 525.955624 C77.504631 531.798665 75.289226 538.831494 79.422665 543.090997 C72.228424 543.068397 65.950522 535.793433 66.981003 528.673339 C67.360070 526.054181 68.553440 523.361461 67.664199 520.868885 z"/><path class="selected"  fill="#000000" opacity="1.000000" stroke="none" 
 	d="
M87.467763 474.879802 C86.150485 475.429496 84.449299 474.702691 83.935875 473.370858 C82.644775 474.005771 81.884571 475.567764 82.181508 476.975555 C81.135518 477.580748 79.804703 477.665828 78.690162 477.198762 C79.744195 473.067592 80.798228 468.936421 81.852261 464.805251 C83.017259 460.239165 84.182257 455.673079 85.347255 451.106993 C85.991762 448.580912 86.636270 446.054832 87.280778 443.528752 C87.689401 441.927199 88.096526 440.224373 87.598767 438.648244 C87.055884 436.929237 85.542417 435.701325 84.717904 434.098240 C83.893391 432.495154 84.281536 429.927810 86.069267 429.696024 C89.778881 433.359440 91.539064 438.505320 93.179809 443.454038 C94.046942 446.069434 94.914075 448.684829 95.781209 451.300225 C96.752040 454.228391 97.735728 457.258605 97.461450 460.331298 C97.043431 465.014310 93.749722 469.618408 95.310942 474.053262 C93.377847 474.601326 91.506850 472.617850 91.276763 470.621781 C91.046676 468.625713 91.890843 466.687060 92.501299 464.772752 C94.388582 458.854483 94.069698 452.260257 91.620167 446.551708 C88.277868 451.751721 87.554054 458.546747 89.725960 464.334141 C91.077214 467.934776 84.763206 472.145605 87.467763 474.879802 z"/><path class="selected"  fill="#000000" opacity="1.000000" stroke="none" 
 	d="
M506.092770 618.968310 C506.197080 617.454875 508.017891 615.958730 509.153219 616.964909 C509.353646 618.461869 507.442588 619.759351 506.125205 619.020734 z"/><path class="selected"  fill="#000000" opacity="1.000000" stroke="none" 
 	d="
M386.342168 795.025540 C386.565223 793.914184 388.079401 793.309774 389.006440 793.962051 C389.752901 795.625824 386.343767 796.804159 385.903507 795.034549 z"/><path class="selected"  fill="#000000" opacity="1.000000" stroke="none" 
 	d="
M83.842803 520.776921 C79.061281 513.352777 75.822602 504.939844 74.391533 496.225895 C74.040640 494.089261 75.603110 491.817799 77.723929 491.381382 C78.637199 502.530281 82.774127 513.396459 89.506534 522.329920 C89.106457 523.493154 87.519517 523.858943 86.391632 523.367975 C85.263746 522.877007 84.508868 521.811104 83.842802 520.776922 z"/><path class="selected"  fill="#000000" opacity="1.000000" stroke="none" 
 	d="
M484.621980 504.598280 C485.761799 504.974149 486.320502 506.523729 485.682797 507.540487 C484.787280 507.339001 483.782392 507.056965 483.357721 506.243204 C482.933051 505.429442 483.820637 504.149513 484.601382 504.632203 z"/><path class="selected"  fill="#000000" opacity="1.000000" stroke="none" 
 	d="
M95.098086 585.989816 C94.114803 586.687399 92.683329 586.673814 91.713462 585.957696 C91.415432 573.564050 88.422353 561.242119 83.001643 550.092806 C84.238672 548.391076 86.789284 550.412844 87.726216 552.296533 C92.898288 562.694983 95.455247 574.381607 95.098086 585.989816 z"/><path class="selected"  fill="#000000" opacity="1.000000" stroke="none" 
 	d="
M462.786396 553.689493 C461.951503 553.917393 461.313087 552.729856 461.669554 551.941240 C462.026021 551.152623 462.896568 550.755538 463.696251 550.424641 C464.347935 551.424094 463.758762 552.983362 462.608991 553.302129 z"/><path class="selected"  fill="#000000" opacity="1.000000" stroke="none" 
 	d="
M362.271779 647.817879 C359.088300 647.247492 356.718336 643.817449 357.310909 640.638024 C364.118161 647.772809 371.326358 655.791774 371.876524 665.637644 C371.978244 667.458051 370.672397 670.009227 369.095786 669.093516 C368.664059 668.842767 368.407911 668.380315 368.172571 667.939999 C365.143370 662.272417 362.114168 656.604837 359.084965 650.937257 C360.664413 650.725691 362.026485 649.392442 362.271779 647.817879 z"/><path class="selected"  fill="#000000" opacity="1.000000" stroke="none" 
 	d="
M484.718669 566.324660 C483.595766 565.971066 483.012548 564.475774 483.599505 563.455273 C484.428770 563.337763 485.376944 563.693540 485.708698 564.462586 C486.040452 565.231633 485.435393 566.308853 484.601499 566.230663 z"/><path class="selected"  fill="#000000" opacity="1.000000" stroke="none" 
 	d="
M199.351492 291.543403 C194.718245 291.772979 190.084997 292.002555 185.451749 292.232130 C182.250495 292.390751 178.906758 292.590212 176.144211 294.215489 C169.709971 298.000917 159.643148 291.640538 154.717359 297.249951 C153.995466 295.397825 155.301070 293.258699 157.062132 292.336658 C158.823195 291.414617 160.897257 291.387195 162.884381 291.333912 C171.155146 291.112144 179.404052 290.082592 187.475598 288.264667 C189.714501 287.760408 192.006644 287.191894 194.278415 287.517498 C196.550186 287.843102 198.831069 289.308202 199.351493 291.543402 z"/><path class="selected"  fill="#000000" opacity="1.000000" stroke="none" 
 	d="
M181.019551 350.026334 C177.862244 352.839008 174.430330 355.781329 170.235259 356.311518 C167.279334 356.685100 164.306108 355.793021 161.567347 354.619887 C156.467292 352.435304 151.806985 349.229812 147.942766 345.248509 C149.660296 343.706944 152.411277 344.391702 154.383879 345.589691 C156.356481 346.787679 158.188385 348.452165 160.479012 348.733881 C163.144851 349.061745 165.605883 347.431139 168.172974 346.641052 C172.631818 345.268729 177.816045 346.634857 181.019552 350.026332 M169.699174 350.433680 C168.611053 349.000119 165.973976 349.315380 165.254453 350.965043 C166.028860 352.157262 167.251927 353.050313 168.623338 353.424913 C169.721796 352.958138 170.266755 351.499666 169.743530 350.426947 z"/><path class="selected"  fill="#000000" opacity="1.000000" stroke="none" 
 	d="
M318.395098 221.851385 C319.243698 222.049681 320.092299 222.247978 320.940899 222.446275 C321.833324 222.654814 322.795493 222.906058 323.364186 223.624736 C323.932878 224.343415 323.759307 225.670591 322.865887 225.874824 C307.272042 221.885284 290.986722 220.613762 274.962635 222.134644 C288.085298 215.273426 303.975425 218.481865 318.395098 221.851384 z"/><path class="selected"  fill="#000000" opacity="1.000000" stroke="none" 
 	d="
M30.877157 453.115273 C31.814410 454.546087 31.297085 456.719301 29.815688 457.574365 C29.303549 456.568031 28.776494 455.480148 28.931815 454.361723 C29.087137 453.243297 30.263779 452.207177 31.306666 452.640058 z"/><path class="selected"  fill="#000000" opacity="1.000000" stroke="none" 
 	d="
M289.763979 265.246706 C291.072157 265.542027 289.950459 268.021614 288.801423 267.330050 C287.652387 266.638486 288.871597 264.481845 290.114634 264.985236 z"/><path class="selected"  fill="#000000" opacity="1.000000" stroke="none" 
 	d="
M371.374532 676.866573 C370.886979 675.192476 370.860192 672.715250 372.580564 672.431298 C373.063548 673.434421 373.559461 674.518214 373.382208 675.617353 C373.204956 676.716491 372.023033 677.712566 371.004161 677.263761 z"/><path class="selected"  fill="#000000" opacity="1.000000" stroke="none" 
 	d="
M259.332097 235.728229 C261.720313 234.299430 264.174686 232.845056 266.911919 232.342464 C269.649152 231.839871 272.773159 232.482052 274.522478 234.646521 C265.935746 238.263843 257.349014 241.881160 248.762282 245.498476 C247.842962 245.697198 247.146029 244.472630 247.448864 243.582164 C247.751700 242.691699 248.617866 242.138235 249.424998 241.655351 C252.727365 239.679645 256.029731 237.703937 259.332097 235.728230 z"/><path class="selected"  fill="#000000" opacity="1.000000" stroke="none" 
 	d="
M235.170764 246.981669 C236.709226 245.916317 239.083720 246.364121 240.128479 247.916642 C238.544961 249.061494 236.077826 248.706815 234.880942 247.162248 z"/><path class="selected"  fill="#000000" opacity="1.000000" stroke="none" 
 	d="
M288.210067 246.674540 C287.436266 243.894792 285.451329 241.475232 282.876433 240.173051 C280.124982 238.781579 275.501969 239.951956 275.938688 243.004160 C273.939940 241.027979 275.616864 237.288730 278.254502 236.317570 C280.892140 235.346410 283.812168 236.221827 286.482951 237.097730 C289.706084 238.154785 293.040241 239.276063 295.515739 241.595084 C297.991236 243.914106 299.351007 247.794221 297.755876 250.787799 C296.725581 248.973357 295.622694 247.082055 293.843198 245.992514 C292.063702 244.902973 289.397295 244.958674 288.210067 246.674540 z"/><path class="selected"  fill="#000000" opacity="1.000000" stroke="none" 
 	d="
M390.276019 1176.421400 C389.803549 1175.246370 390.698259 1173.736645 391.957724 1173.603713 C393.217188 1173.470782 394.411365 1174.782907 394.144413 1176.020913 C392.896087 1176.534921 391.494857 1176.670628 390.171094 1176.405727 z"/><path class="selected"  fill="#000000" opacity="1.000000" stroke="none" 
 	d="
M113.950713 543.658045 C114.481585 545.420739 113.574087 547.262687 112.694136 548.879660 C111.946727 550.253077 110.652761 551.857500 109.179108 551.334777 C108.639720 551.143451 108.240409 550.692729 107.870470 550.256048 C103.466656 545.057725 99.671928 539.343848 96.588641 533.268531 C97.355390 531.953110 99.489772 532.460084 100.454584 533.637953 C101.419396 534.815821 101.791071 536.401200 102.794351 537.546479 C105.699475 540.862791 112.679316 539.436525 113.950713 543.658045 z"/><path class="selected"  fill="#000000" opacity="1.000000" stroke="none" 
 	d="
M500.466372 673.489675 C500.338445 672.649307 500.210519 671.808939 500.082592 670.968571 C500.796354 670.464889 501.744550 670.309679 502.581652 670.559501 C504.044727 671.703902 502.176317 674.568698 500.539198 673.691161 z"/><path class="selected"  fill="#000000" opacity="1.000000" stroke="none" 
 	d="
M407.177492 372.228913 C404.885486 373.289744 406.222085 376.865663 408.187610 378.451653 C410.153135 380.037644 412.786863 381.902081 412.187049 384.355421 C407.304896 382.434871 403.617956 377.758413 402.889752 372.562871 C402.745554 371.534058 402.658493 370.383079 401.890504 369.683477 C400.904464 368.785243 399.365229 369.104665 398.048966 368.888911 C396.732703 368.673156 395.471809 366.917424 396.562534 366.149689 C400.878033 365.831996 405.267705 368.345978 407.177491 372.228913 z"/><path class="selected"  fill="#000000" opacity="1.000000" stroke="none" 
 	d="
M406.697489 791.606025 C404.981360 791.686470 404.949248 789.050818 405.584273 787.454473 C407.575192 787.531594 408.530436 790.643501 406.925674 791.824370 z"/><path class="selected"  fill="#000000" opacity="1.000000" stroke="none" 
 	d="
M205.038436 314.554109 C205.964786 309.882653 212.450963 309.349265 217.093424 310.411424 C223.503334 311.877961 229.708792 314.235261 235.475724 317.394402 C234.143912 319.500864 231.185764 319.992578 228.774144 319.364096 C226.362523 318.735614 224.279228 317.254104 222.050549 316.138804 C216.838628 313.530589 210.642423 312.953407 205.038436 314.554108 z"/><path class="selected"  fill="#000000" opacity="1.000000" stroke="none" 
 	d="
M430.223165 804.420110 C430.277365 805.590799 429.107634 806.658302 427.946766 806.497564 C426.785898 806.336827 425.950236 804.991650 426.320493 803.879733 C427.415991 803.461664 428.742253 803.733258 429.585239 804.548291 z"/><path class="selected"  fill="#000000" opacity="1.000000" stroke="none" 
 	d="
M93.106225 515.363880 C86.968044 508.851591 84.988145 498.729311 88.220248 490.384211 C88.920447 488.576338 89.837698 486.861794 90.752531 485.152477 C93.412065 486.035204 96.689028 488.719391 94.917282 490.890390 C89.549129 497.468225 91.185870 507.093620 93.106224 515.363880 z"/><path class="selected"  fill="#000000" opacity="1.000000" stroke="none" 
 	d="
M442.162753 443.457244 C440.472425 443.567976 438.764521 442.543684 438.066179 441.000379 C439.649840 439.677378 442.543921 441.414946 442.120674 443.434645 z"/><path class="selected"  fill="#000000" opacity="1.000000" stroke="none" 
 	d="
M195.962058 269.459710 C188.052110 273.267086 180.142162 277.074461 172.232215 280.881837 C176.458003 272.433320 186.722753 267.492482 195.962058 269.459707 z"/><path class="selected"  fill="#000000" opacity="1.000000" stroke="none" 
 	d="
M400.672768 529.447368 C400.247039 527.813650 402.875286 527.016395 404.287679 527.941286 C404.032204 529.528584 401.920714 530.469070 400.569906 529.597230 z"/><path class="selected"  fill="#000000" opacity="1.000000" stroke="none" 
 	d="
M422.488483 819.116198 C424.503826 817.801042 422.649066 814.633142 420.541222 813.472006 C418.433377 812.310870 415.646618 810.873100 416.007861 808.493867 C416.523090 805.100419 416.359215 800.552648 413.067548 799.580076 C414.304486 797.333392 417.965132 799.168837 418.789294 801.597493 C419.613457 804.026148 419.355029 806.954706 421.097008 808.837023 C422.276894 810.111965 424.088378 810.555448 425.541888 811.506720 C426.995397 812.457992 428.092231 814.545030 426.982684 815.881634 C425.484617 816.959822 423.986550 818.038010 422.488483 819.116198 z"/><path class="selected"  fill="#000000" opacity="1.000000" stroke="none" 
 	d="
M91.140551 317.954425 C92.443408 318.584914 92.100857 320.960142 90.672941 321.196804 C88.975404 320.864362 89.477686 317.652123 91.195674 317.853748 z"/><path class="selected"  fill="#000000" opacity="1.000000" stroke="none" 
 	d="
M45.233425 413.464573 C44.603969 415.948123 41.438443 416.777985 38.891553 416.499444 C36.344662 416.220902 33.725111 415.311734 31.291618 416.113202 C28.569863 417.009605 25.380705 416.290460 23.307064 414.312708 C25.981182 414.749340 28.352044 412.544668 29.819518 410.266934 C31.286992 407.989199 32.460364 405.336678 34.776717 403.930954 C37.244882 408.028238 40.926119 411.384504 45.233425 413.464573 z"/><path class="selected"  fill="#000000" opacity="1.000000" stroke="none" 
 	d="
M420.544604 797.798088 C419.880822 797.428887 419.396993 796.614385 419.662270 795.902666 C419.927547 795.190948 421.126953 795.002660 421.429073 795.699538 C423.038980 796.469012 421.246737 799.506807 419.794685 798.469781 z"/><path class="selected"  fill="#000000" opacity="1.000000" stroke="none" 
 	d="
M271.190262 691.679538 C269.646678 691.298903 269.197288 689.109302 270.026064 687.752591 C270.854841 686.395880 272.448300 685.730728 273.968777 685.266311 C277.854828 684.079348 282.121297 683.665277 285.947318 685.033429 C289.773338 686.401580 293.022122 689.832215 293.330216 693.883801 C287.714294 694.968963 280.795115 695.591809 277.358708 691.019363 C276.031739 689.253713 273.334726 692.208343 271.190262 691.679534 z"/><path class="selected"  fill="#000000" opacity="1.000000" stroke="none" 
 	d="
M148.863720 365.150712 C149.633765 365.711662 150.403811 366.272613 151.173856 366.833563 C150.890484 368.530441 148.274847 367.811969 146.967868 366.693264 C147.465498 366.206089 147.963130 365.718912 148.460762 365.231735 z"/><path class="selected"  fill="#000000" opacity="1.000000" stroke="none" 
 	d="
M51.712420 586.335044 C52.189071 585.716891 53.013369 585.506302 53.774786 585.334392 C61.641346 583.558321 69.604171 581.772072 77.666578 581.958516 C71.192779 585.657968 64.112739 588.293737 56.795775 589.728334 C55.487674 589.984807 54.074075 590.191401 52.868495 589.622646 C51.662914 589.053891 50.898440 587.390672 51.712419 586.335046 z"/><path class="selected"  fill="#000000" opacity="1.000000" stroke="none" 
 	d="
M53.560489 562.569308 C54.614581 563.522745 55.092453 565.069159 54.760024 566.451057 C52.765582 566.402157 51.784549 563.280692 53.392428 562.099633 z"/><path class="selected"  fill="#000000" opacity="1.000000" stroke="none" 
 	d="
M282.799597 547.942878 C284.702940 554.897120 286.577570 562.347690 284.303072 569.189535 C283.215635 572.460607 281.192029 575.414620 278.534610 577.610195 C276.202034 574.322770 280.560837 570.447179 281.659048 566.568779 C282.563960 563.373021 281.112708 560.055080 280.331528 556.826847 C279.550349 553.598614 279.844146 549.458475 282.799598 547.942878 z"/><path class="selected"  fill="#000000" opacity="1.000000" stroke="none" 
 	d="
M230.587185 906.738014 C230.466628 906.053713 230.731851 905.366766 230.992017 904.722472 C232.667386 900.573493 234.342752 896.424514 236.018118 892.275535 C237.921667 898.981277 239.825216 905.687018 241.728765 912.392760 C238.128820 912.307708 234.572808 910.931042 231.854033 908.569878 C231.282056 908.073137 230.718624 907.484093 230.587183 906.738015 z"/><path class="selected"  fill="#000000" opacity="1.000000" stroke="none" 
 	d="
M181.761494 505.213295 C181.015748 503.494457 184.409883 502.184613 185.012152 503.958820 C184.625099 505.061634 183.132109 505.600733 182.129783 504.999604 z"/><path class="selected"  fill="#000000" opacity="1.000000" stroke="none" 
 	d="
M278.161475 506.957911 C278.160572 505.955688 278.159670 504.953464 278.158768 503.951240 C278.956248 503.450168 279.958343 503.286349 280.873871 503.507384 C280.602199 504.983323 280.330526 506.459265 280.058854 507.935207 C279.507546 508.789046 277.854369 507.908561 278.255246 506.974602 z"/><path class="selected"  fill="#000000" opacity="1.000000" stroke="none" 
 	d="
M329.721460 255.562127 C335.332259 248.235184 345.934071 245.208775 354.567272 248.469604 C346.498043 251.508395 338.178876 253.883196 329.721460 255.562128 z"/><path class="selected"  fill="#000000" opacity="1.000000" stroke="none" 
 	d="
M334.658195 364.543695 C332.296455 364.493414 331.521887 360.460613 333.696950 359.538961 C335.228158 360.592442 335.691172 362.921578 334.679309 364.480604 z"/><path class="selected"  fill="#000000" opacity="1.000000" stroke="none" 
 	d="
M213.214316 335.549575 C215.858650 334.208667 218.502984 332.867760 221.147318 331.526852 C222.643047 330.768388 224.171049 329.999315 225.829102 329.747650 C230.349263 329.061565 234.437914 332.272704 237.880801 335.280875 C236.856104 337.203007 234.144323 335.187866 232.174605 334.257917 C229.070417 332.792353 225.561894 334.835627 222.486305 336.360296 C219.410716 337.884965 214.911556 338.533405 213.214316 335.549575 z"/><path class="selected"  fill="#000000" opacity="1.000000" stroke="none" 
 	d="
M368.626434 828.355232 C366.676337 828.862246 363.921961 827.806776 364.205600 825.811910 C366.102169 825.406780 368.208503 826.567628 368.878855 828.387446 z"/><path class="selected"  fill="#000000" opacity="1.000000" stroke="none" 
 	d="
M294.915976 233.727820 C300.299378 230.948066 307.753580 233.476230 310.335210 238.957403 C311.153125 240.693950 311.507346 242.758579 310.773685 244.532367 C305.487784 240.930853 300.201880 237.329337 294.915976 233.727820 z"/><path class="selected"  fill="#000000" opacity="1.000000" stroke="none" 
 	d="
M490.202846 753.891047 C491.146243 754.461967 490.730744 756.236110 489.631943 756.328753 C488.089289 755.317289 487.620199 752.981759 488.652668 751.453082 C489.449361 752.052582 489.996668 752.973612 490.142346 753.959971 z"/><path class="selected"  fill="#000000" opacity="1.000000" stroke="none" 
 	d="
M137.007009 391.051494 C139.727184 390.457489 142.356427 389.375094 145.133783 389.178899 C147.911138 388.982704 151.032160 389.932370 152.349239 392.385429 C153.666319 394.838487 151.893588 398.648354 149.120369 398.400459 C149.989185 395.406251 145.890198 393.318469 142.798942 393.723764 C139.707685 394.129059 136.496731 395.637503 133.621188 394.432770 C132.641246 392.822646 135.165520 391.453620 137.007008 391.051491 z"/><path class="selected"  fill="#000000" opacity="1.000000" stroke="none" 
 	d="
M100.705723 700.672402 C99.433885 694.321991 98.162048 687.971581 96.890211 681.621170 C96.061977 677.485718 95.229503 673.288377 95.540392 669.082276 C100.250015 678.822558 102.067729 689.939343 100.705723 700.672401 z"/><path class="selected"  fill="#000000" opacity="1.000000" stroke="none" 
 	d="
M350.273258 256.013107 C350.895967 254.608476 352.877370 254.025850 354.161282 254.869844 C354.349775 257.136056 350.585330 258.302384 349.459528 256.326574 z"/><path class="selected"  fill="#000000" opacity="1.000000" stroke="none" 
 	d="
M81.674703 324.508004 C82.514229 324.253956 83.469927 324.420440 84.174096 324.943402 C84.178645 325.956342 84.183190 326.969283 84.187734 327.982224 C83.261216 328.761359 81.681797 328.558268 80.982530 327.570081 C80.283264 326.581893 80.617186 325.024875 81.660177 324.410336 z"/><path class="selected"  fill="#000000" opacity="1.000000" stroke="none" 
 	d="
M304.695678 733.114859 C307.887494 737.310106 304.157572 743.381707 305.192779 748.550471 C305.590703 750.537300 306.737278 752.364895 308.352990 753.587723 C307.441594 754.872026 305.386588 754.845369 304.130997 753.894804 C302.875406 752.944240 302.267740 751.370737 301.890915 749.841658 C300.499939 744.197329 301.539657 737.996743 304.695678 733.114860 z"/><path class="selected"  fill="#000000" opacity="1.000000" stroke="none" 
 	d="
M406.207103 821.093177 C404.579881 821.577572 402.658429 820.587935 402.107882 818.981888 C402.725078 818.189486 403.651497 817.644637 404.643985 817.490344 C405.784488 818.192077 406.409650 819.642281 406.136811 820.953286 z"/><path class="selected"  fill="#000000" opacity="1.000000" stroke="none" 
 	d="
M46.886712 409.409835 C48.190107 404.547867 51.733761 400.335543 56.300904 398.219232 C57.443520 397.689769 58.954966 397.348165 59.835065 398.248904 C57.056358 403.368030 52.359634 407.416406 46.886712 409.409835 z"/><path class="selected"  fill="#000000" opacity="1.000000" stroke="none" 
 	d="
M348.095926 821.872544 C346.472405 823.285490 343.441817 822.138882 343.160172 820.005127 C345.010759 818.716594 347.973165 819.645132 348.757164 821.759453 z"/><path class="selected"  fill="#000000" opacity="1.000000" stroke="none" 
 	d="
M104.471379 710.048377 C107.989007 714.506991 111.506636 718.965606 115.024264 723.424220 C109.189439 721.762214 104.729944 716.109780 104.471376 710.048378 z"/><path class="selected"  fill="#000000" opacity="1.000000" stroke="none" 
 	d="
M357.449720 685.498261 C361.254642 686.790777 365.110267 688.991541 366.653839 692.701718 C367.842588 695.559032 367.386879 699.015277 365.571424 701.521567 C363.761788 701.753151 362.608174 699.691009 361.984969 697.976358 C360.473221 693.816991 358.961470 689.657626 357.449720 685.498261 z"/><path class="selected"  fill="#000000" opacity="1.000000" stroke="none" 
 	d="
M485.758319 677.764726 C486.308260 676.629792 486.858200 675.494859 487.408141 674.359925 C489.548840 675.526046 489.702211 679.097978 487.669347 680.443305 C486.866556 679.858738 486.317068 678.937855 486.183838 677.953757 z"/><path class="selected"  fill="#000000" opacity="1.000000" stroke="none" 
 	d="
M372.919523 359.254272 C369.811817 355.079418 366.743530 348.996274 370.284187 345.181698 C372.931395 349.392081 375.578603 353.602464 378.225812 357.812847 C376.687065 358.872238 374.782790 359.389525 372.919525 359.254273 z"/><path class="selected"  fill="#000000" opacity="1.000000" stroke="none" 
 	d="
M347.370116 813.773998 C345.792985 812.091012 345.041906 809.667876 345.390682 807.387933 C347.970194 806.935554 348.460121 810.952457 347.731830 813.468035 z"/><path class="selected"  fill="#000000" opacity="1.000000" stroke="none" 
 	d="
M457.956949 682.171246 C456.202515 680.448237 457.270957 676.887045 459.684134 676.414417 C459.229943 678.274528 458.775753 680.134642 458.321563 681.994756 z"/><path class="selected"  fill="#000000" opacity="1.000000" stroke="none" 
 	d="
M275.408596 288.396420 C271.357478 286.273979 267.306361 284.151538 263.255244 282.029097 C269.634036 281.245933 276.331120 283.841260 280.516399 288.718327 C279.230571 290.028406 277.034614 289.248316 275.408595 288.396423 z"/><path class="selected"  fill="#000000" opacity="1.000000" stroke="none" 
 	d="
M93.584333 481.308125 C92.471639 482.260445 90.762735 480.449309 91.244333 479.066173 C91.725931 477.683037 93.249446 477.007716 94.617818 476.485643 C95.762085 478.068050 95.412623 480.531969 93.873461 481.733782 z"/><path class="selected"  fill="#000000" opacity="1.000000" stroke="none" 
 	d="
M39.850891 512.410357 C38.141497 507.617177 36.409288 502.689341 36.533343 497.601983 C40.754403 502.438482 43.403325 508.625651 43.989791 515.018234 C42.685384 516.518633 40.518721 514.282970 39.850889 512.410359 z"/><path class="selected"  fill="#000000" opacity="1.000000" stroke="none" 
 	d="
M118.687187 449.512461 C117.900577 450.372481 116.629224 450.755995 115.498246 450.474430 C114.369697 448.235934 117.448711 445.368060 119.601537 446.652520 C120.335708 447.509647 119.728618 449.093173 118.609617 449.239835 z"/><path class="selected"  fill="#000000" opacity="1.000000" stroke="none" 
 	d="
M411.998752 802.915706 C410.438231 807.530371 410.567991 812.696252 412.358226 817.226750 C409.946800 813.205270 406.747503 809.658266 402.995245 806.846178 C405.670143 804.913924 408.763192 803.563656 411.998751 802.915706 z"/><path class="selected"  fill="#000000" opacity="1.000000" stroke="none" 
 	d="
M61.085807 388.150000 C61.456723 388.745128 61.827640 389.340257 62.198557 389.935385 C61.026160 391.104170 59.853764 392.272953 58.681369 393.441736 C57.334049 391.735907 58.504536 388.747043 60.651953 388.409808 z"/><path class="selected"  fill="#000000" opacity="1.000000" stroke="none" 
 	d="
M66.111161 406.908419 C62.016236 410.226180 57.087695 412.506769 51.908156 413.480591 C54.765920 408.979303 59.472385 405.691661 64.682182 404.557456 C65.475920 405.076104 66.016226 405.965018 66.111158 406.908418 z"/><path class="selected"  fill="#000000" opacity="1.000000" stroke="none" 
 	d="
M160.926903 405.439676 C161.143428 407.608892 159.591623 409.818566 157.477684 410.351149 C156.664654 408.268718 158.434662 405.641931 160.670002 405.613582 z"/><path class="selected"  fill="#000000" opacity="1.000000" stroke="none" 
 	d="
M360.728202 806.536014 C358.309648 808.075835 356.503235 810.550224 355.773457 813.322926 C354.114093 812.893452 353.565193 810.619537 354.301986 809.071935 C355.038779 807.524333 356.589715 806.558707 358.060592 805.678675 C360.337048 804.316667 362.613502 802.954657 364.889956 801.592646 C365.010745 803.400881 364.742647 805.234125 364.109111 806.932045 C362.964664 806.744064 361.820218 806.556084 360.675772 806.368103 z"/><path class="selected"  fill="#000000" opacity="1.000000" stroke="none" 
 	d="
M95.016810 429.369911 C92.396907 427.832964 92.654837 422.947561 95.629524 422.333283 C96.569491 424.459512 96.469291 427.017564 95.365886 429.063758 z"/><path class="selected"  fill="#000000" opacity="1.000000" stroke="none" 
 	d="
M127.247682 388.052537 C123.714261 388.407578 120.180841 388.762619 116.647421 389.117659 C115.800478 389.202761 114.913934 389.282637 114.125261 388.962404 C112.971087 388.493764 112.266971 387.121535 112.559345 385.910643 C112.092122 384.393307 114.297268 383.196929 115.728416 383.884256 C117.159565 384.571582 117.827732 386.203082 118.373099 387.694115 C118.381638 384.769072 120.708206 382.020920 123.591742 381.529830 C125.928151 382.752133 127.424395 385.421643 127.247682 388.052537 z"/><path class="selected"  fill="#000000" opacity="1.000000" stroke="none" 
 	d="
M373.197681 594.558453 C373.998143 595.963149 371.958464 597.706720 370.493559 597.022641 C369.028655 596.338562 368.677321 594.259443 369.402311 592.814349 C369.862570 591.896928 370.665086 591.156257 371.616394 590.770887 C374.166042 594.584142 381.334028 586.459360 384.035451 590.166639 C381.210056 593.005679 377.202420 594.629703 373.197681 594.558453 z"/><path class="selected"  fill="#000000" opacity="1.000000" stroke="none" 
 	d="
M82.501919 591.784782 C79.744788 590.586123 79.301853 586.120500 81.769794 584.403577 C83.404783 586.301235 83.753689 589.205931 82.614609 591.436805 z"/><path class="selected"  fill="#000000" opacity="1.000000" stroke="none" 
 	d="
M231.634295 286.624106 C234.703695 287.143630 237.548717 288.885966 239.406495 291.383921 C233.672274 291.437558 227.931701 289.863183 223.027103 286.891807 C222.120800 286.652697 221.664449 285.408443 222.201234 284.640056 C225.430639 284.553622 228.677828 285.219056 231.612936 286.568757 z"/><path class="selected"  fill="#000000" opacity="1.000000" stroke="none" 
 	d="
M300.769378 949.575545 C302.790587 947.818035 306.162890 947.915000 308.079775 949.785743 C306.375262 951.802364 302.907480 951.952449 301.035107 950.090634 z"/><path class="selected"  fill="#000000" opacity="1.000000" stroke="none" 
 	d="
M149.282309 335.769335 C154.424395 336.455388 159.496710 337.663287 164.396105 339.368469 C165.495398 339.751065 166.678179 341.306232 165.602564 341.751066 C159.638373 342.324799 153.463069 340.061414 149.282309 335.769335 z"/><path class="selected"  fill="#000000" opacity="1.000000" stroke="none" 
 	d="
M285.850394 287.828231 C288.370921 286.862824 290.914538 289.162623 293.585765 289.549425 C296.036984 289.904376 298.394108 288.616177 300.536356 287.373099 C301.338676 287.845016 301.334583 289.219751 300.529467 289.686884 C299.160986 292.658515 295.754331 294.549065 292.508651 294.138100 C289.262971 293.727134 286.435031 291.047164 285.850394 287.828231 z"/><path class="selected"  fill="#000000" opacity="1.000000" stroke="none" 
 	d="
M189.744037 301.588898 C188.110742 302.731260 185.829695 302.866861 184.072563 301.926049 C184.643011 299.037799 189.554635 298.586275 190.642104 301.322111 z"/><path class="selected"  fill="#000000" opacity="1.000000" stroke="none" 
 	d="
M102.082645 477.296936 C99.535877 476.519843 99.895357 472.825426 100.793870 470.318919 C102.815376 471.842408 103.565348 474.834382 102.501464 477.131260 z"/><path class="selected"  fill="#000000" opacity="1.000000" stroke="none" 
 	d="
M443.862605 787.736087 C444.442287 786.946668 445.021970 786.157250 445.601652 785.367832 C447.696519 787.055740 447.759614 790.686297 445.724663 792.445977 C444.675208 791.207229 444.089507 789.584539 444.105866 787.961093 z"/><path class="selected"  fill="#000000" opacity="1.000000" stroke="none" 
 	d="
M207.927503 302.455305 C208.379082 304.783507 205.304556 306.024702 202.953826 306.338571 C199.184521 306.841839 195.415217 307.345111 191.645914 307.848382 C190.098532 304.709820 194.029685 301.381584 197.528067 301.302266 C201.026448 301.222948 204.447365 302.820832 207.927503 302.455305 z"/><path class="selected"  fill="#000000" opacity="1.000000" stroke="none" 
 	d="
M81.090774 563.988411 C80.310398 565.316212 78.336904 563.857447 77.709550 562.450865 C75.830223 558.237229 74.929388 553.590783 75.097895 548.980122 C75.695897 547.796233 77.342015 549.306245 77.670142 550.591364 C78.810352 555.057047 79.950563 559.522729 81.090775 563.988410 z"/><path class="selected"  fill="#000000" opacity="1.000000" stroke="none" 
 	d="
M566.344355 552.982281 C566.170372 554.160127 564.697115 554.934497 563.628293 554.409892 C562.869299 552.097508 562.865782 549.543816 563.618403 547.229349 C565.843350 547.846666 567.041278 550.795451 565.877201 552.789541 z"/><path class="selected"  fill="#000000" opacity="1.000000" stroke="none" 
 	d="
M157.023962 889.007290 C157.624328 890.567950 157.034955 892.501366 155.666091 893.461736 C154.495324 891.339162 154.496087 888.615895 155.668040 886.493977 C156.142647 887.329217 156.617253 888.164457 157.091859 888.999697 z"/><path class="selected"  fill="#000000" opacity="1.000000" stroke="none" 
 	d="
M96.378579 545.536944 C92.366343 542.834989 89.690403 538.240411 89.320006 533.417404 C92.822299 536.621895 95.319464 540.909515 96.378580 545.536943 z"/><path class="selected"  fill="#000000" opacity="1.000000" stroke="none" 
 	d="
M49.395741 545.865101 C46.571920 544.108837 46.243755 539.462578 48.792685 537.326838 C50.456051 539.636029 50.786680 542.839595 49.630005 545.439833 z"/><path class="selected"  fill="#000000" opacity="1.000000" stroke="none" 
 	d="
M313.363372 700.890369 C312.573361 698.642351 311.783350 696.394332 310.993339 694.146313 C311.663587 692.386846 314.292140 694.104368 314.975592 695.858748 C316.567853 699.946026 317.201892 704.403106 316.812591 708.772267 C314.338472 707.064095 312.901649 703.961261 313.199391 700.969527 z"/><path class="selected"  fill="#000000" opacity="1.000000" stroke="none" 
 	d="
M165.411845 362.127834 C166.615405 360.251192 169.746363 360.096081 171.129515 361.844575 C170.151356 363.785518 167.782614 364.912403 165.659580 364.446796 C165.174815 363.729029 165.003015 362.807496 165.196576 361.963266 z"/><path class="selected"  fill="#000000" opacity="1.000000" stroke="none" 
 	d="
M140.562146 338.546368 C141.253848 336.872183 141.945550 335.197999 142.637252 333.523815 C143.796822 332.841100 145.029746 334.552981 144.841204 335.885330 C144.652663 337.217680 143.813665 338.468831 143.998009 339.801768 C141.811546 340.553036 139.409549 341.305152 137.242498 340.499588 C135.075447 339.694025 133.763667 336.538661 135.493999 335.005366 C136.402857 336.964036 138.410376 338.366645 140.562146 338.546368 z"/><path class="selected"  fill="#000000" opacity="1.000000" stroke="none" 
 	d="
M110.182228 277.958668 C110.465533 278.970449 108.794599 279.778200 108.177655 278.927705 C109.001792 277.434736 109.825926 275.941770 110.650060 274.448803 C114.213932 274.070010 117.873529 276.516093 118.886342 279.953951 C118.784331 281.794993 115.849468 281.572160 114.514235 280.300550 C113.179001 279.028940 111.811778 277.155648 110.010941 277.551661 z"/><path class="selected"  fill="#000000" opacity="1.000000" stroke="none" 
 	d="
M411.571878 784.789194 C407.861641 782.164453 405.396542 777.852595 405.017018 773.323679 C407.590217 774.511710 409.963526 776.131315 412.007824 778.094376 C412.445860 780.313268 412.293970 782.645847 411.571879 784.789193 z"/><path class="selected"  fill="#000000" opacity="1.000000" stroke="none" 
 	d="
M231.043852 781.874328 C230.113504 783.022482 229.806426 784.646807 230.253432 786.055349 C229.344794 786.235308 228.436160 786.415265 227.527525 786.595223 C227.228281 785.039192 226.958838 783.308294 227.805376 781.968834 C228.651914 780.629373 231.109895 780.407917 231.604048 781.913439 z"/><path class="selected"  fill="#000000" opacity="1.000000" stroke="none" 
 	d="
M336.672099 675.351292 C337.816521 675.476953 338.960943 675.602614 340.105365 675.728275 C339.048808 677.768182 336.985728 679.254904 334.716331 679.611788 C333.467328 678.191837 334.738233 675.499401 336.628323 675.561191 z"/><path class="selected"  fill="#000000" opacity="1.000000" stroke="none" 
 	d="
M86.068971 596.399630 C85.108293 602.888639 84.147615 609.377647 83.186937 615.866656 C81.511233 609.693466 81.617225 603.047494 83.488930 596.930880 C84.348946 596.753797 85.208959 596.576714 86.068971 596.399631 z"/><path class="selected"  fill="#000000" opacity="1.000000" stroke="none" 
 	d="
M223.972629 245.288498 C228.509951 242.037164 234.217585 240.457225 239.780959 240.912569 C234.960071 243.601036 229.489765 245.115280 223.972629 245.288499 z"/><path class="selected"  fill="#000000" opacity="1.000000" stroke="none" 
 	d="
M383.301906 375.630754 C382.795805 374.137911 384.911396 372.863409 386.371447 373.457523 C387.831497 374.051638 388.605860 375.616337 389.252892 377.053720 C387.311451 377.741833 384.965221 377.053846 383.702811 375.426262 z"/><path class="selected"  fill="#000000" opacity="1.000000" stroke="none" 
 	d="
M378.608966 820.612894 C379.737767 820.929538 380.315884 822.458980 379.678772 823.443125 C377.293747 823.643002 374.859875 822.181034 373.916056 819.981602 C375.335992 819.184381 377.286463 819.496268 378.386996 820.696517 z"/><path class="selected"  fill="#000000" opacity="1.000000" stroke="none" 
 	d="
M49.552668 534.196535 C47.097223 533.658209 45.570259 530.591940 46.620231 528.307959 C48.769605 528.887076 50.244029 531.295608 49.782225 533.473205 z"/><path class="selected"  fill="#000000" opacity="1.000000" stroke="none" 
 	d="
M72.965118 438.058521 C71.851979 436.018601 71.742916 433.460346 72.678401 431.333090 C75.516468 431.728888 76.854484 435.176028 76.673397 438.035837 C76.492311 440.895645 75.389059 443.716243 75.783787 446.554462 C74.017394 444.074254 73.094727 441.004301 73.201114 437.961232 z"/><path class="selected"  fill="#000000" opacity="1.000000" stroke="none" 
 	d="
M414.389250 793.076004 C415.414407 789.523217 416.439563 785.970431 417.464720 782.417645 C418.476361 782.269886 419.535506 782.469673 420.423801 782.975816 C419.977456 786.628534 419.531111 790.281251 419.084766 793.933969 C417.657675 795.011707 415.343006 794.588770 414.389253 793.076002 z"/><path class="selected"  fill="#000000" opacity="1.000000" stroke="none" 
 	d="
M263.456743 316.158488 C259.216538 315.956609 255.164120 313.401644 253.153916 309.662771 C257.402736 309.825676 261.477990 312.395039 263.456744 316.158486 z"/><path class="selected"  fill="#000000" opacity="1.000000" stroke="none" 
 	d="
M45.559558 467.596704 C46.688502 468.553305 47.144053 470.229586 46.654575 471.626014 C44.563360 470.481188 43.168857 468.161703 43.138569 465.777824 C44.018518 466.259220 44.898465 466.740616 45.778413 467.222012 z"/><path class="selected"  fill="#000000" opacity="1.000000" stroke="none" 
 	d="
M241.925466 899.551275 C243.226058 898.690563 245.227524 899.224000 245.927227 900.617836 C246.626929 902.011672 245.858940 903.935370 244.391697 904.464105 C243.685787 902.943224 242.979876 901.422340 242.273966 899.901455 z"/><path class="selected"  fill="#000000" opacity="1.000000" stroke="none" 
 	d="
M377.171195 760.953744 C377.844091 761.987559 378.516987 763.021375 379.189882 764.055190 C374.776209 765.234280 369.681289 762.654847 368.018891 758.399592 C370.975631 759.476754 373.932370 760.553916 376.889109 761.631079 z"/><path class="selected"  fill="#000000" opacity="1.000000" stroke="none" 
 	d="
M377.412339 1160.272785 C376.278413 1158.891669 377.902545 1156.597067 379.686980 1156.692263 C381.471415 1156.787460 382.817987 1158.455954 383.292644 1160.178735 C381.251441 1160.309453 379.210235 1160.440171 377.169030 1160.570889 z"/><path class="selected"  fill="#000000" opacity="1.000000" stroke="none" 
 	d="
M261.893750 255.763929 C261.244034 254.347485 263.504380 253.385874 265.033317 253.687199 C268.188987 254.309128 271.006045 256.461807 272.435049 259.343298 C269.301204 258.818385 266.223466 257.959150 263.270906 256.784877 C262.726066 256.568187 262.138214 256.296886 261.893749 255.763930 z"/><path class="selected"  fill="#000000" opacity="1.000000" stroke="none" 
 	d="
M473.885948 732.037199 C473.405266 730.372883 470.914730 729.756982 469.713732 731.005423 C468.512734 732.253863 469.224616 734.718681 470.906296 735.134555 C472.587976 735.550430 474.366631 733.701514 473.885948 732.037199 z"/><path class="selected"  fill="#000000" opacity="1.000000" stroke="none" 
 	d="
M442.898381 811.475752 C443.007849 812.418106 443.117316 813.360461 443.226784 814.302815 C440.898678 814.123480 438.808897 812.239389 438.390157 809.942238 C439.783440 808.723685 442.386575 809.663122 442.680587 811.490599 z"/><path class="selected"  fill="#000000" opacity="1.000000" stroke="none" 
 	d="
M280.997041 338.028595 C280.123731 337.656344 279.303268 337.106076 278.757398 336.329373 C278.286556 335.659423 278.038859 334.835412 278.062269 334.016891 C282.438244 333.977123 286.814217 333.937355 291.190190 333.897588 C289.611683 337.654370 284.745637 339.626447 280.997042 338.028594 z"/><path class="selected"  fill="#000000" opacity="1.000000" stroke="none" 
 	d="
M8.839363 412.722511 C9.437169 411.959864 10.034976 411.197216 10.632782 410.434568 C11.808764 411.608713 12.984742 412.782857 14.160720 413.957001 C13.555080 414.745869 12.642220 415.292324 11.660824 415.453486 C10.827704 414.621523 9.994585 413.789561 9.161465 412.957598 z"/><path class="selected"  fill="#000000" opacity="1.000000" stroke="none" 
 	d="
M253.895933 286.599800 C250.979151 289.019268 246.555688 289.431406 243.242142 287.592422 C241.780196 286.781057 240.489775 285.487416 240.121484 283.856478 C244.821710 282.763119 249.973237 283.789098 253.895933 286.599800 z"/><path class="selected"  fill="#000000" opacity="1.000000" stroke="none" 
 	d="
M474.182517 495.827504 C476.156056 496.174068 477.973943 497.334506 479.119113 498.978753 C478.571425 499.769166 477.658589 500.295072 476.700085 500.372413 C475.114765 499.519784 474.061407 497.758588 474.060173 495.958529 z"/><path class="selected"  fill="#000000" opacity="1.000000" stroke="none" 
 	d="
M226.209803 261.403560 C219.435167 264.401834 211.382955 264.364802 204.636183 261.304343 C211.800150 260.519842 219.053355 260.553200 226.209803 261.403560 z"/><path class="selected"  fill="#000000" opacity="1.000000" stroke="none" 
 	d="
M253.141414 309.396018 C249.965669 309.638374 246.457154 309.786051 243.952847 307.818175 C246.774584 305.733658 251.268849 306.493711 253.248223 309.390175 z"/><path class="selected"  fill="#000000" opacity="1.000000" stroke="none" 
 	d="
M343.732679 257.609202 C345.120728 258.171123 344.012384 260.310737 342.688948 261.011417 C339.635266 262.628153 335.886424 262.871445 332.649393 261.662964 C335.569306 259.461869 339.065664 258.032543 342.691311 257.557786 C343.039959 257.512132 343.406749 257.477257 343.732679 257.609202 z"/><path class="selected"  fill="#000000" opacity="1.000000" stroke="none" 
 	d="
M457.095748 785.975569 C457.641433 787.524966 456.308882 789.414409 454.666212 789.420443 C453.872756 786.904413 453.079301 784.388384 452.285845 781.872354 C452.003984 780.978584 451.724428 779.995257 452.080858 779.128522 C452.860599 777.232412 456.023253 777.788651 456.949399 779.617718 C457.875545 781.446784 457.301359 783.643404 456.710795 785.606684 z"/><path class="selected"  fill="#000000" opacity="1.000000" stroke="none" 
 	d="
M479.644930 731.448716 C478.122144 731.995648 476.460185 730.608101 476.095111 729.031798 C475.730036 727.455494 476.268946 725.826058 476.801034 724.298022 C479.015177 725.930700 480.278272 728.769380 480.008801 731.507167 z"/><path class="selected"  fill="#000000" opacity="1.000000" stroke="none" 
 	d="
M477.690507 719.901919 C477.513967 717.889322 478.905508 715.848598 480.843555 715.277908 C481.579595 717.764367 480.595013 720.664121 478.497183 722.188369 C477.685298 722.993262 476.949256 721.115705 477.314912 720.032514 z"/><path class="selected"  fill="#000000" opacity="1.000000" stroke="none" 
 	d="
M91.959423 347.541729 C91.990235 349.948637 90.979548 352.351140 89.237419 354.012207 C88.142020 355.056638 86.589127 355.834590 85.136009 355.411287 C85.569858 351.750300 88.396838 348.489898 91.959423 347.541728 z"/><path class="selected"  fill="#000000" opacity="1.000000" stroke="none" 
 	d="
M363.186937 262.180146 C366.009785 261.864648 368.952317 263.387728 370.324602 265.874662 C366.654487 267.125602 362.474303 266.794381 359.046987 264.981072 C359.316772 263.210630 361.314914 261.918947 363.040033 262.399801 z"/><path class="selected"  fill="#000000" opacity="1.000000" stroke="none" 
 	d="
M279.060585 228.713620 C284.724450 225.800521 291.640120 225.435424 297.579228 227.735972 C291.736618 230.076265 285.117131 230.425725 279.060584 228.713622 z"/><path class="selected"  fill="#000000" opacity="1.000000" stroke="none" 
 	d="
M498.268471 561.627271 C497.758750 559.978589 500.290831 558.777270 501.757377 559.686783 C503.223922 560.596296 503.702579 562.469249 504.057396 564.158058 C501.963241 564.244318 499.857628 563.177541 498.688494 561.437984 z"/><path class="selected"  fill="#000000" opacity="1.000000" stroke="none" 
 	d="
M325.655725 716.656251 C328.361863 716.519959 330.485860 719.986003 329.135862 722.335316 C326.393697 722.212568 324.337566 718.896875 325.446540 716.385953 z"/><path class="selected"  fill="#000000" opacity="1.000000" stroke="none" 
 	d="
M3.626823 425.494066 C2.417882 424.594247 1.208941 423.694428 0.000000 422.794609 C4.402648 421.688535 9.147817 421.990752 13.374570 423.646425 C10.321884 424.954058 6.983872 425.590714 3.664193 425.498478 z"/><path class="selected"  fill="#000000" opacity="1.000000" stroke="none" 
 	d="
M19.162515 424.939014 C17.805339 424.573340 16.448164 424.207666 15.090989 423.841993 C18.903841 421.130312 24.330615 420.913861 28.347326 423.313249 C25.834757 425.391674 22.228219 426.061482 19.136925 425.023809 z"/><path class="selected"  fill="#000000" opacity="1.000000" stroke="none" 
 	d="
M127.834071 727.097250 C127.302325 728.997291 125.387311 730.414357 123.414824 730.367390 C121.442337 730.320422 119.596939 728.813816 119.156229 726.890619 C121.768417 726.186320 124.566984 726.186441 127.179114 726.890968 z"/><path class="selected"  fill="#000000" opacity="1.000000" stroke="none" 
 	d="
M428.429905 833.759718 C427.326332 832.380243 428.484354 830.161381 430.147491 829.565731 C431.810628 828.970080 433.643971 829.473503 435.336812 829.978590 C435.058422 833.196213 431.029483 835.431844 428.151944 833.965425 z"/><path class="selected"  fill="#000000" opacity="1.000000" stroke="none" 
 	d="
M485.143851 553.006333 C483.908973 552.239551 484.209503 549.988487 485.602286 549.572513 C487.737466 552.517444 488.929563 556.135414 488.963209 559.772788 C486.635026 558.379192 485.149884 555.681180 485.217805 552.968631 z"/><path class="selected"  fill="#000000" opacity="1.000000" stroke="none" 
 	d="
M284.617273 261.642919 C285.163342 261.323118 284.940847 262.538517 284.327288 262.693473 C281.951650 263.293435 279.249009 262.218769 277.934042 260.151292 C278.855237 259.605669 279.776431 259.060046 280.697626 258.514423 C282.056516 259.440770 283.415405 260.367117 284.774295 261.293464 z"/><path class="selected"  fill="#000000" opacity="1.000000" stroke="none" 
 	d="
M442.423530 443.064291 C445.057754 444.682743 447.394420 446.783808 449.282692 449.231859 C445.980357 451.238687 441.114780 447.179930 442.496803 443.571216 z"/><path class="selected"  fill="#000000" opacity="1.000000" stroke="none" 
 	d="
M481.020628 487.910560 C479.949187 490.912806 475.934066 492.419206 473.152240 490.862635 C475.962228 490.763906 478.478375 488.265903 478.597440 485.456704 C479.451808 486.290034 480.306174 487.123364 481.160540 487.956695 z"/><path class="selected"  fill="#000000" opacity="1.000000" stroke="none" 
 	d="
M396.001896 834.870983 C395.558879 835.727135 395.115861 836.583286 394.672844 837.439437 C393.808678 837.650342 392.858821 837.481279 392.120499 836.985149 C392.131056 833.877494 392.547202 830.491030 394.746689 828.295605 C396.207042 830.117625 396.694142 832.676616 396.005299 834.907732 z"/><path class="selected"  fill="#000000" opacity="1.000000" stroke="none" 
 	d="
M109.095661 671.080766 C110.989185 672.101379 112.109418 674.389499 111.754249 676.511041 C111.520841 675.331789 110.323629 674.647208 109.271711 674.065321 C108.219792 673.483434 107.068671 672.646181 107.054241 671.444134 C107.039810 670.242087 109.157187 669.583580 109.368188 670.767051 z"/><path class="selected"  fill="#000000" opacity="1.000000" stroke="none" 
 	d="
M101.022359 405.154729 C103.537737 408.060761 102.170559 413.337608 98.560519 414.656606 C97.734704 411.510778 98.593035 407.974142 100.769003 405.556838 z"/><path class="selected"  fill="#000000" opacity="1.000000" stroke="none" 
 	d="
M171.518133 513.198051 C173.435633 511.886145 176.506201 513.029800 177.098300 515.276426 C173.397018 517.238556 168.652630 517.061412 165.107968 514.828735 C166.899123 513.391652 169.422537 512.922064 171.610744 513.618619 z"/><path class="selected"  fill="#000000" opacity="1.000000" stroke="none" 
 	d="
M155.174211 800.953886 C155.145106 802.473859 154.120982 803.927397 152.699453 804.466305 C151.108813 803.353574 149.849108 801.773818 149.118375 799.975389 C150.299387 799.469471 151.480399 798.963553 152.661411 798.457635 C153.494776 799.290969 154.328141 800.124303 155.161506 800.957638 z"/><path class="selected"  fill="#000000" opacity="1.000000" stroke="none" 
 	d="
M78.255929 335.376698 C77.030161 333.493892 74.768464 332.335246 72.524271 332.440422 C72.364055 331.554873 72.203839 330.669327 72.043624 329.783781 C74.152693 329.423208 76.514544 329.276574 78.236793 330.546239 C79.959042 331.815905 80.194505 335.013230 78.215961 335.827818 z"/><path class="selected"  fill="#000000" opacity="1.000000" stroke="none" 
 	d="
M340.248950 812.916298 C340.962183 814.374624 341.675415 815.832950 342.388648 817.291276 C339.681106 817.588874 336.929296 815.491762 336.498188 812.802247 C337.310799 811.700987 339.309323 811.889700 339.901438 813.123603 z"/><path class="selected"  fill="#000000" opacity="1.000000" stroke="none" 
 	d="
M226.707847 496.540163 C223.062683 499.007061 218.088752 499.360758 214.131189 497.434492 C217.133613 493.825284 223.224915 493.392130 226.707847 496.540162 z"/><path class="selected"  fill="#000000" opacity="1.000000" stroke="none" 
 	d="
M253.208172 675.651124 C253.809818 677.135926 253.026807 679.032505 251.552918 679.660413 C250.676352 676.317770 251.998565 672.506828 254.757029 670.425365 C255.408160 672.091506 254.893155 674.143751 253.532489 675.305037 z"/><path class="selected"  fill="#000000" opacity="1.000000" stroke="none" 
 	d="
M265.504166 245.279608 C263.996193 246.533343 261.746755 246.814525 259.976568 245.970563 C261.187414 242.434845 266.081519 240.795909 269.177463 242.889371 C269.834768 244.586352 267.282791 246.375627 265.911476 245.179261 z"/><path class="selected"  fill="#000000" opacity="1.000000" stroke="none" 
 	d="
M480.441299 653.807437 C481.505188 656.285122 480.223805 659.506936 477.748842 660.577145 C475.121740 658.047728 475.536115 653.108680 478.547951 651.052355 C479.138212 651.981580 479.728471 652.910805 480.318730 653.840029 z"/><path class="selected"  fill="#000000" opacity="1.000000" stroke="none" 
 	d="
M58.772863 474.337228 C56.009452 471.432299 57.098996 465.890073 60.756415 464.247412 C61.239667 467.455605 61.362923 470.717889 61.123128 473.953401 C60.477142 474.475149 59.551275 474.626354 58.772864 474.337226 z"/><path class="selected"  fill="#000000" opacity="1.000000" stroke="none" 
 	d="
M345.599709 566.444860 C345.307056 567.761053 345.014404 569.077245 344.721751 570.393438 C342.428283 567.103334 342.119069 562.535774 343.948179 558.966580 C345.378838 561.145489 346.114118 563.773615 346.021861 566.378596 z"/><path class="selected"  fill="#000000" opacity="1.000000" stroke="none" 
 	d="
M279.182035 313.779510 C276.031133 313.752393 273.159195 310.956689 273.047338 307.807657 C276.007720 306.473588 279.822814 309.768745 278.933591 312.891707 z"/><path class="selected"  fill="#000000" opacity="1.000000" stroke="none" 
 	d="
M371.453629 725.629665 C369.507160 723.229791 370.156439 719.187296 372.756525 717.517659 C373.262114 720.735033 373.767704 723.952407 374.273294 727.169782 C373.367211 726.684281 372.461129 726.198780 371.555047 725.713279 z"/><path class="selected"  fill="#000000" opacity="1.000000" stroke="none" 
 	d="
M298.113887 262.967106 C298.349673 263.817244 298.194229 264.767634 297.699882 265.498353 C296.127794 263.718226 295.054582 260.962120 296.439809 259.033013 C297.825036 257.103906 301.920480 258.715898 300.822524 260.821795 C299.920900 261.515577 299.019276 262.209360 298.117651 262.903143 z"/><path class="selected"  fill="#000000" opacity="1.000000" stroke="none" 
 	d="
M113.678806 288.477022 C115.446931 287.483179 117.215056 286.489336 118.983181 285.495493 C118.712719 288.621255 115.746245 291.267898 112.609993 291.181555 C112.010215 290.245801 112.672573 288.787589 113.771880 288.623601 z"/><path class="selected"  fill="#000000" opacity="1.000000" stroke="none" 
 	d="
M394.161518 768.956659 C394.178906 767.856386 394.196294 766.756114 394.213682 765.655841 C397.536777 766.253488 399.529202 770.595720 397.815103 773.504675 C396.186812 772.380397 394.868022 770.812531 394.039280 769.015719 z"/><path class="selected"  fill="#000000" opacity="1.000000" stroke="none" 
 	d="
M265.436386 589.038281 C266.097785 586.449650 268.383112 584.353085 271.019031 583.916749 C271.627930 587.223037 268.213438 590.582877 264.917401 589.920716 z"/><path class="selected"  fill="#000000" opacity="1.000000" stroke="none" 
 	d="
M145.043167 4.348431 C142.340889 3.391574 139.638611 2.434717 136.936332 1.477861 C139.299263 -1.376399 144.883579 0.171300 145.440137 3.834702 z"/><path class="selected"  fill="#000000" opacity="1.000000" stroke="none" 
 	d="
M499.992755 573.526801 C498.622448 572.233935 500.913553 569.864974 502.682977 570.511802 C504.452400 571.158629 505.231676 573.179666 505.803551 574.974716 C505.468501 575.831366 504.581018 576.440867 503.661188 576.446034 C502.494645 575.283253 501.328101 574.120471 500.161558 572.957689 z"/></svg>