<svg enable-background="new 0 0 784.361023 842.330933" fill="none" height="842.330933" stroke="#000" stroke-linecap="round" stroke-linejoin="round" viewBox="0 0 784.361023 842.330933" width="784.361023" xmlns="http://www.w3.org/2000/svg"><g fill="#000" stroke="none"><path d="m522.533005 841.862862c-5.926222-.021989-11.852445-.043979-17.778668-.065968 9.988489-50.851742 19.976978-101.703484 29.965468-152.555225 8.978854 1.905571 17.957709 3.811142 26.936563 5.716713.919428.195129 1.922057.441847 2.479688 1.198466.617899.838394.469881 1.994658.293748 3.021148-7.890173 45.983308-15.780345 91.966617-23.670517 137.949925-.517086 3.013535-3.771228 6.867027-5.623344 4.434243 8.397236-47.986218 16.600199-96.006432 24.60862-144.059069-5.961172-1.075838-11.922344-2.151676-17.883516-3.227515-2.175572-.392635-5.537533.485378-4.779107 2.56193 2.656594 7.273606 1.363628 15.321034.03855 22.950381-4.677819 26.933299-9.355638 53.866597-14.033458 80.799896-1.03355 5.950831-1.701715 13.046197 2.789593 17.084609-1.601963 3.01934-3.506949 5.877806-5.67705 8.51852.77781 5.223982 1.55562 10.447964 2.33343 15.671946z"/><path d="m338.79826 841.48543c20.611066-3.231046 41.631518-3.841426 62.39534-1.811799 2.372892.231945 4.868696.546075 6.777203 1.975067-23.056246.334495-46.118133.280061-69.172543-.163268z"/><path d="m313.447352 841.675156c.49946-1.285229.998919-2.570459 1.498379-3.855689 1.687615.975124.968255 4.137624-.975106 4.286828z"/><path d="m54.593262 841.71138c.559142-1.26452 1.118284-2.52904 1.677426-3.793561 1.444727 1.234928.481516 4.108482-1.415623 4.223226z"/><path d="m.015817 841.794758c-.011311-1.399642 1.895111-2.372401 3.021758-1.541864-.161047 1.322501-1.942795 2.12169-3.037575 1.362483z"/><path d="m586.58736 490.860215c-2.08751-3.168537-4.17502-6.337074-6.26253-9.505611 5.363153 3.102841 9.358928-5.814643 9.24071-12.009566-4.215969-3.123756-8.431939-6.247512-12.647908-9.371269 4.537017 1.035624 9.074033 2.071247 13.61105 3.106871-1.604491-5.849656-9.690549-7.747747-15.08131-4.966999s-8.505571 8.536837-10.84882 14.131661c-8.966978 21.409874-11.286113 44.922601-13.505994 68.028044-1.265931 13.176342-2.445323 26.978193 2.637453 39.200466 5.082775 12.222273 18.630885 22.022143 31.303875 18.199331-8.617235 3.853748-19.527324 1.804299-26.158635-4.913873-4.059064-.767234-8.118128-1.534469-12.177192-2.301703 10.130301 8.416487 22.167045 14.52471 34.941137 17.731396-13.870112-3.345475-27.740223-6.690949-41.610335-10.036423 11.175419 4.982946 22.350838 9.965893 33.526258 14.948839-11.77936-2.388226-23.558721-4.776451-35.338081-7.164677 4.173542 2.752368 8.347084 5.504736 12.520626 8.257104-4.186557.600614-8.373114 1.201227-12.559671 1.801841 9.139931 2.953212 19.038945 3.522285 28.457092 1.635939-8.122404 2.660578-16.244809 5.321155-24.367213 7.981733 5.228964 4.181812 10.457929 8.363625 15.686893 12.545438-9.712802 4.060777-17.637984 12.21051-21.425873 22.032951-4.519219-.475989-9.038438-.951979-13.557657-1.427968l9.503043 8.993811c-6.70344-2.229524-14.154053-2.140677-20.802421.248065 17.891886 4.108649 35.783771 8.217298 53.675657 12.325947-3.518661 1.555796-7.037322 3.111591-10.555984 4.667387 17.385.939226 33.708567 12.779434 39.999566 29.013462 6.291 16.234028 2.208463 35.981997-10.003924 48.390782 2.21406-14.161503 4.42812-28.323007 6.642179-42.484511-5.224311 3.698446-7.069588-7.038032-8.171486-13.343407-1.646536-9.42195-12.440215-13.771332-21.685016-16.22447-47.776777-12.677724-97.0546-19.688715-146.471414-20.839186-3.999345-.093109-8.373113-.024341-11.459046 2.521331-2.648451 2.184781-3.721034 5.696405-4.660899 8.998558-12.710462 44.657397-25.420924 89.314795-38.131387 133.972192-4.693632 16.490778-36.060187 6.710343-43.262813 22.269847 16.489712-50.895773 32.979423-101.791546 49.469135-152.687319-13.37483 47.493467-26.749659 94.986934-40.124488 142.4804 17.331296-51.905683 34.662592-103.811366 51.993888-155.717049 7.314088-21.905041 14.67785-44.037149 16.932497-67.020693 3.495112-35.628665-5.451375-71.518483-2.856739-107.224021 1.85563-25.53586 9.579863-50.312391 19.134061-74.066145 9.750261-24.241207 21.460644-47.693699 34.979258-70.053279 5.114123-8.458683 10.985823-17.204134 20.014246-21.227956 11.3092-5.040327 24.320505-1.398803 36.616518.054113s27.372609-1.045021 32.272758-12.41566c10.057463-23.338026 44.971957-30.901151 63.785582-13.817136 9.326997-25.665533 10.31963-53.49297 11.213307-80.786079 1.94568-59.421592 3.89136-118.843183 5.83704-178.264775.400936-12.244709 1.074224-25.316952 8.309356-35.203636 12.229559-16.711486 42.250027-14.501361 51.90038 3.820937 3.713556 7.050607 4.537818 15.217892 5.221813 23.157269 6.820404 79.166896 6.352302 158.960205-1.396456 238.041632-.856635 8.74254-1.631898 18.249242 3.107526 25.645437 4.739424 7.396194 17.432135 9.841761 21.861399 2.255757-7.763017 7.353696-21.222055-4.098708-19.442071-14.642574 1.779985-10.543866 11.599499-17.52518 20.593705-23.308406 16.49101-10.603628 37.136185-21.514805 54.582516-12.569648 15.268331 7.828445 20.05252 27.15707 21.615466 44.244016 4.885441 53.410233-5.840729 108.155562-30.520399 155.773147 14.183273-29.628966 28.648579-63.296685 17.543446-94.211356-1.910115 26.770633-19.360806 51.870624-43.790056 62.984899-3.471179-11.002774 7.595381-20.699046 17.078885-27.269681 9.483505-6.570636 19.897463-17.522339 14.911802-27.926823-15.95846 17.836979-37.08422 30.996118-60.130166 37.454805 5.455524 24.544301 8.119187 49.708029 7.923175 74.850563-7.069733-4.835785-14.139466-9.67157-21.209199-14.507355 5.606978 1.698957 11.213955 3.397914 16.820933 5.096871-4.522556-6.966867-11.299326-12.444827-19.05941-15.406558 4.40701-.324544 2.732658 6.99339-.511078 9.994264-5.485589-3.555848-10.971185-7.111701-16.456781-10.667554 3.510769-1.061893 7.273715-1.279704 10.883558-.629973-8.044339-4.264901-16.337456-8.060505-24.823145-11.361087-1.740127 4.106204-2.896301 9.731948.750184 12.299458 3.646485 2.567509 7.70737-6.098769 3.284496-5.526805 3.996211-.230558 7.896179 2.960231 8.461628 6.922949-7.890941 2.862419-17.182433 1.488405-23.907175-3.535363 3.050007 3.423973 6.100015 6.847947 9.150023 10.27192-5.784222-3.848274-14.870695 2.812295-12.941705 9.486531 6.169827 4.291324 13.823697 6.403938 21.32123 5.885066-5.779953-2.219101-10.957561-5.985559-14.848432-10.801509 8.995543.010607 17.985802 1.767532 26.323516 5.144281-6.851401 7.954682-8.29361 20.140541-3.488374 29.474799-9.185851-8.561825-18.371703-17.123649-27.557555-25.685473 3.230413 10.321575 10.963925 19.145981 20.77246 23.702637-4.119031 5.063909-12.561247 5.790545-17.485006 1.504965 1.82844-2.65619 5.103304-4.246443 8.321418-4.040825-4.016654-2.944342-8.033307-5.888683-12.049961-8.833024-1.498104 7.534503-.968869 18.218463 6.624117 19.384485-1.391975 4.54578-8.855628 5.338885-11.171821 1.187143.58444 5.283984 1.168881 10.567968 1.753322 15.851952-1.714515 4.182333-6.689092 6.73024-11.084918 5.677537.275927 8.69316-6.363512 17.097666-14.884454 18.841424-6.548954 9.300024-13.097908 18.600048-19.646862 27.900072-1.41758 2.013073-2.079941 5.843249.37691 6.004133-4.084108-.170994-8.168216-.341987-12.252325-.51298 5.730722-.622143 4.208958 10.41002-1.550689 10.643934-5.759646.233913-9.843412-5.34178-12.81536-10.280987 3.241025-.340632 6.48205-.681264 9.723075-1.021896-5.775111-2.499126-11.550222-4.998252-17.325333-7.497378 6.60381.953977 13.207619 1.907954 19.811428 2.861931-2.59712-6.044218-3.778732-12.69138-3.42376-19.260368-.333363 1.980623 3.170962.831103 3.890537-1.044053 2.670629-6.959475 1.673762-15.212203-2.57718-21.335602 2.296675 3.397278 8.152404-.886268 7.183869-4.871008s-5.198066-6.113868-8.968961-7.725254c5.166991.64377 10.19536 2.379153 14.659565 5.059286-2.772588-3.091414-5.707488-6.58276-5.729563-10.735301s4.82172-8.226208 8.246229-5.877415c-5.467652-7.993183-10.935304-15.986366-16.402955-23.979549 4.879788-1.125497 10.243724.076834 14.17619 3.177607m65.584388-77.694299c-1.404649-3.109061-.502699-7.099088 2.102656-9.301683 2.605356-2.202595 6.689833-2.428147 9.52187-.525813-.239812-3.172561-2.315979-6.140323-5.214076-7.453218 4.454217-.464232 8.908434-.928463 13.362651-1.392695 5.787753-5.095839 9.926824-12.035603 11.659998-19.549707 1.167722-5.062609.425641-11.712744-4.445972-13.518558-1.777359-.658833-3.810206-.506754-5.500565-1.364513-1.690358-.85776-2.620438-3.586101-.983938-4.542622 1.834591.671667 3.669182 1.343335 5.503773 2.015003 2.380631-1.782877.153491-5.481183-2.07093-7.455518-4.592978-4.076601-9.185957-8.153202-13.778935-12.229802-1.652513 1.423493.550626 3.836746 1.303329 5.883834.996406 2.709861-.886702 5.527675-2.38446 7.996052-5.30205 8.738035-6.529108 19.838294-3.263611 29.523411-.754906.507664-1.704083.718184-2.602835.577287-2.030195 3.747067 1.380085 8.494403.084683 12.554469-1.551221 4.861858-9.168971 6.81859-8.822313 11.910131.203632 2.990846 3.368705 5.557151 2.530676 8.435403.999333-.520487 1.998666-1.040974 2.997999-1.561461m-316.197049 408.177231c1.067896 1.462022 3.131471-.59067 3.684682-2.314581 12.871775-40.111158 25.743551-80.222315 38.615327-120.333472 2.767343-8.623621 5.643004-17.454364 11.26951-24.551368-4.948595-1.871406-8.84045 4.416455-10.422042 9.465155-14.382489 45.911423-28.764983 91.822845-43.147477 137.734266m339.533864-732.733186c1.577517-.053798 3.746902-.838606 3.336347-2.362711-.912917-.698181-1.825832-1.396361-2.738748-2.094542-2.286934-3.923153 4.21222-7.897808 3.909019-12.428732-.419878-6.274513-.839757-12.549026-1.259635-18.823539-.07964-1.190108-.196411-2.473779-.98287-3.37054-.786459-.896762-2.497463-1.030239-3.029345.037375-1.394168 2.798425-6.169288-2.728776-8.431297-.570488-.340178 3.476339 2.14112 7.013721 5.525603 7.877394 4.226161 1.078458 5.714921 7.533054 2.388075 10.353622-1.233462 1.045755-2.138866 2.417143-3.026881 3.768609-2.385085 3.629869-4.770173 7.259737-7.155261 10.889604-3.092148 4.705943-12.380642 2.326724-14.344416 7.604117 8.603137-.29339 17.206273-.58678 25.809409-.880169m5.25848 119.640699c-.538261-.591169-1.076523-1.182338-1.614785-1.773508 4.473127-8.792477 5.486479-19.288649 2.77803-28.774471-1.694383-5.934252-5.371661-11.932682-11.29735-13.656775 2.171654 5.855519 4.343308 11.711038 6.514962 17.566557 2.114482 5.701363 4.192405 12.240062 1.370977 17.626723-2.626094 5.013729-8.704667 7.210611-14.350398 7.610067-5.645732.399456-11.35378-.545676-16.961201.222877-1.379893.189128-3.051772 1.872076-1.830893 2.542395 10.675339.87517 21.350675 1.750338 32.02601 2.625507-.973259 1.081524-1.537667 2.522471-1.557879 3.977297 1.059768 1.218287 2.945466 1.629495 4.416235.963033-1.669913-2.70028-1.458137-6.43548.506292-8.929702m-335.341114 604.150543c-.791404 2.649509-1.234664 6.22188 1.201115 7.530773 5.040307-16.254301 10.080614-32.508603 15.120922-48.762905 1.888783-6.091067 3.799263-12.456251 2.752312-18.746919-1.45399 1.130831-2.058511 3.012459-2.585693 4.777379-2.015467 6.74751-4.030938 13.495018-6.04641 20.242527-3.480748 11.653048-6.961497 23.306097-10.442246 34.959145m325.154677-772.420259c2.251425-7.059184 2.789501-14.658228 1.555253-21.964228-2.963354.004311-3.989426 3.894474-4.165704 6.852584-.176278 2.958109-1.406058 6.847639-4.361915 6.636936 1.984689-1.309942.297531-4.921474-2.080445-4.908671-2.377977.012804-4.145852 2.41745-4.460212 4.774592-.140394 1.052688-.060716 2.177482.488062 3.086715 1.388923 2.301209 5.49199 3.081737 5.127776 5.744821-.115428.844012-.722151 1.547879-.903838 2.380149-.50331 2.305563 2.706758 3.988495 4.857366 3.016987 2.150608-.971507 3.2266-3.371601 3.943658-5.619883m-19.071309 390.354263c-1.303647-3.007575-3.20781-5.75342-5.567595-8.028596 1.193933-1.527272 1.348421-3.790097.373138-5.465465-.535209-.4191-1.236472.258541-1.556959.858025-1.450536 2.713279-2.53495 5.76371-2.186431 8.820582.34852 3.056873 2.44545 6.066051 5.457335 6.694129-1.193873 2.203372 1.344787 5.285658 3.736111 4.536157-.582669-2.008358-1.668587-3.86861-3.130915-5.363469.958438-.683788 1.916877-1.367575 2.875316-2.051363m24.437176 15.172389c.224641-2.202584-1.384212-4.238417-3.310881-5.32919-1.92667-1.090773-4.156978-1.477425-6.282656-2.096563-4.358499-1.269479-8.407175-3.589185-11.706499-6.707286-.872845 2.119025.137195 4.638656 1.817462 6.197127s3.902579 2.367878 6.060654 3.139139c4.473973 1.598924 8.947946 3.197849 13.42192 4.796773m-17.356217-140.178062c-.524592 6.088888-.138248 12.255466 1.142213 18.231265.114143.532698.258485 1.103306.675753 1.453568 1.267213 1.063716 2.874669-.934484 3.166084-2.563102 1.084871-6.063074-.814553-12.58818-4.984049-17.12173m-73.217849 148.738082c1.929509 1.597122 3.949509 3.240917 6.382822 3.834879 2.433313.593961 5.40153-.202246 6.500424-2.453076s-.924566-5.567701-3.36043-4.984286c-3.12871.749358-6.317338 1.2484-9.525392 1.490788-.688703.463924-.687255 1.649452.002577 2.111693m-82.017516 215.229909c2.45785 1.226815 6.145155 1.705617 7.329215-.773114-5.270125-3.236287-11.035753-5.663985-17.033506-7.172197 2.590036 3.326038 5.932499 6.062652 9.704291 7.94531m86.891443-227.47948c-.843544.060945-1.722869.220955-2.381944.750956-.880752.708264-1.172182 2.055035-.663036 3.06406 5.123751.395254 10.216498 1.191736 15.216262 2.379753-2.529323-4.060608-7.399786-6.539508-12.171282-6.194768m78.030509-256.121435c-1.453151.926591-3.233891 1.327424-4.943912 1.112843-.501788.85403-.661571 1.902791-.436877 2.867505 4.65468-.425903 9.30936-.851806 13.964041-1.277709-.331233-3.628394-5.966249-5.229407-8.155785-2.317211m-10.081127 7.629361c-4.878764-1.224632-10.015134-1.412499-14.970326-.547552-1.045652.182522-2.386056 1.165043-1.698952 1.97411 5.456736 1.718883 11.583958 1.194514 16.669278-1.426558m-73.077252 326.064112c1.274215 1.117374 2.715446 2.299782 4.410061 2.278996 1.694614-.020787 3.311516-2.051727 2.302143-3.413092-.328825-.443494-.843952-.702258-1.339698-.945256-2.632491-1.290357-6.052694-2.495667-8.241752-.545527.779249.965954 1.558501 1.931909 2.337753 2.897864m-71.743692 142.084697c2.0497.5602 4.099401 1.1204 6.149101 1.6806.503986-1.100139.658404-2.357308.435645-3.546714-3.022055-1.313369-6.256003-2.137723-9.53801-2.431303-1.288568 1.763475.96567 4.663487 2.992535 3.849809m111.340995-633.602418c1.362885-1.332933.379831-4.123551-1.517575-4.307978-.547143 4.596394.221619 9.341998 2.19188 13.530585 1.77363-2.605591 1.434449-6.443844-.768632-8.698018m29.761747 147.062959c-1.702737.43975-3.09667 1.904555-3.451506 3.62699 2.570262.958993 5.140528 1.917986 7.710794 2.876978-.23514-2.618578-1.933018-5.057441-4.307165-6.186894m4.155746-80.377343c2.986591 1.084353 6.592356.168955 8.700049-2.208687-3.931565-1.313659-8.555234-.263577-11.533696 2.619419.593559.889551 2.172662.789874 2.649652-.16725m-161.896456 388.848369c-1.645635.137854-2.910191 1.993591-2.436525 3.575602 1.526334 1.215675 3.551306 1.784839 5.487482 1.542382.515432-1.080061.671246-2.328059.437189-3.501695-1.16132-.500969-2.322641-1.001937-3.483962-1.502905m140.750947-303.718979c1.218773-.10247 2.473763-.215 3.560507-.776155.829952-.428557 1.587005-1.383602 1.196662-2.232197-3.760664-.526749-7.736638.802395-10.424488 3.48484 1.889107-.158829 3.778213-.317659 5.667319-.476489m28.812296 103.191593c-.733195 2.27824 2.559784 4.547307 4.427574 3.050873.554525-2.600243-1.403993-5.46066-4.028782-5.884043-.205057.937544-.410114 1.875087-.615171 2.81263m32.610286 174.617953c1.254457 1.207494 3.390604 1.354577 4.798721.330413-1.077598-2.224678-3.344376-3.828309-5.800895-4.103846-.833227.394519-1.40693 1.285263-1.421503 2.207054.57796.797959 1.492399 1.343674 2.469088 1.473491m-21.216604-422.095402c-1.633958 2.439521-1.883372 5.743465-.634163 8.400636 2.852164-1.41873 3.201683-6.091436.592317-7.918693m-49.204105 479.92414c.914015.948162 2.671951-.126604 2.798468-1.437492.126518-1.310888-.728766-2.491614-1.539578-3.529409-1.310956-.310434-2.780272.669852-2.997006 1.999517s.865228 2.725806 2.206911 2.847751m42.648578-457.550705c-1.325304 1.841412-1.59339 4.392305-.679861 6.469007 2.771169-.965976 3.276557-5.464391.788815-7.021196m-14.134058 126.466709c.0406-1.256176-1.704969-1.972006-2.789858-1.337464-1.084889.634541-1.470366 2.051995-1.34916 3.302969 1.417544 1.184765 4.015918-.145602 3.883406-1.988303m-26.321419 340.169886c.62578-2.272881-3.752651-3.418636-4.320387-1.130566.63304 1.368398 2.598409 1.896147 3.831769 1.028922m-122.676644 131.434873c.691536.795287 1.407853-1.05222.755455-1.879916-1.223546-1.552294-3.412039-2.269625-5.317066-1.742794 1.512149 1.255987 3.024299 2.511974 4.536448 3.76796m174.313943-209.532792c.726287 1.477575 2.919368 1.964638 4.202836.933411-.458756-.840609-.917514-1.68122-1.376273-2.52183-1.125999-.209703-2.865575.389957-2.352669 1.414055m-16.509586-146.49257c.199683.97294 1.699682 1.328881 2.315207.549384.75899-1.397183-1.034341-2.767741-2.510232-3.359282-.667375.823117-.656988 2.120776.023476 2.933103m-60.984647 125.804531c-.806424.13052-1.612847.261039-2.419271.391559.476599.899603.953199 1.799207 1.429798 2.698812.941854.237792 1.988567.016369 2.753439-.582468-.527603-.831458-1.055205-1.662914-1.582807-2.494371m60.828663 3.988489c-.797246.127008-1.594491.254017-2.391737.381025 1.910963 1.531351 4.58744 2.053042 6.933636 1.351482-1.511348-.542288-3.022696-1.084577-4.534044-1.626866m13.17532 4.640093c.745471 1.488413 2.974128 1.955247 4.254273.891135-.715385-1.379953-2.667795-1.938041-4.004427-1.144646m-73.982093 2.715936c.203328-1.838064-2.699198-2.995795-3.816722-1.522377.684561 1.10103 2.105269 1.687385 3.367119 1.38968m-7.312634 108.263672c.904942 1.029287 2.640638 1.181177 3.710601.324714-.417195-1.373703-2.581905-1.741809-3.429715-.583218m-93.333557-155.531073c.250716 1.17634 2.306178 1.248569 2.638848.09273-.106012-1.464681-2.80287-1.516483-2.965053-.056954m158.072527-314.909673c-.428804-.925945-2.185822.02609-1.644283.89095.459184 1.266888 2.836274-.1319 1.951752-1.148502m12.82059 84.145312c.72325.709981 1.973096.795577 2.786384.190825-.023912-1.493617-2.771047-1.679426-2.995873-.202631z"/><path d="m451.484633 744.762507c4.967615-20.366589 9.935229-40.733178 14.902844-61.099766.46336-1.899716 1.111007-4.036576 2.874798-4.880771 1.188395-.568796 2.583148-.384326 3.885857-.187452 7.419025 1.121216 14.838049 2.242431 22.257074 3.363646.770362 3.384004-.011737 7.089568-2.083933 9.873619 1.120356-6.459156-7.84677-9.265096-14.401243-9.386675-2.546187-.047231-5.521328.111267-6.982218 2.197195-1.144862 1.634684-.883415 3.82827-.631092 5.807976 2.206617 17.312794-.070511 35.17791-6.549466 51.383621-3.335998 1.226088-6.671995 2.452175-10.007992 3.678263 6.885921 1.572957 13.391308 4.78657 18.824958 9.29939 10.04937.563344 15.006642-11.817695 16.955227-21.69242 2.649168-13.425027 5.298335-26.850053 7.947503-40.275079 1.175348-5.956238 7.841352-9.51049 13.90866-9.296049 6.067308.214442 11.635002 3.230025 16.946032 6.171313-.590823 2.099702-1.181646 4.199404-1.772469 6.299106-1.625636-5.330666-8.206208-7.008021-13.720171-7.817285-3.174855-.465961-6.651108-.875386-9.387064.801327-2.735955 1.676713-3.626956 6.368479-.818912 7.921446 7.763967 1.262214 15.527934 2.524426 23.291901 3.786639-7.61115 44.773056-16.261632 89.369428-25.942131 133.741087-.386088 1.769679-.879306 3.704246-2.359285 4.748513-1.250399.882275-2.895868.898724-4.425691.859375-6.860955-.176471-13.710405-.79895-20.490769-1.862203-1.430974-.224396-2.967296-.524338-3.956995-1.581947-1.459377-1.559517-1.118994-4.021122-.683762-6.112162 4.589006-22.047555 9.178012-44.09511 13.767019-66.142665 2.125378-10.211225 20.621991-8.158942 23.868066-18.071023-10.90944 4.336356-21.81888 8.672712-32.728321 13.009069-3.072989 1.221472-6.3931 2.464087-9.6075 1.687626-3.214399-.776461-5.872977-4.549888-4.252062-7.432229-1.673518-1.310741-3.940872-1.83033-6.018159-1.379126 2.372018 5.771482 4.744035 11.542964 7.116052 17.314446l17.874717-7.393416c-5.433208 24.514432-10.866416 49.028863-16.299624 73.543295-31.268995-3.727633-62.537989-7.455266-93.806984-11.182899-1.690158-.201487-3.577925-.513593-4.579945-1.889526-1.106412-1.519281-.635267-3.626216-.117693-5.433003 12.873243-44.938857 25.746485-89.877714 38.619727-134.816571 1.547172-5.400981 7.244727-8.766629 12.834037-9.3358 5.589309-.569171 11.139541 1.084545 16.514583 2.719556-13.964995 48.964822-27.942809 97.981259-38.335673 147.826653 14.974332-49.167881 28.577517-98.753343 40.788419-148.679339 9.60173-.185038 19.228991 1.009712 28.494225 3.536154-4.768285 20.697713-9.53657 41.395427-14.304854 62.093141-.495286 2.149888.851199 5.639891 2.592309 4.28495m-14.275992 83.17095c6.899837 2.152927 14.056327 3.482031 21.269076 3.950096 2.478841.160862 3.915573-2.784303 4.232217-5.248093.316644-2.463791.417018-5.359631 2.45477-6.780228-6.741189-3.53577-14.576526-4.168248-22.167696-4.733428-2.001906-.149047-4.972067 1.14898-3.880133 2.833474 2.034218 3.138113 1.140359 7.812108-1.908234 9.978179m11.105922-78.535223c-1.970663 1.190136-2.689765 3.649833-3.24816 5.883246-5.841521 23.364498-11.683045 46.728994-17.52457 70.09349-.288105 1.152341-.482576 2.599459.459499 3.322915 1.61314 1.238795 3.435729-1.286447 3.914905-3.263117 5.334759-22.006664 10.669518-44.013328 16.004277-66.019993.799827-3.299403 1.588473-6.838627.394049-10.016541m24.575683 82.975426c2.533845 1.17276 5.882125.095633 7.256928-2.334521 3.822148 1.651833 7.644296 3.303667 11.466443 4.9555 1.562157.675124 3.266469 1.364197 4.918105.954045 1.651635-.410153 2.944112-2.485711 1.946148-3.864185-.625603-.864137-1.797337-1.066327-2.819608-1.371398-3.712266-1.107823-6.391793-4.235689-9.446647-6.618135-3.054853-2.382447-7.456037-4.061636-10.695557-1.937091-1.778402 3.083443-2.696918 6.656955-2.625812 10.215785m-6.946173-31.717376c-2.771742.697478-5.367193-2.014386-6.000671-4.801453-.633479-2.787066-.019746-5.697278-.186536-8.550559s-1.534608-6.04452-4.304755-6.748309c.614797 9.205883-1.116332 18.558961-4.9853 26.93496-.979511 2.12056.983681 4.789776 3.312787 4.967198 2.329107.177422 4.484751-1.620013 5.311121-3.804808.826369-2.184795.553754-4.640866-.09481-6.884876 2.102409 1.548364 5.434087 1.015081 6.948162-1.112155m35.157799-98.901679c-1.83106 3.266616-1.606461 7.577286.554164 10.635923 1.454488-1.091611 1.472627-3.60575.034042-4.718234 6.333231-.706282 12.807836-.119829 18.911087 1.712918 1.600107.480497 2.75888-1.960641 1.890144-3.387708-.868736-1.427066-2.673436-1.9133-4.303553-2.279273-4.617864-1.036744-9.235726-2.073487-13.853589-3.110231-.765634-.17189-1.616906-.33215-2.295307.062203-.41811.243051-.700516.662537-.936989 1.084401m-10.198695 45.253126c3.339959-1.310049 6.679918-2.620097 10.019876-3.930146 2.447862-.960138 4.895725-1.920275 7.343587-2.880412-6.25498-3.205754-14.956002.20709-17.363466 6.810555m-26.013936 30.277295c.429878.837946 1.40022 1.364578 2.337075 1.268397 2.617512-1.204141 4.765355-3.397512 5.914334-6.039702-2.356891-.853312-4.713782-1.706623-7.070672-2.559935 1.323082 2.425368 1.021421 5.640062-.729775 7.776945m-8.4895-3.41925c-.404311 1.498282.987553 3.183329 2.535229 3.069252 2.132401.295434 3.849988-2.669425 2.532947-4.372308-1.31704-1.702883-4.618504-.785916-4.868707 1.352262m9.710696 15.748356c.396082-.591043.792165-1.182086 1.188247-1.773128-1.362104-1.291685-2.155339-3.163148-2.136342-5.040225-.779091-.463423-1.722332-.644159-2.617546-.501552-.633288 2.730837.621645 5.796539 2.988014 7.299481m31.64883 36.252346c-.798107-.730665-2.140344-.765538-2.975315-.077301.842561 1.203233 2.083253 2.122629 3.479623 2.578521.663996-.718692.38587-2.065012-.508556-2.461761z"/><path d="m474.594148 718.472476c2.288904-3.560675 4.577808-7.12135 6.866713-10.682026 2.847852.530896 5.804451-1.387078 6.960414-4.043365 1.155962-2.656286.715504-5.817483-.645863-8.374588 1.525535-.512794 3.05107-1.025588 4.576606-1.538382 1.150673 1.183048.882516 3.097726.535431 4.711164-3.261732 15.162281-6.523464 30.324563-9.785196 45.486845-.3418 1.588868-.750902 3.295089-1.983095 4.354822-2.625667 2.258174-6.595843.084875-9.306408-2.070657-1.759396-1.399129-3.537049-4.224934-1.690151-5.506338 1.777684 1.3206 3.555366 2.641201 5.333048 3.961802-.608555-2.324464-1.217109-4.648928-1.825664-6.973393-.878375-3.355082-1.746366-6.974261-.51078-10.214855 1.235587-3.240593 5.547699-5.483327 8.299275-3.372179.517732-3.516983-3.448271-6.852152-6.82433-5.73885m5.314855 15.211023c.716646-2.58762-1.269922-5.576123-3.933225-5.916966.047913 2.233579.855551 4.444033 2.258868 6.182385.085609 1.134407 2.222487 1.055058 2.223726-.082574z"/><path d="m610.343917 714.168815c1.624603.554105 3.497781.941596 4.458259 2.364216 7.039107 10.426033 14.385601 20.644531 22.026723 30.637751-2.149217 1.36071-4.625929-1.114327-6.028044-3.236763-5.683665-8.603605-12.548278-16.425918-20.340925-23.178747-4.042585-3.503159-8.76982-7.698473-8.195796-13.016849 1.850172 2.983655 4.756992 5.297082 8.079783 6.430392z"/><path d="m663.378305 460.491726c.904288-1.023926 2.646907-.310571 3.522875.737686.875968 1.048256 1.498064 2.429706 2.755601 2.963339 2.574326 1.092415 6.741139-1.663034 7.758242.941968 2.607512 6.678365 14.762709 5.915669 16.138574 12.951767-7.720238-3.38183-15.934524-5.633332-24.300147-6.660571-2.801603-3.099696-4.836665-6.887134-5.875145-10.934189z"/><path d="m354.781378 831.661661c-6.010206 1.974867-12.197351 3.410901-18.462985 4.285254 4.212126-6.789723 13.583426-7.628624 21.57292-7.73032.531475 1.643682-1.468789 2.90581-3.109934 3.445069z"/><path d="m694.082132 477.55341c3.099769.749009 5.970304 2.823076 7.182999 5.772476.634894 1.544123.797834 3.278643.46162 4.913992-4.210905-1.84518-7.258391-6.105283-7.644619-10.686468z"/><path d="m575.983563 772.320818c.19765-1.215735.428216-2.502972 1.248468-3.421811.820253-.918838 2.44579-1.227697 3.24866-.293632.883692 1.028092.209732 2.597303-.486666 3.760452-1.134592 1.895033-2.269182 3.790064-3.403773 5.685096-.834244-1.76898-1.080189-3.809416-.690182-5.725961z"/><path d="m579.606163 758.548104c.928359 1.149575.037671 3.202187-1.436057 3.309427-.109856-2.995251-.219713-5.990501-.329569-8.985751-.026979-.73557-.036025-1.533312.397684-2.128028 1.0684-1.465026 3.668313-.02371 3.754823 1.787449.086511 1.811159-1.270057 3.331464-2.536886 4.62874z"/><path d="m571.619449 507.672902c2.134253-1.465568 5.188067-1.432031 7.289619.080055 1.211433.871635 2.12991 2.318531 1.932739 3.797869-3.436318.0942-6.885955-1.356344-9.222358-3.877924z"/><path d="m552.013723 653.810829c-1.043699-.061108-2.252076-.215848-2.797756-1.107631-.285472-.466539-.313248-1.080258-.071085-1.570675 4.288661-.635775 8.818168.55873 12.23557 3.226718-3.122243-.182805-6.244486-.365609-9.366729-.548413z"/><path d="m579.297684 628.991875c1.359058-.332302.773614 2.222032-.557312 2.653424-2.482434.804622-5.424286-.105786-7.018305-2.17194 2.530221-.316444 5.060443-.632887 7.590665-.949329z"/><path d="m745.426573 474.953954c-1.368582-3.592152-.143387-8.00773 2.880457-10.381112.12409 3.645169-.895858 7.321043-2.880456 10.381113z"/><path d="m566.834767 501.144132c-.976672.000024-1.897976-.76806-2.073666-1.7288 2.952704-1.608491 7.165502-.00383 8.299875 3.161432-2.123398.121458-4.278034-.361274-6.14663-1.37711z"/><path d="m581.850818 469.316255c1.337103 1.008953 2.674206 2.017907 4.011309 3.026861-2.717008 1.082347-6.085184.225997-7.955306-2.022615.737733-1.367107 2.680338-1.911215 4.020864-1.126212z"/><path d="m582.850108 730.315751c.000598-.99971.001197-1.999421.001796-2.999132.640233-.518675 1.5664-.657997 2.330894-.350635.690501 1.070975 1.405962 2.22404 1.393119 3.498252s-1.10914 2.616034-2.361077 2.378477c-.506105-.810986-1.012209-1.621972-1.518313-2.432959z"/><path d="m552.344104 672.638585c-1.805147.038575-3.606804-.833685-4.696146-2.273609 2.771721-1.194403 6.286476-.337515 8.197485 1.998521-1.066072.532558-2.322471.673512-3.480051.390423z"/><path d="m654.834625 509.36583c1.422222.950124 2.540539 2.347987 3.155332 3.94407-1.301523.800753-3.187924.44079-4.103129-.782958-.915205-1.223747-.727363-3.134977.408577-4.15713z"/><path d="m568.289622 530.831854c2.059651-.31503 4.623949 2.072592 3.109914 3.504062-1.288055-.016627-2.714382-.088067-3.631555-.992585s-.629778-2.908865.655533-2.994493z"/><path d="m701.84615 487.989929c2.717574.103012 5.371519 1.371236 7.158836 3.420948-2.757502 1.073068-6.254636-.764405-6.935333-3.643975z"/><path d="m581.8495 742.315128c.663129.6629 1.326258 1.325801 1.989387 1.988702-.831904 1.173624-2.055533 2.064445-3.427959 2.49561-.481418-1.009839-.97553-2.104875-.776659-3.205774.198871-1.1009 1.44008-2.065447 2.433081-1.550201z"/><path d="m610.451982 692.656891c-1.022011-.193016-1.669839-1.473199-1.220072-2.410999 2.574118-.021236 5.130786 1.19551 6.737724 3.206553-1.878777.279879-3.834458.023161-5.57735-.732125z"/><path d="m556.408572 631.668549c1.493765.452647 2.775528 1.562047 3.437735 2.975448-3.17937.132477-6.270738-2.304088-6.884722-5.426419 1.38498.43354 2.603127 1.379521 3.3661 2.614024z"/><path d="m576.476429 637.396978c1.457076.492595 2.914152.98519 4.371228 1.477785-1.020033 1.044007-2.258451 2.171811-3.709615 2.015136-1.451163-.156675-2.254529-2.566698-.869194-3.026338z"/><path d="m382.415468 535.768293c-.375981 1.232986-2.539889.331387-2.456451-.954947s1.3202-2.143545 2.428531-2.801739c1.541266.521162 1.462692 3.231691-.106177 3.6627z"/><path d="m737.358101 224.813471c-1.115298.463839-1.664954-1.358503-1.489388-2.553582 1.091272-.507856 2.344138-.661254 3.525703-.43168.76694 1.294577-.568931 3.219548-2.050026 2.954058z"/><path d="m678.364049 474.86832c.830618-.250567 1.774028-.093333 2.478483.41308.221366.83586.043742 1.768208-.469447 2.464126-1.537971.862829-3.39687-1.829787-1.991033-2.894422z"/><path d="m478.764669 705.622808c-.846332-.344623-.43579-1.795329.446022-2.035015s1.775766.269986 2.547833.758816c.309334.912644.10462 1.981228-.520112 2.714926-.830265-.526133-1.660531-1.052268-2.490797-1.578403z"/><path d="m660.395441 505.662179c1.397002.453177 2.626548 1.404973 3.415348 2.643834-1.503168 1.381405-4.398107-.673902-3.589621-2.54851z"/><path d="m591.655516 692.851267c-1.409948.62483-3.263565-.109616-3.862921-1.53058.622265.771993 1.809938.639856 2.787112.471567s2.205028-.190896 2.705808.664913-1.203771 1.924309-1.385462.949539z"/><path d="m614.873378 546.853391c1.341772-1.03864 3.650965-.214711 4.032202 1.438705-1.316975 1.103779-3.709672.219192-3.991925-1.475829z"/><path d="m748.373364 480.736129c-1.115874.244206-2.9082-.352922-2.313786-1.328362.69837-1.386698 3.30764.23333 2.374562 1.474298z"/><path d="m749.914435 460.29527c.004703.978524-.612668 1.932499-1.507254 2.329043-1.361637-.74525.265455-3.314311 1.521199-2.401869z"/><path d="m667.951938 383.447026c1.050294-1.242652 3.430082-.789877 3.950662.751648-1.18376 1.191674-3.525995.776219-4.22769-.749888z"/></g></svg>