<?xml version="1.0" encoding="utf-8"?><!DOCTYPE svg PUBLIC "-//W3C//DTD SVG 1.1//EN" "http://www.w3.org/Graphics/SVG/1.1/DTD/svg11.dtd"><svg version="1.1" id="Contours" xmlns="http://www.w3.org/2000/svg" xmlns:xlink="http://www.w3.org/1999/xlink" x="0px" y="0px" width="784.361023px" height="842.330933px" viewBox="0.000000 0.000000 784.361023 842.330933" enable-background="new 0 0 784.361023 842.330933" xml:space="preserve" stroke="black" fill="none" stroke-linecap='round' stroke-linejoin='round'><path class="selected"  fill="#000000" opacity="1.000000" stroke="none" 
 	d="
M522.533005 841.862862 C516.606783 841.840873 510.680560 841.818883 504.754337 841.796894 C514.742826 790.945152 524.731315 740.093410 534.719805 689.241669 C543.698659 691.147240 552.677514 693.052811 561.656368 694.958382 C562.575796 695.153511 563.578425 695.400229 564.136056 696.156848 C564.753955 696.995242 564.605937 698.151506 564.429804 699.177996 C556.539631 745.161304 548.649459 791.144613 540.759287 837.127921 C540.242201 840.141456 536.988059 843.994948 535.135943 841.562164 C543.533179 793.575946 551.736142 745.555732 559.744563 697.503095 C553.783391 696.427257 547.822219 695.351419 541.861047 694.275580 C539.685475 693.882945 536.323514 694.760958 537.081940 696.837510 C539.738534 704.111116 538.445568 712.158544 537.120490 719.787891 C532.442671 746.721190 527.764852 773.654488 523.087032 800.587787 C522.053482 806.538618 521.385317 813.633984 525.876625 817.672396 C524.274662 820.691736 522.369676 823.550202 520.199575 826.190916 C520.977385 831.414898 521.755195 836.638880 522.533005 841.862862 z"/><path class="selected"  fill="#000000" opacity="1.000000" stroke="none" 
 	d="
M338.798260 841.485430 C359.409326 838.254384 380.429778 837.644004 401.193600 839.673631 C403.566492 839.905576 406.062296 840.219706 407.970803 841.648698 C384.914557 841.983193 361.852670 841.928759 338.798260 841.485430 z"/><path class="selected"  fill="#000000" opacity="1.000000" stroke="none" 
 	d="
M313.447352 841.675156 C313.946812 840.389927 314.446271 839.104697 314.945731 837.819467 C316.633346 838.794591 315.913986 841.957091 313.970625 842.106295 z"/><path class="selected"  fill="#000000" opacity="1.000000" stroke="none" 
 	d="
M54.593262 841.711380 C55.152404 840.446860 55.711546 839.182340 56.270688 837.917819 C57.715415 839.152747 56.752204 842.026301 54.855065 842.141045 z"/><path class="selected"  fill="#000000" opacity="1.000000" stroke="none" 
 	d="
M0.015817 841.794758 C0.004506 840.395116 1.910928 839.422357 3.037575 840.252894 C2.876528 841.575395 1.094780 842.374584 -0.000000 841.615377 z"/><path class="selected"  fill="#000000" opacity="1.000000" stroke="none" 
 	d="
M586.587360 490.860215 C584.499850 487.691678 582.412340 484.523141 580.324830 481.354604 C585.687983 484.457445 589.683758 475.539961 589.565540 469.345038 C585.349571 466.221282 581.133601 463.097526 576.917632 459.973769 C581.454649 461.009393 585.991665 462.045016 590.528682 463.080640 C588.924191 457.230984 580.838133 455.332893 575.447372 458.113641 C570.056611 460.894389 566.941801 466.650478 564.598552 472.245302 C555.631574 493.655176 553.312439 517.167903 551.092558 540.273346 C549.826627 553.449688 548.647235 567.251539 553.730011 579.473812 C558.812786 591.696085 572.360896 601.495955 585.033886 597.673143 C576.416651 601.526891 565.506562 599.477442 558.875251 592.759270 C554.816187 591.992036 550.757123 591.224801 546.698059 590.457567 C556.828360 598.874054 568.865104 604.982277 581.639196 608.188963 C567.769084 604.843488 553.898973 601.498014 540.028861 598.152540 C551.204280 603.135486 562.379699 608.118433 573.555119 613.101379 C561.775759 610.713153 549.996398 608.324928 538.217038 605.936702 C542.390580 608.689070 546.564122 611.441438 550.737664 614.193806 C546.551107 614.794420 542.364550 615.395033 538.177993 615.995647 C547.317924 618.948859 557.216938 619.517932 566.635085 617.631586 C558.512681 620.292164 550.390276 622.952741 542.267872 625.613319 C547.496836 629.795131 552.725801 633.976944 557.954765 638.158757 C548.241963 642.219534 540.316781 650.369267 536.528892 660.191708 C532.009673 659.715719 527.490454 659.239729 522.971235 658.763740 C526.138916 661.761677 529.306597 664.759614 532.474278 667.757551 C525.770838 665.528027 518.320225 665.616874 511.671857 668.005616 C529.563743 672.114265 547.455628 676.222914 565.347514 680.331563 C561.828853 681.887359 558.310192 683.443154 554.791530 684.998950 C572.176530 685.938176 588.500097 697.778384 594.791096 714.012412 C601.082096 730.246440 596.999559 749.994409 584.787172 762.403194 C587.001232 748.241691 589.215292 734.080187 591.429351 719.918683 C586.205040 723.617129 584.359763 712.880651 583.257865 706.575276 C581.611329 697.153326 570.817650 692.803944 561.572849 690.350806 C513.796072 677.673082 464.518249 670.662091 415.101435 669.511620 C411.102090 669.418511 406.728322 669.487279 403.642389 672.032951 C400.993938 674.217732 399.921355 677.729356 398.981490 681.031509 C386.271028 725.688906 373.560566 770.346304 360.850103 815.003701 C356.156471 831.494479 324.789916 821.714044 317.587290 837.273548 C334.077002 786.377775 350.566713 735.482002 367.056425 684.586229 C353.681595 732.079696 340.306766 779.573163 326.931937 827.066629 C344.263233 775.160946 361.594529 723.255263 378.925825 671.349580 C386.239913 649.444539 393.603675 627.312431 395.858322 604.328887 C399.353434 568.700222 390.406947 532.810404 393.001583 497.104866 C394.857213 471.569006 402.581446 446.792475 412.135644 423.038721 C421.885905 398.797514 433.596288 375.345022 447.114902 352.985442 C452.229025 344.526759 458.100725 335.781308 467.129148 331.757486 C478.438348 326.717159 491.449653 330.358683 503.745666 331.811599 C516.041679 333.264515 531.118275 330.766578 536.018424 319.395939 C546.075887 296.057913 580.990381 288.494788 599.804006 305.578803 C609.131003 279.913270 610.123636 252.085833 611.017313 224.792724 C612.962993 165.371132 614.908673 105.949541 616.854353 46.527949 C617.255289 34.283240 617.928577 21.210997 625.163709 11.324313 C637.393268 -5.387173 667.413736 -3.177048 677.064089 15.145250 C680.777645 22.195857 681.601907 30.363142 682.285902 38.302519 C689.106306 117.469415 688.638204 197.262724 680.889446 276.344151 C680.032811 285.086691 679.257548 294.593393 683.996972 301.989588 C688.736396 309.385782 701.429107 311.831349 705.858371 304.245345 C698.095354 311.599041 684.636316 300.146637 686.416300 289.602771 C688.196285 279.058905 698.015799 272.077591 707.010005 266.294365 C723.501015 255.690737 744.146190 244.779560 761.592521 253.724717 C776.860852 261.553162 781.645041 280.881787 783.207987 297.968733 C788.093428 351.378966 777.367258 406.124295 752.687588 453.741880 C766.870861 424.112914 781.336167 390.445195 770.231034 359.530524 C768.320919 386.301157 750.870228 411.401148 726.440978 422.515423 C722.969799 411.512649 734.036359 401.816377 743.519863 395.245742 C753.003368 388.675106 763.417326 377.723403 758.431665 367.318919 C742.473205 385.155898 721.347445 398.315037 698.301499 404.773724 C703.757023 429.318025 706.420686 454.481753 706.224674 479.624287 C699.154941 474.788502 692.085208 469.952717 685.015475 465.116932 C690.622453 466.815889 696.229430 468.514846 701.836408 470.213803 C697.313852 463.246936 690.537082 457.768976 682.776998 454.807245 C687.184008 454.482701 685.509656 461.800635 682.265920 464.801509 C676.780331 461.245661 671.294735 457.689808 665.809139 454.133955 C669.319908 453.072062 673.082854 452.854251 676.692697 453.503982 C668.648358 449.239081 660.355241 445.443477 651.869552 442.142895 C650.129425 446.249099 648.973251 451.874843 652.619736 454.442353 C656.266221 457.009862 660.327106 448.343584 655.904232 448.915548 C659.900443 448.684990 663.800411 451.875779 664.365860 455.838497 C656.474919 458.700916 647.183427 457.326902 640.458685 452.303134 C643.508692 455.727107 646.558700 459.151081 649.608708 462.575054 C643.824486 458.726780 634.738013 465.387349 636.667003 472.061585 C642.836830 476.352909 650.490700 478.465523 657.988233 477.946651 C652.208280 475.727550 647.030672 471.961092 643.139801 467.145142 C652.135344 467.155749 661.125603 468.912674 669.463317 472.289423 C662.611916 480.244105 661.169707 492.429964 665.974943 501.764222 C656.789092 493.202397 647.603240 484.640573 638.417388 476.078749 C641.647801 486.400324 649.381313 495.224730 659.189848 499.781386 C655.070817 504.845295 646.628601 505.571931 641.704842 501.286351 C643.533282 498.630161 646.808146 497.039908 650.026260 497.245526 C646.009606 494.301184 641.992953 491.356843 637.976299 488.412502 C636.478195 495.947005 637.007430 506.630965 644.600416 507.796987 C643.208441 512.342767 635.744788 513.135872 633.428595 508.984130 C634.013035 514.268114 634.597476 519.552098 635.181917 524.836082 C633.467402 529.018415 628.492825 531.566322 624.096999 530.513619 C624.372926 539.206779 617.733487 547.611285 609.212545 549.355043 C602.663591 558.655067 596.114637 567.955091 589.565683 577.255115 C588.148103 579.268188 587.485742 583.098364 589.942593 583.259248 C585.858485 583.088254 581.774377 582.917261 577.690268 582.746268 C583.420990 582.124125 581.899226 593.156288 576.139579 593.390202 C570.379933 593.624115 566.296167 588.048422 563.324219 583.109215 C566.565244 582.768583 569.806269 582.427951 573.047294 582.087319 C567.272183 579.588193 561.497072 577.089067 555.721961 574.589941 C562.325771 575.543918 568.929580 576.497895 575.533389 577.451872 C572.936269 571.407654 571.754657 564.760492 572.109629 558.191504 C571.776266 560.172127 575.280591 559.022607 576.000166 557.147451 C578.670795 550.187976 577.673928 541.935248 573.422986 535.811849 C575.719661 539.209127 581.575390 534.925581 580.606855 530.940841 C579.638320 526.956101 575.408789 524.826973 571.637894 523.215587 C576.804885 523.859357 581.833254 525.594740 586.297459 528.274873 C583.524871 525.183459 580.589971 521.692113 580.567896 517.539572 C580.545821 513.387031 585.389616 509.313364 588.814125 511.662157 C583.346473 503.668974 577.878821 495.675791 572.411170 487.682608 C577.290958 486.557111 582.654894 487.759442 586.587360 490.860215 M652.171748 413.165916 C650.767099 410.056855 651.669049 406.066828 654.274404 403.864233 C656.879760 401.661638 660.964237 401.436086 663.796274 403.338420 C663.556462 400.165859 661.480295 397.198097 658.582198 395.885202 C663.036415 395.420970 667.490632 394.956739 671.944849 394.492507 C677.732602 389.396668 681.871673 382.456904 683.604847 374.942800 C684.772569 369.880191 684.030488 363.230056 679.158875 361.424242 C677.381516 360.765409 675.348669 360.917488 673.658310 360.059729 C671.967952 359.201969 671.037872 356.473628 672.674372 355.517107 C674.508963 356.188774 676.343554 356.860442 678.178145 357.532110 C680.558776 355.749233 678.331636 352.050927 676.107215 350.076592 C671.514237 345.999991 666.921258 341.923390 662.328280 337.846790 C660.675767 339.270283 662.878906 341.683536 663.631609 343.730624 C664.628015 346.440485 662.744907 349.258299 661.247149 351.726676 C655.945099 360.464711 654.718041 371.564970 657.983538 381.250087 C657.228632 381.757751 656.279455 381.968271 655.380703 381.827374 C653.350508 385.574441 656.760788 390.321777 655.465386 394.381843 C653.914165 399.243701 646.296415 401.200433 646.643073 406.291974 C646.846705 409.282820 650.011778 411.849125 649.173749 414.727377 C650.173082 414.206890 651.172415 413.686403 652.171748 413.165916 M335.974699 821.343147 C337.042595 822.805169 339.106170 820.752477 339.659381 819.028566 C352.531156 778.917408 365.402932 738.806251 378.274708 698.695094 C381.042051 690.071473 383.917712 681.240730 389.544218 674.143726 C384.595623 672.272320 380.703768 678.560181 379.122176 683.608881 C364.739687 729.520304 350.357193 775.431726 335.974699 821.343147 M675.508563 88.609961 C677.086080 88.556163 679.255465 87.771355 678.844910 86.247250 C677.931993 85.549069 677.019078 84.850889 676.106162 84.152708 C673.819228 80.229555 680.318382 76.254900 680.015181 71.723976 C679.595303 65.449463 679.175424 59.174950 678.755546 52.900437 C678.675906 51.710329 678.559135 50.426658 677.772676 49.529897 C676.986217 48.633135 675.275213 48.499658 674.743331 49.567272 C673.349163 52.365697 668.574043 46.838496 666.312034 48.996784 C665.971856 52.473123 668.453154 56.010505 671.837637 56.874178 C676.063798 57.952636 677.552558 64.407232 674.225712 67.227800 C672.992250 68.273555 672.086846 69.644943 671.198831 70.996409 C668.813746 74.626278 666.428658 78.256146 664.043570 81.886013 C660.951422 86.591956 651.662928 84.212737 649.699154 89.490130 C658.302291 89.196740 666.905427 88.903350 675.508563 88.609961 M680.767043 208.250660 C680.228782 207.659491 679.690520 207.068322 679.152258 206.477152 C683.625385 197.684675 684.638737 187.188503 681.930288 177.702681 C680.235905 171.768429 676.558627 165.769999 670.632938 164.045906 C672.804592 169.901425 674.976246 175.756944 677.147900 181.612463 C679.262382 187.313826 681.340305 193.852525 678.518877 199.239186 C675.892783 204.252915 669.814210 206.449797 664.168479 206.849253 C658.522747 207.248709 652.814699 206.303577 647.207278 207.072130 C645.827385 207.261258 644.155506 208.944206 645.376385 209.614525 C656.051724 210.489695 666.727060 211.364863 677.402395 212.240032 C676.429136 213.321556 675.864728 214.762503 675.844516 216.217329 C676.904284 217.435616 678.789982 217.846824 680.260751 217.180362 C678.590838 214.480082 678.802614 210.744882 680.767043 208.250660 M345.425929 812.401203 C344.634525 815.050712 344.191265 818.623083 346.627044 819.931976 C351.667351 803.677675 356.707658 787.423373 361.747966 771.169071 C363.636749 765.078004 365.547229 758.712820 364.500278 752.422152 C363.046288 753.552983 362.441767 755.434611 361.914585 757.199531 C359.899118 763.947041 357.883647 770.694549 355.868175 777.442058 C352.387427 789.095106 348.906678 800.748155 345.425929 812.401203 M670.580606 39.980944 C672.832031 32.921760 673.370107 25.322716 672.135859 18.016716 C669.172505 18.021027 668.146433 21.911190 667.970155 24.869300 C667.793877 27.827409 666.564097 31.716939 663.608240 31.506236 C665.592929 30.196294 663.905771 26.584762 661.527795 26.597565 C659.149818 26.610369 657.381943 29.015015 657.067583 31.372157 C656.927189 32.424845 657.006867 33.549639 657.555645 34.458872 C658.944568 36.760081 663.047635 37.540609 662.683421 40.203693 C662.567993 41.047705 661.961270 41.751572 661.779583 42.583842 C661.276273 44.889405 664.486341 46.572337 666.636949 45.600829 C668.787557 44.629322 669.863549 42.229228 670.580607 39.980946 M651.509298 430.335209 C650.205651 427.327634 648.301488 424.581789 645.941703 422.306613 C647.135636 420.779341 647.290124 418.516516 646.314841 416.841148 C645.779632 416.422048 645.078369 417.099689 644.757882 417.699173 C643.307346 420.412452 642.222932 423.462883 642.571451 426.519755 C642.919971 429.576628 645.016901 432.585806 648.028786 433.213884 C646.834913 435.417256 649.373573 438.499542 651.764897 437.750041 C651.182228 435.741683 650.096310 433.881431 648.633982 432.386572 C649.592420 431.702784 650.550859 431.018997 651.509298 430.335209 M675.946474 445.507598 C676.171115 443.305014 674.562262 441.269181 672.635593 440.178408 C670.708923 439.087635 668.478615 438.700983 666.352937 438.081845 C661.994438 436.812366 657.945762 434.492660 654.646438 431.374559 C653.773593 433.493584 654.783633 436.013215 656.463900 437.571686 C658.144167 439.130157 660.366479 439.939564 662.524554 440.710825 C666.998527 442.309749 671.472500 443.908674 675.946474 445.507598 M658.590257 305.329536 C658.065665 311.418424 658.452009 317.585002 659.732470 323.560801 C659.846613 324.093499 659.990955 324.664107 660.408223 325.014369 C661.675436 326.078085 663.282892 324.079885 663.574307 322.451267 C664.659178 316.388193 662.759754 309.863087 658.590258 305.329537 M585.372409 454.067619 C587.301918 455.664741 589.321918 457.308536 591.755231 457.902498 C594.188544 458.496459 597.156761 457.700252 598.255655 455.449422 C599.354549 453.198592 597.331089 449.881721 594.895225 450.465136 C591.766515 451.214494 588.577887 451.713536 585.369833 451.955924 C584.681130 452.419848 584.682578 453.605376 585.372410 454.067617 M503.354894 669.297526 C505.812744 670.524341 509.500049 671.003143 510.684109 668.524412 C505.413984 665.288125 499.648356 662.860427 493.650603 661.352215 C496.240639 664.678253 499.583102 667.414867 503.354894 669.297525 M590.246337 441.818045 C589.402793 441.878990 588.523468 442.039000 587.864393 442.569001 C586.983641 443.277265 586.692211 444.624036 587.201357 445.633061 C592.325108 446.028315 597.417855 446.824797 602.417619 448.012814 C599.888296 443.952206 595.017833 441.473306 590.246337 441.818046 M668.276846 185.696611 C666.823695 186.623202 665.042955 187.024035 663.332934 186.809454 C662.831146 187.663484 662.671363 188.712245 662.896057 189.676959 C667.550737 189.251056 672.205417 188.825153 676.860098 188.399250 C676.528865 184.770856 670.893849 183.169843 668.704313 186.082039 M658.623186 193.711400 C653.744422 192.486768 648.608052 192.298901 643.652860 193.163848 C642.607208 193.346370 641.266804 194.328891 641.953908 195.137958 C647.410644 196.856841 653.537866 196.332472 658.623186 193.711400 M585.545934 519.775512 C586.820149 520.892886 588.261380 522.075294 589.955995 522.054508 C591.650609 522.033721 593.267511 520.002781 592.258138 518.641416 C591.929313 518.197922 591.414186 517.939158 590.918440 517.696160 C588.285949 516.405803 584.865746 515.200493 582.676688 517.150633 C583.455937 518.116587 584.235189 519.082542 585.014441 520.048497 M513.270749 662.133194 C515.320449 662.693394 517.370150 663.253594 519.419850 663.813794 C519.923836 662.713655 520.078254 661.456486 519.855495 660.267080 C516.833440 658.953711 513.599492 658.129357 510.317485 657.835777 C509.028917 659.599252 511.283155 662.499264 513.310020 661.685586 M624.651015 28.083168 C626.013900 26.750235 625.030846 23.959617 623.133440 23.775190 C622.586297 28.371584 623.355059 33.117188 625.325320 37.305775 C627.098950 34.700184 626.759769 30.861931 624.556688 28.607757 M654.318435 175.670716 C652.615698 176.110466 651.221765 177.575271 650.866929 179.297706 C653.437191 180.256699 656.007457 181.215692 658.577723 182.174684 C658.342583 179.556106 656.644705 177.117243 654.270558 175.987790 M658.426304 95.610447 C661.412895 96.694800 665.018660 95.779402 667.126353 93.401760 C663.194788 92.088101 658.571119 93.138183 655.592657 96.021179 C656.186216 96.910730 657.765319 96.811053 658.242309 95.853929 M496.345853 484.702298 C494.700218 484.840152 493.435662 486.695889 493.909328 488.277900 C495.435662 489.493575 497.460634 490.062739 499.396810 489.820282 C499.912242 488.740221 500.068056 487.492223 499.833999 486.318587 C498.672679 485.817618 497.511358 485.316650 496.350037 484.815682 M637.100984 181.096703 C638.319757 180.994233 639.574747 180.881703 640.661491 180.320548 C641.491443 179.891991 642.248496 178.936946 641.858153 178.088351 C638.097489 177.561602 634.121515 178.890746 631.433665 181.573191 C633.322772 181.414362 635.211878 181.255532 637.100984 181.096702 M665.913280 284.288295 C665.180085 286.566535 668.473064 288.835602 670.340854 287.339168 C670.895379 284.738925 668.936861 281.878508 666.312072 281.455125 C666.107015 282.392669 665.901958 283.330212 665.696901 284.267755 M698.307187 458.885708 C699.561644 460.093202 701.697791 460.240285 703.105908 459.216121 C702.028310 456.991443 699.761532 455.387812 697.305013 455.112275 C696.471786 455.506794 695.898083 456.397538 695.883510 457.319329 C696.461470 458.117288 697.375909 458.663003 698.352598 458.792820 M677.135994 36.697418 C675.502036 39.136939 675.252622 42.440883 676.501831 45.098054 C679.353995 43.679324 679.703514 39.006618 677.094148 37.179361 M627.890043 517.103501 C628.804058 518.051663 630.561994 516.976897 630.688511 515.666009 C630.815029 514.355121 629.959745 513.174395 629.148933 512.136600 C627.837977 511.826166 626.368661 512.806452 626.151927 514.136117 C625.935193 515.465782 627.017155 516.861923 628.358838 516.983868 M671.007416 59.433163 C669.682112 61.274575 669.414026 63.825468 670.327555 65.902170 C673.098724 64.936194 673.604112 60.437779 671.116370 58.880974 M656.982312 185.347683 C657.022912 184.091507 655.277343 183.375677 654.192454 184.010219 C653.107565 184.644760 652.722088 186.062214 652.843294 187.313188 C654.260838 188.497953 656.859212 187.167586 656.726700 185.324885 M630.405281 525.494771 C631.031061 523.221890 626.652630 522.076135 626.084894 524.364205 C626.717934 525.732603 628.683303 526.260352 629.916663 525.393127 M507.240019 656.828000 C507.931555 657.623287 508.647872 655.775780 507.995474 654.948084 C506.771928 653.395790 504.583435 652.678459 502.678408 653.205290 C504.190557 654.461277 505.702707 655.717264 507.214856 656.973250 M681.528799 447.440458 C682.255086 448.918033 684.448167 449.405096 685.731635 448.373869 C685.272879 447.533260 684.814121 446.692649 684.355362 445.852039 C683.229363 445.642336 681.489787 446.241996 682.002693 447.266094 M665.493107 300.773524 C665.692790 301.746464 667.192789 302.102405 667.808314 301.322908 C668.567304 299.925725 666.773973 298.555167 665.298082 297.963626 C664.630707 298.786743 664.641094 300.084402 665.321558 300.896729 M604.336911 426.701260 C603.530487 426.831780 602.724064 426.962299 601.917640 427.092819 C602.394239 427.992422 602.870839 428.892026 603.347438 429.791631 C604.289292 430.029423 605.336005 429.808000 606.100877 429.209163 C605.573274 428.377705 605.045672 427.546249 604.518070 426.714792 M665.346733 430.703281 C664.549487 430.830289 663.752242 430.957298 662.954996 431.084306 C664.865959 432.615657 667.542436 433.137348 669.888632 432.435788 C668.377284 431.893500 666.865936 431.351211 665.354588 430.808922 M678.529908 435.449015 C679.275379 436.937428 681.504036 437.404262 682.784181 436.340150 C682.068796 434.960197 680.116386 434.402109 678.779754 435.195504 M604.797661 437.911440 C605.000989 436.073376 602.098463 434.915645 600.980939 436.389063 C601.665500 437.490093 603.086208 438.076448 604.348058 437.778743 M597.035424 546.042415 C597.940366 547.071702 599.676062 547.223592 600.746025 546.367129 C600.328830 544.993426 598.164120 544.625320 597.316310 545.783911 M503.982753 390.252838 C504.233469 391.429178 506.288931 391.501407 506.621601 390.345568 C506.515589 388.880887 503.818731 388.829085 503.656548 390.288614 M661.729075 75.378941 C661.300271 74.452996 659.543253 75.405031 660.084792 76.269891 C660.543976 77.536779 662.921066 76.137991 662.036544 75.121389 M674.857134 159.266701 C675.580384 159.976682 676.830230 160.062278 677.643518 159.457526 C677.619606 157.963909 674.872471 157.778100 674.647645 159.254895 z"/><path class="selected"  fill="#000000" opacity="1.000000" stroke="none" 
 	d="
M451.484633 744.762507 C456.452248 724.395918 461.419862 704.029329 466.387477 683.662741 C466.850837 681.763025 467.498484 679.626165 469.262275 678.781970 C470.450670 678.213174 471.845423 678.397644 473.148132 678.594518 C480.567157 679.715734 487.986181 680.836949 495.405206 681.958164 C496.175568 685.342168 495.393469 689.047732 493.321273 691.831783 C494.441629 685.372627 485.474503 682.566687 478.920030 682.445108 C476.373843 682.397877 473.398702 682.556375 471.937812 684.642303 C470.792950 686.276987 471.054397 688.470573 471.306720 690.450279 C473.513337 707.763073 471.236209 725.628189 464.757254 741.833900 C461.421256 743.059988 458.085259 744.286075 454.749262 745.512163 C461.635183 747.085120 468.140570 750.298733 473.574220 754.811553 C483.623590 755.374897 488.580862 742.993858 490.529447 733.119133 C493.178615 719.694106 495.827782 706.269080 498.476950 692.844054 C499.652298 686.887816 506.318302 683.333564 512.385610 683.548005 C518.452918 683.762447 524.020612 686.778030 529.331642 689.719318 C528.740819 691.819020 528.149996 693.918722 527.559173 696.018424 C525.933537 690.687758 519.352965 689.010403 513.839002 688.201139 C510.664147 687.735178 507.187894 687.325753 504.451938 689.002466 C501.715983 690.679179 500.824982 695.370945 503.633026 696.923912 C511.396993 698.186126 519.160960 699.448338 526.924927 700.710551 C519.313777 745.483607 510.663295 790.079979 500.982796 834.451638 C500.596708 836.221317 500.103490 838.155884 498.623511 839.200151 C497.373112 840.082426 495.727643 840.098875 494.197820 840.059526 C487.336865 839.883055 480.487415 839.260576 473.707051 838.197323 C472.276077 837.972927 470.739755 837.672985 469.750056 836.615376 C468.290679 835.055859 468.631062 832.594254 469.066294 830.503214 C473.655300 808.455659 478.244306 786.408104 482.833313 764.360549 C484.958691 754.149324 503.455304 756.201607 506.701379 746.289526 C495.791939 750.625882 484.882499 754.962238 473.973058 759.298595 C470.900069 760.520067 467.579958 761.762682 464.365558 760.986221 C461.151159 760.209760 458.492581 756.436333 460.113496 753.553992 C458.439978 752.243251 456.172624 751.723662 454.095337 752.174866 C456.467355 757.946348 458.839372 763.717830 461.211389 769.489312 C467.169628 767.024840 473.127867 764.560368 479.086106 762.095896 C473.652898 786.610328 468.219690 811.124759 462.786482 835.639191 C431.517487 831.911558 400.248493 828.183925 368.979498 824.456292 C367.289340 824.254805 365.401573 823.942699 364.399553 822.566766 C363.293141 821.047485 363.764286 818.940550 364.281860 817.133763 C377.155103 772.194906 390.028345 727.256049 402.901587 682.317192 C404.448759 676.916211 410.146314 673.550563 415.735624 672.981392 C421.324933 672.412221 426.875165 674.065937 432.250207 675.700948 C418.285212 724.665770 404.307398 773.682207 393.914534 823.527601 C408.888866 774.359720 422.492051 724.774258 434.702953 674.848262 C444.304683 674.663224 453.931944 675.857974 463.197178 678.384416 C458.428893 699.082129 453.660608 719.779843 448.892324 740.477557 C448.397038 742.627445 449.743523 746.117448 451.484633 744.762507 M437.208641 827.933457 C444.108478 830.086384 451.264968 831.415488 458.477717 831.883553 C460.956558 832.044415 462.393290 829.099250 462.709934 826.635460 C463.026578 824.171669 463.126952 821.275829 465.164704 819.855232 C458.423515 816.319462 450.588178 815.686984 442.997008 815.121804 C440.995102 814.972757 438.024941 816.270784 439.116875 817.955278 C441.151093 821.093391 440.257234 825.767386 437.208641 827.933457 M448.314563 749.398234 C446.343900 750.588370 445.624798 753.048067 445.066403 755.281480 C439.224882 778.645978 433.383358 802.010474 427.541833 825.374970 C427.253728 826.527311 427.059257 827.974429 428.001332 828.697885 C429.614472 829.936680 431.437061 827.411438 431.916237 825.434768 C437.250996 803.428104 442.585755 781.421440 447.920514 759.414775 C448.720341 756.115372 449.508987 752.576148 448.314563 749.398234 M472.890246 832.373660 C475.424091 833.546420 478.772371 832.469293 480.147174 830.039139 C483.969322 831.690972 487.791470 833.342806 491.613617 834.994639 C493.175774 835.669763 494.880086 836.358836 496.531722 835.948684 C498.183357 835.538531 499.475834 833.462973 498.477870 832.084499 C497.852267 831.220362 496.680533 831.018172 495.658262 830.713101 C491.945996 829.605278 489.266469 826.477412 486.211615 824.094966 C483.156762 821.712519 478.755578 820.033330 475.516058 822.157875 C473.737656 825.241318 472.819140 828.814830 472.890246 832.373660 M465.944073 800.656284 C463.172331 801.353762 460.576880 798.641898 459.943402 795.854831 C459.309923 793.067765 459.923656 790.157553 459.756866 787.304272 C459.590076 784.450991 458.222258 781.259752 455.452111 780.555963 C456.066908 789.761846 454.335779 799.114924 450.466811 807.490923 C449.487300 809.611483 451.450492 812.280699 453.779598 812.458121 C456.108705 812.635543 458.264349 810.838108 459.090719 808.653313 C459.917088 806.468518 459.644473 804.012447 458.995909 801.768437 C461.098318 803.316801 464.429996 802.783518 465.944071 800.656282 M501.101870 701.754603 C499.270810 705.021219 499.495409 709.331889 501.656034 712.390526 C503.110522 711.298915 503.128661 708.784776 501.690076 707.672292 C508.023307 706.966010 514.497912 707.552463 520.601163 709.385210 C522.201270 709.865707 523.360043 707.424569 522.491307 705.997502 C521.622571 704.570436 519.817871 704.084202 518.187754 703.718229 C513.569890 702.681485 508.952028 701.644742 504.334165 700.607998 C503.568531 700.436108 502.717259 700.275848 502.038858 700.670201 C501.620748 700.913252 501.338342 701.332738 501.101869 701.754602 M490.903174 747.007728 C494.243133 745.697679 497.583092 744.387631 500.923050 743.077582 C503.370912 742.117444 505.818775 741.157307 508.266637 740.197170 C502.011657 736.991416 493.310635 740.404260 490.903171 747.007725 M464.889235 777.285020 C465.319113 778.122966 466.289455 778.649598 467.226310 778.553417 C469.843822 777.349276 471.991665 775.155905 473.140644 772.513715 C470.783753 771.660403 468.426862 770.807092 466.069972 769.953780 C467.393054 772.379148 467.091393 775.593842 465.340197 777.730725 M456.850697 774.311475 C456.446386 775.809757 457.838250 777.494804 459.385926 777.380727 C461.518327 777.676161 463.235914 774.711302 461.918873 773.008419 C460.601833 771.305536 457.300369 772.222503 457.050166 774.360681 M466.760862 790.109037 C467.156944 789.517994 467.553027 788.926951 467.949109 788.335909 C466.587005 787.044224 465.793770 785.172761 465.812767 783.295684 C465.033676 782.832261 464.090435 782.651525 463.195221 782.794132 C462.561933 785.524969 463.816866 788.590671 466.183235 790.093613 M497.832065 826.345959 C497.033958 825.615294 495.691721 825.580421 494.856750 826.268658 C495.699311 827.471891 496.940003 828.391287 498.336373 828.847179 C499.000369 828.128487 498.722243 826.782167 497.827817 826.385418 z"/><path class="selected"  fill="#000000" opacity="1.000000" stroke="none" 
 	d="
M474.594148 718.472476 C476.883052 714.911801 479.171956 711.351126 481.460861 707.790450 C484.308713 708.321346 487.265312 706.403372 488.421275 703.747085 C489.577237 701.090799 489.136779 697.929602 487.775412 695.372497 C489.300947 694.859703 490.826482 694.346909 492.352018 693.834115 C493.502691 695.017163 493.234534 696.931841 492.887449 698.545279 C489.625717 713.707560 486.363985 728.869842 483.102253 744.032124 C482.760453 745.620992 482.351351 747.327213 481.119158 748.386946 C478.493491 750.645120 474.523315 748.471821 471.812750 746.316289 C470.053354 744.917160 468.275701 742.091355 470.122599 740.809951 C471.900283 742.130551 473.677965 743.451152 475.455647 744.771753 C474.847092 742.447289 474.238538 740.122825 473.629983 737.798360 C472.751608 734.443278 471.883617 730.824099 473.119203 727.583505 C474.354790 724.342912 478.666902 722.100178 481.418478 724.211326 C481.936210 720.694343 477.970207 717.359174 474.594148 718.472476 M479.909003 733.683499 C480.625649 731.095879 478.639081 728.107376 475.975778 727.766533 C476.023691 730.000112 476.831329 732.210566 478.234646 733.948918 C478.320255 735.083325 480.457133 735.003976 480.458372 733.866344 z"/><path class="selected"  fill="#000000" opacity="1.000000" stroke="none" 
 	d="
M610.343917 714.168815 C611.968520 714.722920 613.841698 715.110411 614.802176 716.533031 C621.841283 726.959064 629.187777 737.177562 636.828899 747.170782 C634.679682 748.531492 632.202970 746.056455 630.800855 743.934019 C625.117190 735.330414 618.252577 727.508101 610.459930 720.755272 C606.417345 717.252113 601.690110 713.056799 602.264134 707.738423 C604.114306 710.722078 607.021126 713.035505 610.343917 714.168815 z"/><path class="selected"  fill="#000000" opacity="1.000000" stroke="none" 
 	d="
M663.378305 460.491726 C664.282593 459.467800 666.025212 460.181155 666.901180 461.229412 C667.777148 462.277668 668.399244 463.659118 669.656781 464.192751 C672.231107 465.285166 676.397920 462.529717 677.415023 465.134719 C680.022535 471.813084 692.177732 471.050388 693.553597 478.086486 C685.833359 474.704656 677.619073 472.453154 669.253450 471.425915 C666.451847 468.326219 664.416785 464.538781 663.378305 460.491726 z"/><path class="selected"  fill="#000000" opacity="1.000000" stroke="none" 
 	d="
M354.781378 831.661661 C348.771172 833.636528 342.584027 835.072562 336.318393 835.946915 C340.530519 829.157192 349.901819 828.318291 357.891313 828.216595 C358.422788 829.860277 356.422524 831.122405 354.781379 831.661664 z"/><path class="selected"  fill="#000000" opacity="1.000000" stroke="none" 
 	d="
M694.082132 477.553410 C697.181901 478.302419 700.052436 480.376486 701.265131 483.325886 C701.900025 484.870009 702.062965 486.604529 701.726751 488.239878 C697.515846 486.394698 694.468360 482.134595 694.082132 477.553410 z"/><path class="selected"  fill="#000000" opacity="1.000000" stroke="none" 
 	d="
M575.983563 772.320818 C576.181213 771.105083 576.411779 769.817846 577.232031 768.899007 C578.052284 767.980169 579.677821 767.671310 580.480691 768.605375 C581.364383 769.633467 580.690423 771.202678 579.994025 772.365827 C578.859433 774.260860 577.724843 776.155891 576.590252 778.050923 C575.756008 776.281943 575.510063 774.241507 575.900070 772.324962 z"/><path class="selected"  fill="#000000" opacity="1.000000" stroke="none" 
 	d="
M579.606163 758.548104 C580.534522 759.697679 579.643834 761.750291 578.170106 761.857531 C578.060250 758.862280 577.950393 755.867030 577.840537 752.871780 C577.813558 752.136210 577.804512 751.338468 578.238221 750.743752 C579.306621 749.278726 581.906534 750.720042 581.993044 752.531201 C582.079555 754.342360 580.722987 755.862665 579.456158 757.159941 z"/><path class="selected"  fill="#000000" opacity="1.000000" stroke="none" 
 	d="
M571.619449 507.672902 C573.753702 506.207334 576.807516 506.240871 578.909068 507.752957 C580.120501 508.624592 581.038978 510.071488 580.841807 511.550826 C577.405489 511.645026 573.955852 510.194482 571.619449 507.672902 z"/><path class="selected"  fill="#000000" opacity="1.000000" stroke="none" 
 	d="
M552.013723 653.810829 C550.970024 653.749721 549.761647 653.594981 549.215967 652.703198 C548.930495 652.236659 548.902719 651.622940 549.144882 651.132523 C553.433543 650.496748 557.963050 651.691253 561.380452 654.359241 C558.258209 654.176436 555.135966 653.993632 552.013723 653.810828 z"/><path class="selected"  fill="#000000" opacity="1.000000" stroke="none" 
 	d="
M579.297684 628.991875 C580.656742 628.659573 580.071298 631.213907 578.740372 631.645299 C576.257938 632.449921 573.316086 631.539513 571.722067 629.473359 C574.252288 629.156915 576.782510 628.840472 579.312732 628.524030 z"/><path class="selected"  fill="#000000" opacity="1.000000" stroke="none" 
 	d="
M745.426573 474.953954 C744.057991 471.361802 745.283186 466.946224 748.307030 464.572842 C748.431120 468.218011 747.411172 471.893885 745.426574 474.953955 z"/><path class="selected"  fill="#000000" opacity="1.000000" stroke="none" 
 	d="
M566.834767 501.144132 C565.858095 501.144156 564.936791 500.376072 564.761101 499.415332 C567.713805 497.806841 571.926603 499.411502 573.060976 502.576764 C570.937578 502.698222 568.782942 502.215490 566.914346 501.199654 z"/><path class="selected"  fill="#000000" opacity="1.000000" stroke="none" 
 	d="
M581.850818 469.316255 C583.187921 470.325208 584.525024 471.334162 585.862127 472.343116 C583.145119 473.425463 579.776943 472.569113 577.906821 470.320501 C578.644554 468.953394 580.587159 468.409286 581.927685 469.194289 z"/><path class="selected"  fill="#000000" opacity="1.000000" stroke="none" 
 	d="
M582.850108 730.315751 C582.850706 729.316041 582.851305 728.316330 582.851904 727.316619 C583.492137 726.797944 584.418304 726.658622 585.182798 726.965984 C585.873299 728.036959 586.588760 729.190024 586.575917 730.464236 C586.563074 731.738448 585.466777 733.080270 584.214840 732.842713 C583.708735 732.031727 583.202631 731.220741 582.696527 730.409754 z"/><path class="selected"  fill="#000000" opacity="1.000000" stroke="none" 
 	d="
M552.344104 672.638585 C550.538957 672.677160 548.737300 671.804900 547.647958 670.364976 C550.419679 669.170573 553.934434 670.027461 555.845443 672.363497 C554.779371 672.896055 553.522972 673.037009 552.365392 672.753920 z"/><path class="selected"  fill="#000000" opacity="1.000000" stroke="none" 
 	d="
M654.834625 509.365830 C656.256847 510.315954 657.375164 511.713817 657.989957 513.309900 C656.688434 514.110653 654.802033 513.750690 653.886828 512.526942 C652.971623 511.303195 653.159465 509.391965 654.295405 508.369812 z"/><path class="selected"  fill="#000000" opacity="1.000000" stroke="none" 
 	d="
M568.289622 530.831854 C570.349273 530.516824 572.913571 532.904446 571.399536 534.335916 C570.111481 534.319289 568.685154 534.247849 567.767981 533.343331 C566.850808 532.438813 567.138203 530.434466 568.423514 530.348838 z"/><path class="selected"  fill="#000000" opacity="1.000000" stroke="none" 
 	d="
M701.846150 487.989929 C704.563724 488.092941 707.217669 489.361165 709.004986 491.410877 C706.247484 492.483945 702.750350 490.646472 702.069653 487.766902 z"/><path class="selected"  fill="#000000" opacity="1.000000" stroke="none" 
 	d="
M581.849500 742.315128 C582.512629 742.978028 583.175758 743.640929 583.838887 744.303830 C583.006983 745.477454 581.783354 746.368275 580.410928 746.799440 C579.929510 745.789601 579.435398 744.694565 579.634269 743.593666 C579.833140 742.492766 581.074349 741.528219 582.067350 742.043465 z"/><path class="selected"  fill="#000000" opacity="1.000000" stroke="none" 
 	d="
M610.451982 692.656891 C609.429971 692.463875 608.782143 691.183692 609.231910 690.245892 C611.806028 690.224656 614.362696 691.441402 615.969634 693.452445 C614.090857 693.732324 612.135176 693.475606 610.392284 692.720320 z"/><path class="selected"  fill="#000000" opacity="1.000000" stroke="none" 
 	d="
M556.408572 631.668549 C557.902337 632.121196 559.184100 633.230596 559.846307 634.643997 C556.666937 634.776474 553.575569 632.339909 552.961585 629.217578 C554.346565 629.651118 555.564712 630.597099 556.327685 631.831602 z"/><path class="selected"  fill="#000000" opacity="1.000000" stroke="none" 
 	d="
M576.476429 637.396978 C577.933505 637.889573 579.390581 638.382168 580.847657 638.874763 C579.827624 639.918770 578.589206 641.046574 577.138042 640.889899 C575.686879 640.733224 574.883513 638.323201 576.268848 637.863561 z"/><path class="selected"  fill="#000000" opacity="1.000000" stroke="none" 
 	d="
M382.415468 535.768293 C382.039487 537.001279 379.875579 536.099680 379.959017 534.813346 C380.042455 533.527012 381.279217 532.669801 382.387548 532.011607 C383.928814 532.532769 383.850240 535.243298 382.281371 535.674307 z"/><path class="selected"  fill="#000000" opacity="1.000000" stroke="none" 
 	d="
M737.358101 224.813471 C736.242803 225.277310 735.693147 223.454968 735.868713 222.259889 C736.959985 221.752033 738.212851 221.598635 739.394416 221.828209 C740.161356 223.122786 738.825485 225.047757 737.344390 224.782267 z"/><path class="selected"  fill="#000000" opacity="1.000000" stroke="none" 
 	d="
M678.364049 474.868320 C679.194667 474.617753 680.138077 474.774987 680.842532 475.281400 C681.063898 476.117260 680.886274 477.049608 680.373085 477.745526 C678.835114 478.608355 676.976215 475.915739 678.382052 474.851104 z"/><path class="selected"  fill="#000000" opacity="1.000000" stroke="none" 
 	d="
M478.764669 705.622808 C477.918337 705.278185 478.328879 703.827479 479.210691 703.587793 C480.092503 703.348107 480.986457 703.857779 481.758524 704.346609 C482.067858 705.259253 481.863144 706.327837 481.238412 707.061535 C480.408147 706.535402 479.577881 706.009267 478.747615 705.483132 z"/><path class="selected"  fill="#000000" opacity="1.000000" stroke="none" 
 	d="
M660.395441 505.662179 C661.792443 506.115356 663.021989 507.067152 663.810789 508.306013 C662.307621 509.687418 659.412682 507.632111 660.221168 505.757503 z"/><path class="selected"  fill="#000000" opacity="1.000000" stroke="none" 
 	d="
M591.655516 692.851267 C590.245568 693.476097 588.391951 692.741651 587.792595 691.320687 C588.414860 692.092680 589.602533 691.960543 590.579707 691.792254 C591.556881 691.623965 592.784735 691.601358 593.285515 692.457167 C593.786295 693.312976 592.081744 694.381476 591.900053 693.406706 z"/><path class="selected"  fill="#000000" opacity="1.000000" stroke="none" 
 	d="
M614.873378 546.853391 C616.215150 545.814751 618.524343 546.638680 618.905580 548.292096 C617.588605 549.395875 615.195908 548.511288 614.913655 546.816267 z"/><path class="selected"  fill="#000000" opacity="1.000000" stroke="none" 
 	d="
M748.373364 480.736129 C747.257490 480.980335 745.465164 480.383207 746.059578 479.407767 C746.757948 478.021069 749.367218 479.641097 748.434140 480.882065 z"/><path class="selected"  fill="#000000" opacity="1.000000" stroke="none" 
 	d="
M749.914435 460.295270 C749.919138 461.273794 749.301767 462.227769 748.407181 462.624313 C747.045544 461.879063 748.672636 459.310002 749.928380 460.222444 z"/><path class="selected"  fill="#000000" opacity="1.000000" stroke="none" 
 	d="
M667.951938 383.447026 C669.002232 382.204374 671.382020 382.657149 671.902600 384.198674 C670.718840 385.390348 668.376605 384.974893 667.674910 383.448786 z"/></svg>