<svg xmlns="http://www.w3.org/2000/svg" viewBox="0 0 160 160">
  <defs>
    <clipPath id="a">
      <path d="M0 0h160v160H0z"/>
    </clipPath>
  </defs>
  <g clip-path="url(#a)">
    <path d="M46.937 112.139l-.723.765a10.487 10.487 0 0 0 1.052-.1 20.01 20.01 0 0 0 2.858-.67 30.145 30.145 0 0 0 4.164-1.655c5.921-3.01 11.065-7.567 16.047-11.9a162.186 162.186 0 0 0 17.113-17.6 241.551 241.551 0 0 0 21.13-28.989c-9.641 10.953-19.19 22.014-29.59 32.26a199.116 199.116 0 0 1-17.339 15.521c-3.174 2.468-6.4 4.876-9.473 7.469-1.261 1.064-2.325 2.065-3.21 2.891s-1.56 1.538-2.029 2.008z"/>
    <path d="M102.425 29.365c-3.023 9.88-.414 15.9-.414 15.9a18.719 18.719 0 0 1-8.471-7.556 65.2 65.2 0 0 0-6.161 8.119c-5.827 13.056-2.269 21.288-2.269 21.288a19.323 19.323 0 0 1-6.044-4.227c-5.1 11.734-9.663 21.583-13.061 28.725 7.761-6.484 15.516-12.962 22.443-20.4 7.318-7.613 14.57-15.326 21.521-23.276 1.284-1.447 2.378-2.731 3.329-3.757 1.871-2.072 2.974-3.24 2.974-3.24s-.7 1.434-1.985 3.915a235.975 235.975 0 0 1-14.461 23.96 183 183 0 0 1-26.85 31.477 129.206 129.206 0 0 0 28.71-14.576 24.008 24.008 0 0 1-4.967-1.256c-.569-.269-1.057-.5-1.45-.708-.79-.4-1.22-.646-1.22-.646l1.383.042a35.469 35.469 0 0 0 12.314-1.849 97.68 97.68 0 0 0 11.942-11 22.224 22.224 0 0 1-11.06-2.87 5.409 5.409 0 0 0 1.726.07 31.4 31.4 0 0 0 9.978-1.215 36.89 36.89 0 0 0 3.848-1.339 66.073 66.073 0 0 0 8.546-14.481q3.306-7.832 6.018-14.213a27.511 27.511 0 0 1-11.282-.388l1.791-.711c10.15-4.029 15.458-13.435 19.05-23.167.268-.724.494-1.387.7-1.987-16.832 3.291-33.425 9.014-46.578 19.366z"/>
    <path d="M110.683 85.649a2.447 2.447 0 0 0-2.447 2.447v14.828a4.512 4.512 0 0 1-3.468 4.4l-27.485 6.6a2.446 2.446 0 0 0-1.69 3.31l8.655 21.025a4.855 4.855 0 0 1-.095 3.917l-.721 1.139a4.855 4.855 0 0 1-3.77 1.793H26V27.794h71.272a2.447 2.447 0 0 0 0-4.894H23.553a2.447 2.447 0 0 0-2.447 2.447v122.2a2.447 2.447 0 0 0 2.447 2.447h56.108a9.826 9.826 0 0 0 7.264-3.214.044.044 0 0 0 .011-.013 9.877 9.877 0 0 0 .91-1.145c.119-.178.215-.367.323-.553l23.5-37.116-.034.01a9.374 9.374 0 0 0 1.493-5.049v-14.82a2.444 2.444 0 0 0-2.445-2.445z"/>
  </g>
</svg>
