<svg xmlns="http://www.w3.org/2000/svg" viewBox="0 0 160 160">
	<path d="M80 140a59.624 59.624 0 0 1-23.355-4.715 60.006 60.006 0 0 1-10.192-5.532 60.433 60.433 0 0 1-8.88-7.326 60.438 60.438 0 0 1-7.326-8.88 60 60 0 0 1-5.532-10.192A59.625 59.625 0 0 1 20 80a59.626 59.626 0 0 1 4.715-23.355 60 60 0 0 1 5.532-10.192 60.44 60.44 0 0 1 7.326-8.88 60.436 60.436 0 0 1 8.88-7.327 60.007 60.007 0 0 1 10.192-5.532A59.622 59.622 0 0 1 80 20a59.623 59.623 0 0 1 23.355 4.715 60.005 60.005 0 0 1 10.192 5.532 60.434 60.434 0 0 1 8.88 7.327 60.438 60.438 0 0 1 7.327 8.88 60 60 0 0 1 5.532 10.192A59.624 59.624 0 0 1 140 80a59.623 59.623 0 0 1-4.715 23.355 60 60 0 0 1-5.532 10.192 60.431 60.431 0 0 1-7.327 8.88 60.43 60.43 0 0 1-8.88 7.326 60.005 60.005 0 0 1-10.192 5.532A59.626 59.626 0 0 1 80 140zm-5.143-70.324a1.712 1.712 0 0 1 1.458.566c.421.549.445 1.488.075 2.871l-12.576 46.934a3.885 3.885 0 0 0 .449 3.513c1.186 1.545 3.649 1.869 5.508 1.869a22.222 22.222 0 0 0 8.018-1.637 51.981 51.981 0 0 0 10.147-6.105c2.891-2.114 6.014-4.623 9.283-7.458a2.578 2.578 0 0 0 .567-3.183 2.569 2.569 0 0 0-2.246-1.325 2.564 2.564 0 0 0-.752.113l-.1.036c-1.353.487-2.793 1.1-4.186 1.689-2.855 1.211-5.549 2.355-7.251 2.355a1.712 1.712 0 0 1-1.459-.566c-.421-.549-.445-1.488-.075-2.871l12.576-46.934a3.885 3.885 0 0 0-.449-3.513c-1.186-1.545-3.649-1.869-5.508-1.869a22.22 22.22 0 0 0-8.018 1.638A51.96 51.96 0 0 0 70.17 61.9c-2.891 2.114-6.014 4.623-9.283 7.458a2.577 2.577 0 0 0-.566 3.183 2.567 2.567 0 0 0 2.246 1.325 2.563 2.563 0 0 0 .752-.113l.1-.036c1.353-.487 2.793-1.1 4.186-1.689 2.856-1.21 5.55-2.353 7.252-2.353zm17.3-35.675a6.9 6.9 0 0 0-6.65 5.107 6.845 6.845 0 0 0 .688 5.228 6.843 6.843 0 0 0 4.183 3.21 6.935 6.935 0 0 0 1.787.236 6.9 6.9 0 0 0 6.649-5.107 6.9 6.9 0 0 0-4.871-8.437 6.908 6.908 0 0 0-1.79-.238z"/>
</svg>