<svg xmlns="http://www.w3.org/2000/svg" viewBox="0 0 160 160">
  <defs>
    <clipPath id="a">
      <path d="M0 0h160v160H0z"/>
    </clipPath>
  </defs>
  <g clip-path="url(#a)">
    <path d="M62.393 10a3.022 3.022 0 0 0-2.643 2.917V45a3.031 3.031 0 0 0 2.917 2.917H77.25a2.982 2.982 0 0 0 2.6-1.641 4.044 4.044 0 0 1 3.236-2.734c1.97.066 3.1 1.513 4.375 2.734v22.062a3.275 3.275 0 0 0-2.917 2.917v64.167a14.6 14.6 0 1 0 29.167 0V71.255a3.031 3.031 0 0 0-2.917-2.917v-20.33c10.322.253 20.036 1.952 28.711 9.388a2.917 2.917 0 0 0 4.831-2.187c0-23.69-22.037-45.208-53.958-45.208a2.951 2.951 0 0 0-2.051.82 10.275 10.275 0 0 1-5.241 3.555c-1.83-.039-2.615-1.553-3.236-2.78a2.982 2.982 0 0 0-2.6-1.6zm3.19 5.833h8.75v26.25h-8.75zm-46.94 13.125A3.022 3.022 0 0 0 16 31.875v8.663a2.943 2.943 0 0 0 .684 1.868l8.066 9.479v83.535a2.935 2.935 0 0 0 .456 1.55l7.292 11.667a3.069 3.069 0 0 0 4.922 0l7.292-11.667a2.936 2.936 0 0 0 .456-1.55V51.838l8.066-9.434a2.945 2.945 0 0 0 .684-1.868v-8.659A3.031 3.031 0 0 0 51 28.958H18.643zm3.19 5.833h26.25v2.917h-26.25zm3.509 8.75h19.232l-3.783 4.375H29.034zm65.033 30.625h17.5v5.833h-17.5zm0 11.667h17.5v5.833h-17.5zm0 11.667h17.5v5.833h-17.5zm0 11.667h17.5V115h-17.5zm0 11.667h17.5v5.833h-17.5zm0 11.667h17.5v2.917c0 3.063-.858 5.091-2.233 6.472a8.715 8.715 0 0 1-6.471 2.279c-3.1 0-5.177-.9-6.562-2.279s-2.233-3.409-2.233-6.472z"/>
  </g>
</svg>
