<svg viewBox="0 0 160 160" xmlns="http://www.w3.org/2000/svg" xmlns:xlink="http://www.w3.org/1999/xlink"><clipPath id="a"><path d="m0 0h160v160z"/></clipPath><g clip-path="url(#a)"><path d="m80 0a80 80 0 1 0 80 80 80 80 0 0 0 -80-80zm36.687 115.381a4.984 4.984 0 0 1 -6.859 1.653c-18.781-11.474-42.429-14.072-70.276-7.711a4.98747396 4.98747396 0 0 1 -2.219-9.725c30.474-6.965 56.614-3.964 77.7 8.922a4.986 4.986 0 0 1 1.654 6.861zm9.792-21.786a6.236 6.236 0 0 1 -8.579 2.059c-21.504-13.22-54.283-17.048-79.718-9.331a6.23653752 6.23653752 0 1 1 -3.624-11.935c29.053-8.815 65.172-4.545 89.867 10.63a6.235 6.235 0 0 1 2.054 8.575zm.841-22.683c-25.783-15.314-68.323-16.722-92.94-9.251a7.48219112 7.48219112 0 1 1 -4.344-14.32c28.259-8.579 75.235-6.921 104.92 10.7a7.48163734 7.48163734 0 1 1 -7.633 12.87z"/></g></svg>