<svg xmlns="http://www.w3.org/2000/svg" viewBox="0 0 160 160">
  <defs>
    <clipPath id="a">
      <path d="M0 0h160v160H0z"/>
    </clipPath>
  </defs>
  <g clip-path="url(#a)">
    <path d="M94.358 34.711a6.86 6.86 0 1 0 4.851 8.4 6.86 6.86 0 0 0-4.851-8.4zM95.203 106.011l-.1.036c-6.474 2.328-14.745 7.429-12.916.6l12.522-46.736c1.743-6.506-7.907-6.2-13.918-3.729-6.126 2.523-14.368 9.188-19.349 13.507a2.556 2.556 0 0 0 2.422 4.377l.1-.036c6.474-2.328 14.745-7.429 12.916-.6l-12.523 46.735c-1.743 6.506 7.907 6.2 13.917 3.729 6.126-2.524 14.369-9.188 19.349-13.507a2.556 2.556 0 0 0-2.42-4.376z"/>
    <path d="M80 10a70 70 0 1 0 70 70 70 70 0 0 0-70-70zm0 132.222A62.222 62.222 0 1 1 142.222 80 62.222 62.222 0 0 1 80 142.222z"/>
  </g>
</svg>
