<svg height='100px' width='100px'  fill="#000000" xmlns="http://www.w3.org/2000/svg" xmlns:xlink="http://www.w3.org/1999/xlink" version="1.1" x="0px" y="0px" viewBox="0 0 32 32" style="enable-background:new 0 0 32 32;" xml:space="preserve"><path d="M6,22c-2.209,0-4,1.791-4,4c0,2.209,1.791,4,4,4s4-1.791,4-4C10,23.791,8.209,22,6,22z M5,2  C3.343,2,2,3.343,2,5s1.343,3,3,3c10.477,0,19,8.523,19,19c0,1.657,1.343,3,3,3s3-1.343,3-3C30,13.215,18.785,2,5,2z M5,12  c-1.657,0-3,1.343-3,3s1.343,3,3,3c4.963,0,9,4.038,9,9c0,1.657,1.343,3,3,3s3-1.343,3-3C20,18.729,13.271,12,5,12z"></path></svg>