<?xml version="1.0" encoding="utf-8"?><!DOCTYPE svg PUBLIC "-//W3C//DTD SVG 1.1//EN" "http://www.w3.org/Graphics/SVG/1.1/DTD/svg11.dtd"><svg version="1.1" id="Contours" xmlns="http://www.w3.org/2000/svg" xmlns:xlink="http://www.w3.org/1999/xlink" x="0px" y="0px" width="791.525574px" height="791.525574px" viewBox="0.000005 -0.000001 791.525574 1435.151978" enable-background="new 0 0 791.525574 791.525574" xml:space="preserve" stroke="black" fill="none" stroke-linecap='round' stroke-linejoin='round'><path class="selected"  fill="#000000" opacity="1.000000" stroke="none" 
 	d="
M411.435455 449.796191 C409.499520 453.542092 407.240013 457.587706 403.302234 459.095522 C400.232710 460.270873 396.803071 459.626196 393.582961 458.967171 C298.064033 439.418368 202.545106 419.869564 107.026178 400.320760 C104.474333 399.798502 101.340295 398.643507 101.195979 396.042769 C101.138002 394.997813 101.626826 394.009359 102.102958 393.077381 C166.177297 267.659538 230.251630 142.241693 294.325963 16.823848 C295.351483 14.816515 296.493029 12.688108 298.486512 11.635920 C300.843691 10.391772 303.707940 10.993477 306.297558 11.624409 C404.466845 35.542352 502.636132 59.460290 600.805420 83.378227 C537.682098 205.517548 474.558776 327.656870 411.435455 449.796191 M494.325414 96.403237 C492.979062 97.089085 493.759676 99.410865 495.222964 99.787477 C496.686253 100.164089 498.161379 99.336056 499.446138 98.540792 C499.276464 97.685273 499.106790 96.829752 498.937115 95.974231 C497.400644 96.117909 495.864173 96.261587 494.327702 96.405266 M517.956310 75.078486 C517.581524 72.699976 514.460476 71.253337 512.403258 72.504588 C513.398484 74.408202 515.734384 75.504273 517.834548 75.053103 M482.340016 68.596888 C484.062821 70.651548 487.687381 70.633428 489.389557 68.561646 C487.105332 67.845151 484.615508 67.797981 482.305785 68.427440 M311.295316 96.690985 C312.377708 97.217768 313.850466 96.648990 314.297811 95.531423 C313.262796 94.235897 311.411804 93.658214 309.823640 94.135063 C309.047034 94.996448 310.166503 96.640370 311.252522 96.233356 M439.646710 55.171476 C440.350845 56.758112 441.520819 58.134641 442.973231 59.085284 C443.380132 57.195355 441.773261 55.139123 439.841019 55.077149 M479.673618 95.014814 C480.657114 93.979953 477.760502 93.202049 477.506898 94.606999 C477.786972 95.557653 479.249458 95.860911 479.884438 95.100005 z"/><path class="selected"  fill="#000000" opacity="1.000000" stroke="none" 
 	d="
M0.014808 1047.411438 C-0.533139 1036.128845 14.239819 1030.653341 25.416733 1032.288500 C36.593647 1033.923658 48.148544 1039.018647 58.711047 1035.014816 C59.373810 1016.862270 60.036573 998.709724 60.699335 980.557178 C60.762907 978.816001 60.897064 976.901880 62.114647 975.655593 C63.439086 974.299932 65.557280 974.220980 67.452503 974.230283 C119.042681 974.483527 170.632859 974.736771 222.223037 974.990014 C224.987303 975.003584 228.164612 975.212848 229.830410 977.418855 C231.002737 978.971362 231.051408 981.070262 231.051267 983.015675 C231.049704 1004.578393 231.048140 1026.141111 231.046577 1047.703829 C231.046208 1052.792708 237.555633 1054.801172 242.618237 1055.317637 C364.708485 1067.772635 486.798730 1080.227643 608.888975 1092.682650 C610.024235 1097.876020 611.157314 1103.304381 609.809874 1108.446784 C608.462433 1113.589187 603.793536 1118.282496 598.504036 1117.752315 C476.721647 1105.545723 354.939258 1093.339132 233.156869 1081.132540 C232.798006 1098.822164 232.439144 1116.511788 232.080281 1134.201412 C232.033052 1136.529505 231.904500 1139.074714 230.350924 1140.809259 C228.525728 1142.847064 225.445817 1143.010564 222.710169 1143.025081 C170.573658 1143.301737 118.433008 1142.798119 66.311569 1141.514453 C64.150654 1141.461233 61.778151 1141.323963 60.203948 1139.842656 C58.378043 1138.124501 58.326562 1135.289921 58.403399 1132.783913 C58.974195 1114.167626 59.544990 1095.551339 60.115786 1076.935052 C60.373256 1068.537777 51.438533 1062.571280 43.096945 1061.572054 C34.755358 1060.572828 26.299088 1062.736175 17.934036 1061.957431 C9.568985 1061.178687 0.422339 1055.802770 0.014808 1047.411438 z"/><path class="selected"  fill="#000000" opacity="1.000000" stroke="none" 
 	d="
M286.806117 1150.128081 C288.680013 1150.483171 289.993874 1152.126902 291.124190 1153.663118 C304.562313 1171.926918 316.762283 1191.101567 327.612624 1211.011857 C285.750078 1238.310067 243.887533 1265.608277 202.024987 1292.906487 C199.863628 1294.315890 197.252010 1295.782434 194.847115 1294.847357 C193.158497 1294.190785 192.117052 1292.526306 191.195144 1290.966626 C180.355310 1272.627848 169.515476 1254.289070 158.675641 1235.950292 C158.018490 1234.838526 157.336191 1233.593417 157.587595 1232.326662 C157.865374 1230.927034 159.173582 1230.010046 160.376009 1229.241746 C200.723927 1203.461259 241.071842 1177.680767 281.419756 1151.900276 C283.053630 1150.856304 284.901094 1149.767094 286.806117 1150.128081 z"/><path class="selected"  fill="#000000" opacity="1.000000" stroke="none" 
 	d="
M291.586861 1285.703235 C289.706258 1275.916402 288.676282 1265.966269 288.512346 1256.001737 C288.498312 1255.148760 288.505074 1254.241813 288.960647 1253.520549 C289.642546 1252.440965 291.060983 1252.151764 292.323417 1251.960059 C320.294417 1247.712579 348.265416 1243.465098 376.236416 1239.217617 C378.492837 1238.874972 381.048944 1238.607059 382.824787 1240.040662 C384.539097 1241.424598 384.864721 1243.866573 385.063879 1246.060762 C385.943871 1255.756015 386.823866 1265.451267 387.703861 1275.146519 C387.813671 1276.356344 387.889640 1277.692651 387.155693 1278.660668 C386.382207 1279.680834 384.981783 1279.938508 383.714608 1280.120962 C356.189899 1284.084101 328.665191 1288.047241 301.140482 1292.010380 C298.692609 1292.362836 295.918498 1292.630783 294.010777 1291.056965 C292.467338 1289.783670 291.964434 1287.668157 291.586861 1285.703235 z"/><path class="selected"  fill="#000000" opacity="1.000000" stroke="none" 
 	d="
M361.252007 1306.023683 C357.619987 1303.155945 359.192989 1296.824151 363.038297 1294.249449 C366.883605 1291.674747 371.856822 1291.756106 376.481215 1291.930689 C403.625872 1292.955475 430.770530 1293.980260 457.915188 1295.005045 C466.849453 1295.342339 475.783719 1295.679632 484.717984 1296.016925 C487.978556 1296.140020 491.355923 1296.292029 494.267754 1297.764348 C497.179584 1299.236667 499.495687 1302.422627 498.884024 1305.627677 C497.869459 1310.943915 490.775521 1311.937291 485.368970 1311.690446 C443.996646 1309.801524 402.624326 1307.912604 361.252007 1306.023683 z"/><path class="selected"  fill="#000000" opacity="1.000000" stroke="none" 
 	d="
M299.224321 1091.814715 C316.496622 1094.420451 333.768923 1097.026187 351.041225 1099.631922 C353.241789 1099.963904 355.520655 1100.291923 357.664947 1099.696353 C360.721230 1098.847472 363.961725 1099.112585 367.122034 1099.384453 C386.396075 1101.042518 405.670116 1102.700583 424.944156 1104.358648 C425.958077 1108.756391 425.817358 1114.398714 421.841161 1116.533670 C420.060392 1117.489825 417.933268 1117.454569 415.912900 1117.395517 C380.173192 1116.350898 344.433484 1115.306279 308.693776 1114.261660 C306.216142 1114.189242 303.519673 1114.034932 301.656099 1112.400610 C299.825867 1110.795529 299.299840 1108.190404 299.035774 1105.770423 C298.529853 1101.134019 298.593329 1096.435760 299.224321 1091.814715 M405.789260 1105.244918 C403.963263 1104.589289 401.782566 1105.061244 400.391062 1106.413216 C403.607345 1109.085524 408.845746 1108.863400 411.824263 1105.928414 C409.998695 1105.007826 407.859679 1104.723757 405.857113 1105.135952 M371.394801 1110.518384 C374.999066 1111.895236 379.231616 1111.507263 382.525504 1109.498097 C379.220430 1107.141807 374.216421 1107.600495 371.394800 1110.518383 M349.769200 1104.266363 C346.962967 1103.013679 343.350783 1103.940226 341.493998 1106.389004 C344.467199 1107.826753 348.327976 1107.139997 350.622990 1104.765142 M417.842823 1107.150731 C415.937970 1106.322457 414.280307 1108.696194 413.543618 1110.638304 C414.654235 1111.850480 416.747584 1111.976769 417.995873 1110.906905 C419.244162 1109.837040 419.439706 1107.749021 418.411768 1106.465986 M321.575012 1109.494874 C320.616777 1107.239811 317.067739 1106.725973 315.509273 1108.616661 C317.100821 1109.985627 319.426029 1110.443908 321.418000 1109.781229 M362.838897 1103.989343 C361.964679 1104.430584 362.664167 1105.951927 363.642779 1105.987568 C364.621390 1106.023209 365.408213 1105.231040 366.059751 1104.499979 C365.684356 1103.173974 363.516874 1102.911612 362.835947 1104.109751 M393.334004 1107.611462 C395.245602 1108.362406 397.447242 1108.343751 399.345840 1107.560521 C397.441689 1106.804187 395.243805 1106.818891 393.349942 1107.600635 z"/><path class="selected"  fill="#000000" opacity="1.000000" stroke="none" 
 	d="
M433.527521 1338.630959 C433.522089 1350.326223 424.161503 1361.316624 412.616167 1363.183289 C401.070831 1365.049954 388.723816 1357.569266 385.033190 1346.471586 C381.342564 1335.373905 386.750446 1321.988678 397.114285 1316.569264 C407.478125 1311.149850 421.556389 1314.345466 428.564837 1323.708205 C431.760974 1327.978000 433.529999 1333.297440 433.527521 1338.630958 z"/><path class="selected"  fill="#000000" opacity="1.000000" stroke="none" 
 	d="
M789.502055 306.536164 C789.113944 305.136088 789.343503 302.940183 790.786729 303.107344 C792.016022 305.672571 791.689094 308.912209 789.972069 311.180107 C789.291203 309.763248 789.068058 308.130765 789.343710 306.583159 z"/><path class="selected"  fill="#000000" opacity="1.000000" stroke="none" 
 	d="
M785.437820 1258.564274 C785.171066 1256.590407 785.111680 1254.146534 786.809813 1253.105548 C788.093854 1255.253147 788.036761 1258.131242 786.668560 1260.226230 C786.145316 1259.766103 785.622073 1259.305977 785.098830 1258.845850 z"/><path class="selected"  fill="#000000" opacity="1.000000" stroke="none" 
 	d="
M785.747647 1193.341993 C787.981403 1194.199692 788.666979 1197.595103 786.941016 1199.252318 C785.234686 1197.777700 784.756646 1195.065501 785.855990 1193.096367 z"/><path class="selected"  fill="#000000" opacity="1.000000" stroke="none" 
 	d="
M414.423661 8.671641 C415.890795 7.428964 418.425930 7.811778 419.460718 9.432254 C417.757691 10.536422 415.376549 10.472850 413.734862 9.279384 z"/><path class="selected"  fill="#000000" opacity="1.000000" stroke="none" 
 	d="
M390.803218 1.995322 C389.979462 2.643375 389.189571 0.900227 389.854043 0.089658 C391.397958 -0.127692 392.996115 0.052155 394.453106 0.607205 C394.126187 2.008218 392.172465 2.707044 391.031141 1.831205 z"/><path class="selected"  fill="#000000" opacity="1.000000" stroke="none" 
 	d="
M406.298140 1217.461439 C407.481654 1216.837678 408.252758 1219.227176 407.123181 1219.944003 C405.993605 1220.660829 404.520709 1220.081360 403.318942 1219.493533 C404.295223 1218.810212 405.271502 1218.126889 406.247782 1217.443566 z"/><path class="selected"  fill="#000000" opacity="1.000000" stroke="none" 
 	d="
M625.868533 1264.171385 C626.708819 1263.547922 627.551852 1265.298124 626.801519 1266.027362 C625.871427 1266.322870 624.789113 1266.072701 624.083045 1265.399010 C624.590786 1264.890712 625.098528 1264.382415 625.606270 1263.874118 z"/><path class="selected"  fill="#000000" opacity="1.000000" stroke="none" 
 	d="
M786.875338 635.083764 C785.555572 635.586167 785.073947 633.276957 785.778966 632.053380 C787.121212 631.569446 787.604467 633.877775 786.936191 635.138419 z"/><path class="selected"  fill="#000000" opacity="1.000000" stroke="none" 
 	d="
M788.884366 1435.081420 C787.592634 1435.577982 787.052067 1433.334581 787.745115 1432.136737 C788.881196 1432.539718 789.471684 1434.036102 788.916939 1435.106303 z"/><path class="selected"  fill="#000000" opacity="1.000000" stroke="none" 
 	d="
M303.987548 862.835300 C309.543425 862.293625 315.099301 861.751950 320.655177 861.210275 C318.405175 859.855451 316.155172 858.500626 313.905170 857.145802 C318.277875 855.202913 323.332501 856.237451 327.997080 857.303788 C331.098349 858.012748 334.757563 859.247350 335.485272 862.344273 C332.825136 860.673392 329.037239 861.089690 326.803483 863.298424 C326.008545 864.084456 324.814394 864.266321 323.705509 864.408257 C317.287726 865.229719 310.869943 866.051182 304.452160 866.872646 C302.742727 867.091450 300.938840 867.298501 299.351543 866.627290 C298.562134 864.445158 301.677968 863.060474 303.987548 862.835299 z"/><path class="selected"  fill="#000000" opacity="1.000000" stroke="none" 
 	d="
M434.196012 920.308554 C421.486587 923.326561 408.423783 924.853628 395.360942 924.848449 C393.586036 924.847745 391.238322 924.301241 391.169045 922.527688 C402.808693 921.891129 414.410818 920.569159 425.895309 918.570903 C428.855702 918.055806 432.554815 917.791468 434.196012 920.308554 z"/><path class="selected"  fill="#000000" opacity="1.000000" stroke="none" 
 	d="
M328.734141 875.029685 C326.869354 872.668782 323.223646 872.800700 320.376488 873.772799 C317.529329 874.744898 314.763673 876.349688 311.758261 876.212609 C309.147043 876.093511 306.646880 874.536031 305.388819 872.244758 C313.015338 868.827047 321.679996 867.769203 329.904762 869.251673 C330.672420 871.183767 330.193278 873.548739 328.734141 875.029685 z"/><path class="selected"  fill="#000000" opacity="1.000000" stroke="none" 
 	d="
M378.291421 928.228653 C376.685119 930.471982 373.363706 930.752313 370.745208 929.882715 C368.126711 929.013117 365.896255 927.269110 363.399691 926.094420 C358.941914 923.996936 353.617221 923.824236 349.032897 925.628450 C347.865153 924.891962 349.141227 923.126578 350.406716 922.574690 C359.430396 918.639436 369.663459 923.488264 378.291420 928.228654 z"/><path class="selected"  fill="#000000" opacity="1.000000" stroke="none" 
 	d="
M387.671592 910.058486 C389.610770 910.980611 391.549948 911.902736 393.489126 912.824861 C384.180344 917.901275 372.584018 918.565767 362.756293 914.585913 C363.801399 913.072916 365.969312 912.997668 367.806457 913.077072 C373.748641 913.333910 379.690825 913.590745 385.633008 913.847580 C386.312536 912.584549 386.992064 911.321518 387.671592 910.058486 z"/><path class="selected"  fill="#000000" opacity="1.000000" stroke="none" 
 	d="
M439.371717 898.004171 C436.780421 899.570311 433.240524 899.381941 430.830072 897.549640 C432.037590 896.438517 431.558938 894.082225 430.013594 893.530312 C428.468250 892.978400 426.605210 894.498367 426.835648 896.123050 C425.990817 892.893146 422.377522 891.026686 419.039220 891.068676 C415.700918 891.110667 412.575916 892.609593 409.577147 894.077041 C408.897033 892.643974 409.774824 890.861502 411.104338 889.996268 C412.433852 889.131034 414.081067 888.952751 415.659731 888.797643 C421.698774 888.204299 429.266779 888.407238 431.928824 893.860275 C433.254894 896.576647 436.364235 898.307801 439.371716 898.004173 z"/><path class="selected"  fill="#000000" opacity="1.000000" stroke="none" 
 	d="
M385.947939 909.017733 C382.918266 908.454298 379.986060 907.370512 377.318241 905.828070 C377.795611 905.020505 378.272981 904.212940 378.750351 903.405375 C381.521507 903.887949 384.318457 902.978579 387.034893 902.248401 C389.751328 901.518222 392.736131 900.978382 395.301346 902.132440 C397.866562 903.286498 399.493990 906.808799 397.774545 909.034937 C398.183018 909.379968 397.535756 910.069353 397.032059 909.889950 C396.528362 909.710547 396.295639 909.149346 396.064060 908.667405 C394.337438 905.074114 389.348162 903.518597 385.885383 905.493980 C385.906235 906.668564 385.927087 907.843149 385.947939 909.017733 z"/><path class="selected"  fill="#000000" opacity="1.000000" stroke="none" 
 	d="
M429.221959 909.168728 C425.268397 910.433495 422.921716 915.479261 418.770855 915.504578 C416.520122 915.518311 414.606222 913.987451 412.599415 912.968276 C410.592607 911.949101 407.748418 911.601489 406.425905 913.422740 C406.746872 910.890493 408.765598 908.661875 411.253864 908.092809 C413.742130 907.523742 416.528881 908.653346 417.918624 910.794356 C419.144398 912.682760 422.014865 911.087851 423.656835 909.547549 C425.298804 908.007248 428.623726 906.998310 429.221959 909.168728 z"/><path class="selected"  fill="#000000" opacity="1.000000" stroke="none" 
 	d="
M355.977549 870.947789 C363.033535 871.516592 369.890486 874.340709 375.300411 878.906142 C368.071079 879.850979 360.444545 876.709899 355.977549 870.947790 z"/><path class="selected"  fill="#000000" opacity="1.000000" stroke="none" 
 	d="
M443.966922 892.717674 C441.950436 892.943460 439.074048 892.417217 439.201195 890.392117 C444.379906 888.076431 450.238078 887.305968 455.839434 888.203866 C456.310339 889.212621 456.781243 890.221375 457.252148 891.230130 C452.823739 891.725978 448.395331 892.221826 443.966922 892.717674 z"/><path class="selected"  fill="#000000" opacity="1.000000" stroke="none" 
 	d="
M424.348330 903.204610 C419.030713 903.412238 413.713095 903.619865 408.395477 903.827492 C405.580553 903.937402 401.521146 902.436695 402.597650 899.833425 C410.258018 901.153517 418.066835 901.610226 425.828861 901.192131 C427.078888 901.353614 425.607785 903.155435 424.348330 903.204610 z"/><path class="selected"  fill="#000000" opacity="1.000000" stroke="none" 
 	d="
M387.417567 887.445057 C384.708340 891.509084 379.213925 893.474661 374.541637 892.051304 C373.396035 891.702312 372.313489 891.176599 371.236410 890.653056 C375.918066 887.496873 381.885889 886.313722 387.417567 887.445057 z"/><path class="selected"  fill="#000000" opacity="1.000000" stroke="none" 
 	d="
M428.766735 871.645363 C432.642446 867.328446 439.968382 866.717923 444.505186 870.333765 C439.788922 873.036742 433.865351 873.530396 428.766736 871.645365 z"/><path class="selected"  fill="#000000" opacity="1.000000" stroke="none" 
 	d="
M448.822345 919.941159 C445.975567 920.325390 443.128789 920.709622 440.282011 921.093853 C440.730014 919.322867 442.228657 917.861081 444.010247 917.457307 C448.724944 916.388783 453.592825 922.184854 457.853730 919.901259 C458.053577 920.826558 458.253422 921.751859 458.453268 922.677160 C455.603221 923.155671 452.695398 923.289088 449.813507 923.073570 C449.501433 922.073191 449.189359 921.072812 448.877285 920.072434 z"/><path class="selected"  fill="#000000" opacity="1.000000" stroke="none" 
 	d="
M398.010005 892.196963 C393.147279 896.463829 386.257485 898.309523 379.912952 897.044947 C384.050144 895.211505 388.187337 893.378063 392.324529 891.544621 C394.219688 891.762067 396.114847 891.979514 398.010005 892.196961 z"/><path class="selected"  fill="#000000" opacity="1.000000" stroke="none" 
 	d="
M445.113459 905.800878 C439.668819 906.591243 434.076954 906.355173 428.718302 905.108728 C433.683322 902.124143 440.417656 902.408445 445.113459 905.800878 z"/><path class="selected"  fill="#000000" opacity="1.000000" stroke="none" 
 	d="
M455.344515 912.583859 C456.356335 913.601659 457.368154 914.619459 458.379974 915.637258 C455.056162 917.775863 449.865175 915.408028 449.301285 911.496073 C451.275965 910.698733 453.708421 911.206611 455.199078 912.727486 z"/><path class="selected"  fill="#000000" opacity="1.000000" stroke="none" 
 	d="
M361.487899 883.824247 C358.862111 883.912510 356.214589 883.031792 354.164916 881.388201 C352.321561 879.910053 350.970605 877.829817 350.362782 875.546523 C354.490602 877.672402 358.265670 880.481269 361.487900 883.824246 z"/><path class="selected"  fill="#000000" opacity="1.000000" stroke="none" 
 	d="
M452.918805 853.153560 C454.905455 850.744103 458.911716 850.369239 461.310870 852.368319 C459.495816 855.277976 454.920919 855.927575 452.367638 853.638184 z"/><path class="selected"  fill="#000000" opacity="1.000000" stroke="none" 
 	d="
M373.745184 859.651816 C370.176580 860.170364 366.482712 859.803714 363.085677 858.593762 C362.459914 858.370878 362.265481 857.099994 362.820039 857.465674 C366.432108 855.829587 371.040802 856.751796 373.745184 859.651816 z"/><path class="selected"  fill="#000000" opacity="1.000000" stroke="none" 
 	d="
M455.785522 867.762475 C453.989361 868.138072 452.019596 866.786427 451.723889 864.975398 C451.428182 863.164369 452.865710 861.256377 454.688055 861.041140 C455.970966 863.158513 456.663787 865.629295 456.668802 868.104999 z"/><path class="selected"  fill="#000000" opacity="1.000000" stroke="none" 
 	d="
M343.338171 859.555403 C345.727927 856.630998 351.560898 859.108652 351.115465 862.858940 C348.304515 862.402987 345.597243 861.318868 343.248515 859.708643 z"/><path class="selected"  fill="#000000" opacity="1.000000" stroke="none" 
 	d="
M301.663326 1056.854215 C300.075957 1056.698695 298.311839 1056.451902 297.312622 1055.208723 C296.506840 1054.206200 296.426730 1052.821899 296.381675 1051.536479 C293.932703 981.663862 291.483728 911.791245 289.034753 841.918629 C288.988161 840.589295 288.956230 839.191308 289.570953 838.011726 C290.934458 835.395322 294.538385 835.199513 297.484629 835.355577 C357.744772 838.547639 418.004914 841.739696 478.265056 844.931753 C480.185039 845.033457 482.302389 845.221373 483.632559 846.609653 C485.392776 848.446770 484.921935 851.401318 484.333117 853.876525 C467.582151 924.291986 450.831190 994.707448 434.080230 1065.122909 C433.782062 1066.376307 433.452501 1067.690131 432.574897 1068.633381 C431.136254 1070.179640 428.331343 1070.111936 426.968977 1068.498067 C425.606611 1066.884199 426.010555 1064.107702 427.776303 1062.948933 C413.799732 1067.731577 398.563831 1066.347919 383.862011 1064.907527 C356.462450 1062.223090 329.062888 1059.538653 301.663326 1056.854215 M318.801275 978.551046 C318.530427 975.054071 315.927061 971.557434 312.429790 971.290438 C310.212325 971.121147 308.094621 972.216792 306.279526 973.501797 C310.936056 973.045024 315.764122 974.991885 318.801275 978.551046 M412.927212 992.851927 C405.715570 995.029945 397.591339 992.863580 390.622744 995.725438 C389.562144 996.161004 388.397949 996.945752 388.432092 998.091799 C396.857824 998.316705 405.330868 996.504194 412.927212 992.851928 M348.361492 910.115559 C346.372136 913.167640 352.198703 915.064040 355.703750 914.070368 C359.208797 913.076696 365.057389 914.548350 363.367867 917.776081 C355.451896 918.052121 347.535924 918.328159 339.619953 918.604198 C344.132294 923.144883 348.644635 927.685568 353.156976 932.226252 C341.539197 932.144962 329.921417 932.063672 318.303638 931.982382 C329.932617 934.817744 341.868642 936.391952 353.835092 936.668524 C354.137863 938.508584 354.440634 940.348643 354.743404 942.188703 C356.450481 939.395621 358.157558 936.602538 359.864634 933.809455 C377.625530 935.722784 395.503821 936.545742 413.365384 936.272153 C401.778684 938.652962 390.191984 941.033770 378.605285 943.414579 C379.047102 939.704690 375.082695 936.674320 371.346718 936.643566 C367.610740 936.612811 364.206444 938.637933 361.025498 940.597540 C362.053731 941.505465 363.081963 942.413391 364.110196 943.321316 C365.400698 940.786499 369.076258 939.855904 371.417510 941.471218 C367.643795 944.530748 362.810757 946.257365 357.952664 946.281574 C355.799537 947.086960 359.079704 949.735121 361.354528 949.403787 C371.508222 947.924876 381.661916 946.445965 391.815610 944.967053 C390.957387 950.041948 399.434347 953.193686 402.099973 948.790784 C401.895193 946.747505 400.124000 944.971435 398.081292 944.761038 C400.363496 941.024854 407.490440 943.147634 407.356402 947.523655 C412.542864 948.390481 417.729325 949.257308 422.915786 950.124135 C422.702725 948.381692 423.576486 946.552271 425.065673 945.622851 C428.295593 948.478407 430.961869 951.969036 432.867168 955.836391 C423.605437 951.662122 412.774110 951.091877 403.125263 954.270547 C395.358507 956.829192 386.543764 956.015414 379.376717 952.078081 C383.779522 961.124531 396.792085 960.136258 406.581980 957.816571 C416.371875 955.496884 429.467804 954.735363 433.621377 963.898923 C434.261953 965.312151 434.621390 966.890528 435.612554 968.084323 C438.878274 972.017674 447.320165 970.191037 448.425020 975.182577 C448.556151 972.451963 448.687281 969.721348 448.818411 966.990734 C444.839061 968.041151 440.378237 967.057828 437.209331 964.431683 C441.375069 964.629349 445.540807 964.827015 449.706545 965.024681 C452.283250 963.255791 451.274015 958.408202 448.205460 957.814616 C446.354070 961.144341 441.346479 962.159641 438.344391 959.813969 C437.881941 953.303787 434.936757 947.000547 430.239912 942.468882 C426.061565 938.437478 416.964322 937.501959 416.294600 943.269304 C415.620325 940.792927 414.946049 938.316547 414.271774 935.840166 C428.867410 935.810276 443.465837 937.513051 457.662774 940.901336 C459.701983 939.417448 459.014991 935.945015 457.001113 934.426926 C454.987235 932.908837 452.282453 932.788156 449.761200 932.728292 C434.484857 932.365587 419.208515 932.002879 403.932173 931.640170 C397.239136 931.481257 390.076784 931.169852 384.681745 927.205566 C405.437199 930.086823 426.714565 929.164853 447.142997 924.499056 C444.719830 925.859213 442.702026 927.931401 441.406781 930.389878 C446.524203 930.330476 451.641624 930.271074 456.759045 930.211672 C458.290531 930.171795 459.145556 927.882996 458.015318 926.848781 C463.087578 921.793609 465.614408 914.302487 464.640399 907.207851 C462.216660 907.411106 459.792920 907.614360 457.369181 907.817615 C459.969277 907.508501 461.779380 904.343696 460.727521 901.945854 C462.651492 902.404704 464.575463 902.863555 466.499435 903.322405 C468.918191 899.506377 469.642560 894.657954 468.444783 890.301605 C466.176213 891.513215 462.938734 889.957128 462.467773 887.428767 C461.996812 884.900407 464.456894 882.283028 467.009558 882.596580 C465.082949 884.371571 465.971370 888.167478 468.485583 888.903107 C473.928338 876.576328 477.748733 863.534359 479.817301 850.219175 C425.441116 847.315542 371.067593 844.362050 316.696824 841.358703 C316.749224 844.324280 318.785959 847.155365 321.581034 848.147811 C320.468519 849.903868 318.061805 850.709315 316.116396 849.976642 C315.186976 845.714360 310.836607 842.892061 306.509672 842.336616 C302.182737 841.781171 297.847257 843.006957 293.656894 844.220110 C298.902549 849.194195 306.342594 851.764824 313.540025 851.089981 C308.545649 854.591788 301.604276 855.088860 296.161891 852.334431 C297.622980 855.116104 300.437089 857.145576 303.537774 857.653753 C296.617203 858.320996 295.017255 867.614309 295.312801 874.560687 C295.647411 882.425171 295.982020 890.289656 296.316629 898.154140 C299.120606 896.374711 302.458753 895.449334 305.778686 895.531137 C306.159140 892.594411 306.506609 889.449064 305.162592 886.810366 C303.818574 884.171668 300.059951 882.577755 297.795231 884.485673 C298.674987 881.700748 299.554743 878.915823 300.434500 876.130898 C304.648682 875.318998 308.117521 879.135394 311.440633 881.851171 C314.763744 884.566948 320.852760 885.756785 322.468113 881.780713 C319.320607 881.271636 316.173101 880.762559 313.025594 880.253483 C319.906901 875.678687 329.273831 875.138387 336.635512 878.891625 C331.938971 879.125524 325.409359 882.250918 327.620144 886.401175 C325.270540 886.142320 322.873825 887.912531 322.430321 890.234372 C332.284692 889.333633 342.252041 889.676069 352.021359 891.250995 C358.213472 887.747060 364.934339 885.179478 371.885451 883.662289 C371.271351 891.230950 354.419758 889.685281 355.981113 897.116561 C353.628008 894.815084 350.917162 892.360086 347.625674 892.362121 C344.334186 892.364155 341.299246 896.600389 343.553900 898.998395 C345.762501 895.666844 352.026828 897.013473 352.671234 900.958329 C350.755381 899.590043 347.660733 900.477265 346.760881 902.652803 C349.437504 904.951553 353.389877 902.677696 356.749618 901.600346 C360.109360 900.522996 365.308739 903.535912 363.069835 906.262788 C359.286651 909.981074 353.481738 911.501639 348.361493 910.115559 M376.948688 959.836845 C378.576496 960.779168 380.556414 961.095685 382.396871 960.707812 C380.017186 960.269960 378.332239 958.180310 377.018269 956.148538 C375.704299 954.116766 374.414862 951.881320 372.248221 950.804156 C370.081580 949.726992 366.780797 950.611978 366.427200 953.005633 C369.595289 953.763391 372.402341 955.918308 373.952970 958.783014 C371.775769 960.244812 369.119669 957.969907 367.191726 956.192243 C365.263784 954.414578 361.399748 953.459973 360.651188 955.973280 C359.130737 961.078228 351.310842 962.739023 347.846833 958.692679 C350.659727 957.396825 353.472622 956.100972 356.285517 954.805119 C355.203216 953.923461 354.120915 953.041803 353.038615 952.160145 C354.647710 951.520027 355.375197 949.297964 354.456215 947.830172 C353.537233 946.362381 351.220584 946.046246 349.941930 947.214143 C349.385056 947.722779 349.044639 948.419807 348.717117 949.099181 C346.607881 953.474335 344.498643 957.849488 342.389405 962.224641 C350.127236 966.334361 359.268626 960.825414 367.979031 959.880599 C365.898802 960.984180 365.140536 964.004605 366.452855 965.959871 C355.872256 966.952555 345.400254 969.098515 335.282026 972.347508 C335.283761 974.599784 335.337742 977.020731 336.664731 978.840581 C337.991720 980.660431 341.106721 981.296211 342.422231 979.468046 C340.977612 980.699131 338.535134 978.724794 338.978865 976.879368 C339.422595 975.033941 341.658081 974.103664 343.527874 974.429806 C345.397667 974.755949 346.965568 975.982522 348.447137 977.168881 C349.994507 976.241045 351.216273 974.781550 351.857388 973.095073 C359.291072 973.007264 366.164625 969.381117 372.704342 965.845655 C374.291496 964.987618 375.878651 964.129580 377.465805 963.271542 C376.557037 962.416056 376.332095 960.921984 376.948689 959.836845 M393.948318 989.139452 C394.222806 987.513861 391.904231 986.887999 390.258290 986.981640 C383.585028 987.361300 376.935168 988.151843 370.358889 989.347303 C370.672709 985.754569 369.969387 980.846898 366.377901 980.519106 C365.612989 980.449292 364.850408 980.635313 364.104827 980.819905 C362.051426 981.328293 359.998025 981.836679 357.944624 982.345064 C361.906659 982.783765 365.718060 984.493678 368.680114 987.161337 C367.551547 990.090267 363.409593 990.392718 360.491727 989.235847 C357.573861 988.078976 354.935186 985.975260 351.803275 985.766873 C350.658935 985.690732 349.324425 986.002840 348.823617 987.034588 C347.734072 989.279234 351.429146 990.696976 353.893292 990.305155 C356.357438 989.913334 360.021859 990.223614 359.903471 992.715907 C355.345018 994.056202 350.525462 994.502186 345.798469 994.021130 C345.598542 994.904250 345.398616 995.787370 345.198690 996.670489 C349.909731 997.877721 354.873016 996.930006 359.642411 995.979119 C365.368856 994.837420 371.095302 993.695723 376.821747 992.554025 C377.644857 992.389919 378.467967 992.225813 379.291078 992.061708 C384.176825 991.087622 389.062571 990.113537 393.948318 989.139452 M315.861315 958.965192 C320.235340 958.960252 324.608555 959.835566 328.643718 961.523635 C329.192302 960.471796 329.740885 959.419957 330.289469 958.368119 C327.736035 958.175245 325.476659 955.992940 325.195315 953.447734 C321.783373 952.888986 318.371432 952.330239 314.959490 951.771492 C316.311418 954.107028 312.973696 956.552457 310.277333 956.442602 C307.580969 956.332748 304.678428 955.200888 302.323657 956.519030 C300.771310 957.387992 299.916394 959.126676 299.431417 960.838306 C298.750155 963.242688 298.845720 966.294406 300.930708 967.672083 C303.015697 969.049760 306.532903 966.204119 304.855097 964.352057 C303.399521 964.807432 301.722328 963.340920 301.979408 961.837598 C302.729350 959.342061 306.498105 959.354869 308.549981 960.961083 C310.601856 962.567297 311.795886 965.085128 313.875698 966.654999 C315.955511 968.224870 319.754619 968.089255 320.371874 965.557632 C318.210697 964.587019 316.192533 963.298668 314.402387 961.746845 C314.888697 960.819627 315.375006 959.892409 315.861315 958.965192 M435.479202 973.366536 C434.252842 971.206163 433.026483 969.045790 431.800123 966.885418 C429.630179 963.229819 423.674509 967.548605 419.784250 965.834561 C417.621801 964.881791 416.727297 962.309040 414.977487 960.720920 C413.227677 959.132800 409.300641 959.839620 409.879525 962.130658 C403.801189 961.338571 397.466237 962.676801 392.227568 965.859556 C398.889540 968.893585 406.784498 965.107214 413.957671 966.567617 C419.385382 967.672653 424.392871 971.760309 429.833716 970.721872 C429.717671 971.666130 429.601626 972.610389 429.485580 973.554649 C431.037273 975.194737 434.033412 975.100702 435.479202 973.366536 M374.743667 1003.027050 C375.561687 1002.282514 375.039059 1000.793246 374.055389 1000.287397 C373.071719 999.781548 371.891565 999.953773 370.800978 1000.138461 C367.994564 1000.613723 365.188150 1001.088984 362.381737 1001.564244 C364.866856 1003.318645 366.338210 1006.416634 366.127618 1009.451331 C358.872815 1005.045056 350.988606 1001.676850 342.789463 999.481058 C341.627499 999.923857 342.088340 1001.846717 343.207524 1002.388620 C344.326709 1002.930523 345.651806 1002.687717 346.881587 1002.871760 C348.432656 1003.103880 349.788467 1004.007779 351.086293 1004.888314 C356.073709 1008.272126 361.061125 1011.655938 366.048541 1015.039750 C366.276913 1012.241632 366.532592 1009.348985 367.880994 1006.886583 C369.229396 1004.424180 371.986175 1002.499934 374.743667 1003.027050 M441.590651 1015.700983 C436.911576 1012.011379 430.237369 1012.635188 424.399304 1013.828470 C418.561239 1015.021752 412.303981 1016.565368 406.826125 1014.220156 C405.680153 1014.521196 406.670502 1016.270013 407.764380 1016.725324 C412.032258 1018.501760 416.804061 1018.475495 421.426574 1018.421797 C426.102140 1018.367483 430.777706 1018.313169 435.453272 1018.258855 C437.808149 1018.231499 440.683098 1017.874126 441.590653 1015.700985 M443.803607 944.164742 C442.544871 946.961610 440.701570 949.493780 438.426761 951.550994 C442.293326 956.788750 450.987504 957.436376 455.587409 952.829284 C454.587614 950.960899 451.958373 951.006877 449.841798 951.109646 C447.725222 951.212415 444.972214 950.576697 444.738890 948.470513 C444.553912 946.800777 445.481032 944.072567 443.803609 944.164740 M414.848130 978.089024 C414.061657 979.635927 414.061476 981.558256 414.847658 983.105308 C418.560110 982.762972 422.139409 981.116750 424.815389 978.520864 C422.558306 972.255383 414.648236 968.728184 408.478927 971.236232 C412.209405 972.710035 415.939883 974.183838 419.670361 975.657642 C418.704193 977.295749 416.739684 978.286261 414.848131 978.089026 M410.551900 1051.439160 C413.975646 1052.951191 417.577188 1054.060169 421.258448 1054.735894 C424.996708 1055.422084 430.366327 1054.276598 430.133077 1050.483045 C427.241570 1049.966491 424.354671 1051.376604 421.417968 1051.434926 C418.481265 1051.493247 415.028310 1048.800099 416.325827 1046.164938 C413.668743 1046.772919 411.397267 1048.847810 410.551900 1051.439160 M443.091160 997.213299 C443.362308 993.734081 438.864692 992.065189 435.374988 992.044038 C429.280060 992.007105 423.181974 993.523716 417.814410 996.411406 C421.566931 996.231791 425.319451 996.052177 429.071972 995.872562 C433.799762 995.646267 438.699778 995.447237 443.091160 997.213297 M380.539208 1017.896613 C387.054884 1019.243803 393.938597 1018.762517 400.203417 1016.521758 C401.014964 1016.231489 401.348529 1015.068456 400.814192 1014.392180 C393.966752 1012.658154 386.407325 1013.964765 380.539208 1017.896613 M432.850065 985.039177 C435.685501 985.498334 438.435272 986.481189 440.919336 987.923392 C442.409378 985.899963 440.162168 982.502036 437.716952 983.081181 C437.656526 981.578701 436.988507 980.109361 435.896074 979.076072 C432.366164 980.548163 428.836254 982.020257 425.306344 983.492351 C426.893707 985.750569 430.381375 986.375518 432.654089 984.808980 M373.734234 970.637940 C370.445411 970.074065 366.899326 971.391924 364.776980 973.966795 C369.797863 974.254726 374.818746 974.542657 379.839629 974.830587 C380.386689 974.861959 380.951639 974.890875 381.466469 974.703236 C383.507724 973.959268 382.797172 970.508900 380.773772 969.717658 C378.750372 968.926415 376.501308 969.853185 374.529828 970.766137 M312.454228 933.420409 C308.001290 930.835176 302.919338 929.342410 297.775655 929.108742 C297.261590 930.172733 297.116999 931.410979 297.372091 932.564784 C301.611048 935.829332 307.873253 936.184592 312.454228 933.420409 M350.460439 1012.866776 C351.336801 1013.971892 353.116504 1014.213365 354.255649 1013.381716 C354.755974 1013.016444 355.135980 1012.452347 355.171333 1011.833884 C353.115102 1010.417189 350.993891 1008.971238 348.559725 1008.414503 C346.125560 1007.857768 343.271846 1008.391069 341.740229 1010.363191 C340.208613 1012.335313 340.777414 1015.800443 343.132380 1016.630655 C342.603276 1014.780310 343.539447 1012.619842 345.251347 1011.740566 C346.963247 1010.861290 349.264653 1011.358856 350.460439 1012.866776 M422.441708 1010.135575 C423.514566 1010.013909 424.661405 1009.860526 425.468588 1009.143391 C426.102181 1008.580478 426.436958 1007.698733 426.336611 1006.857162 C419.064777 1007.788557 411.741411 1008.317465 404.411210 1008.440655 C409.774025 1011.433932 416.339203 1010.827623 422.441708 1010.135575 M382.775083 1031.943217 C382.595505 1032.996501 382.415928 1034.049784 382.236350 1035.103067 C387.776790 1035.416979 393.317230 1035.730891 398.857669 1036.044803 C399.328078 1035.313547 399.503693 1034.398366 399.337374 1033.544927 C393.849000 1032.727093 388.318467 1032.192245 382.775083 1031.943217 M302.882369 944.066726 C305.287399 941.873669 304.736539 937.327830 301.877307 935.772691 C300.684328 939.408133 299.491348 943.043574 298.298369 946.679016 C297.705043 948.487096 297.934911 951.405880 299.824117 951.177659 C300.951190 948.950927 302.078262 946.724197 303.205333 944.497467 M336.840054 894.228299 C333.980167 895.477487 331.120279 896.726674 328.260391 897.975862 C331.874381 901.288686 337.750399 901.808165 341.889543 899.180769 C340.429128 898.618709 338.968714 898.056650 337.508300 897.494590 C338.145505 896.450987 337.835923 894.937795 336.840053 894.228300 M374.402953 984.521638 C380.705437 985.896188 387.662415 983.715748 392.052905 978.989831 C386.349923 980.186558 380.646942 981.383285 374.943961 982.580012 C374.285184 982.937684 374.024060 983.874833 374.402955 984.521637 M404.174842 1003.885290 C399.969899 1001.269911 394.123968 1001.632734 390.274692 1004.747993 C394.596721 1005.308118 398.851679 1006.383989 402.920507 1007.945501 C403.338618 1006.592098 403.756730 1005.238694 404.174841 1003.885290 M318.686579 911.363989 C320.635700 913.824051 323.429092 915.602198 326.482932 916.326794 C325.419512 913.669775 323.052482 911.571307 320.287166 910.833993 C321.251713 909.368542 322.685935 908.217460 324.325417 907.592962 C322.468381 906.010536 320.061462 905.086400 317.622576 905.019410 C317.566232 907.176337 317.929662 909.343448 318.686579 911.363989 M309.799748 944.492216 C307.497361 944.683556 305.474761 946.670839 305.242898 948.969500 C305.011036 951.268160 306.596021 953.619335 308.813817 954.266620 C310.557239 951.597832 310.931884 948.083354 309.790235 945.107015 M308.278569 1004.574101 C309.442677 1001.147791 304.573250 998.276976 301.199144 999.584706 C302.866400 1001.827433 304.105922 1004.386986 304.831654 1007.085671 C305.837044 1007.085727 306.842433 1007.085784 307.847822 1007.085840 C308.326999 1006.360557 308.498203 1005.438716 308.311395 1004.589747 M428.973655 1025.788537 C432.411547 1027.223200 436.777653 1025.902699 438.844229 1022.803245 C433.232887 1023.173667 427.621545 1023.544091 422.010204 1023.914514 C424.085299 1025.136154 426.438885 1025.881511 428.838920 1026.077100 M414.900375 989.209738 C414.804465 987.771296 413.071083 986.711253 411.746917 987.281253 C410.397413 987.862159 409.731415 989.676548 408.276108 989.878278 C413.339270 991.016532 418.722554 990.691886 423.612232 988.953411 C421.254251 986.758856 417.125250 986.880342 414.900375 989.209738 M363.618787 1033.010427 C360.078752 1031.671203 355.977313 1031.899643 352.607896 1033.623707 C352.839810 1035.544467 354.844473 1037.059999 356.755697 1036.759461 C359.043395 1035.509785 361.331091 1034.260106 363.618787 1033.010428 M404.276819 1029.762493 C405.969877 1030.309552 407.956978 1029.800230 409.178144 1028.506215 C409.780593 1024.878169 405.846384 1021.314748 402.295483 1022.272222 C404.222393 1024.073648 404.988938 1027.017960 404.185115 1029.530327 M337.011365 963.494022 C337.716765 961.109868 339.296902 958.995129 341.383342 957.642892 C340.054449 956.965145 338.454507 956.839149 337.035908 957.300529 C335.850862 958.859791 334.617289 960.544199 334.496143 962.498925 C334.374997 964.453651 335.929376 966.629828 337.871012 966.373545 C338.467422 965.524233 338.231554 964.206989 337.377492 963.617398 M340.260388 985.682469 C338.818311 984.418140 336.265820 984.804930 335.263062 986.439736 C338.669761 988.000209 341.614335 990.553993 343.640945 993.705744 C344.744540 990.759417 343.140603 987.079194 340.231104 985.881878 M298.843407 907.083697 C298.400736 907.976190 297.958064 908.868684 297.515393 909.761178 C299.885785 911.850032 303.539701 912.338390 306.375459 910.945356 C305.101931 908.188223 301.832091 906.513182 298.850417 907.090506 M416.400042 1003.578908 C415.612131 1000.478003 411.733798 998.600451 408.812758 999.905803 C407.414687 1000.530571 406.346831 1001.699576 405.321531 1002.836985 C409.023930 1002.891084 412.723492 1003.138841 416.400042 1003.578908 M304.016892 924.360461 C305.620651 923.363132 303.740148 920.768760 301.851611 920.757007 C299.963075 920.745255 298.095757 921.829233 296.263994 921.369502 C296.779117 924.602719 301.381028 926.271361 303.848699 924.119700 M429.322280 1005.601542 C429.157056 1007.525880 431.954088 1008.593289 433.553583 1007.510702 C435.153079 1006.428116 435.572147 1004.227785 435.368106 1002.307175 C432.940798 1001.914636 430.336011 1003.336530 429.353361 1005.590487 M326.811052 971.265354 C325.590010 970.483640 324.240228 969.669679 322.799331 969.830412 C321.358433 969.991145 320.071747 971.691369 320.868642 972.902558 C324.542081 973.440453 328.215521 973.978348 331.888961 974.516243 C330.196325 973.432613 328.503689 972.348984 326.811052 971.265354 M314.759132 985.424248 C317.934013 986.462153 321.436164 986.471899 324.616772 985.451680 C322.100112 982.498162 317.197428 981.985576 314.124274 984.354669 M389.330800 1040.617179 C386.400811 1039.527511 383.029786 1039.684677 380.213893 1041.042234 C382.672827 1043.804744 387.485391 1043.976033 390.134502 1041.395331 M384.584073 1025.342438 C387.276797 1026.871050 391.790605 1027.701392 392.501703 1024.687796 C390.346567 1022.177892 385.734733 1022.546274 384.005350 1025.366463 M309.210729 904.605788 C309.362311 905.420509 309.513892 906.235229 309.665474 907.049949 C311.470169 906.277022 312.552126 904.111654 312.086627 902.204390 C311.621128 900.297125 309.663263 898.873675 307.705404 899.019057 C307.072403 900.967395 307.767417 903.274658 309.371244 904.549202 M327.333823 927.909535 C330.171380 927.988313 333.008937 928.067091 335.846494 928.145868 C336.305137 927.372143 336.486594 926.437893 336.350926 925.548737 C333.244433 924.464065 329.581475 925.164893 327.094782 927.319700 M403.827639 1055.084933 C402.299887 1053.160909 398.542020 1054.274972 398.309752 1056.720773 C401.762833 1057.062022 405.215913 1057.403268 408.668993 1057.744515 C407.569676 1056.226360 405.721476 1055.279501 403.847107 1055.274192 M427.872620 1043.821213 C430.265417 1044.170677 432.637995 1041.776097 432.266460 1039.386627 C429.508731 1040.896724 426.751003 1042.406824 423.993275 1043.916923 C424.658501 1045.299899 426.949960 1045.430582 427.768106 1044.132205 M320.770096 1008.284534 C318.201365 1007.727104 314.436735 1008.005648 314.298058 1010.630504 C316.774247 1011.458513 319.581609 1011.241759 321.901351 1010.043461 C322.201372 1009.293631 321.607609 1008.336520 320.802545 1008.272247 M372.845741 1034.083133 C374.400620 1034.358790 376.043511 1034.111710 377.448529 1033.390903 C374.327007 1031.626768 370.379496 1031.406854 367.081340 1032.813348 C368.525681 1034.254868 370.879945 1034.690661 372.744578 1033.861660 M334.320937 1011.503900 C335.321098 1011.206228 336.321259 1010.908556 337.321419 1010.610884 C334.346793 1009.664818 331.221161 1009.195281 328.099859 1009.225608 C328.536474 1011.813847 332.210992 1013.142316 334.201804 1011.431679 M338.255708 1035.165822 C338.907452 1038.080566 342.521446 1039.905528 345.253944 1038.699729 C344.059813 1036.375449 341.452445 1034.853875 338.841415 1034.957589 M393.843727 970.083047 C392.509188 970.083437 391.174649 970.083827 389.840109 970.084217 C389.411154 968.927948 388.705251 967.875492 387.798215 967.039881 C387.231243 968.072913 387.117910 969.344819 387.493302 970.461822 C389.205643 972.562115 392.827878 972.666883 394.658753 970.669076 M314.258139 912.942116 C312.541455 912.480591 310.575156 913.832171 310.391042 915.600253 C312.081529 916.072380 314.095680 916.480618 315.427730 915.337693 C316.759781 914.194767 315.518372 911.228827 313.988240 912.088671 M417.897976 1028.275160 C416.832117 1028.499117 415.906053 1029.300187 415.530959 1030.322692 C416.662636 1032.655808 420.882911 1032.137564 421.416475 1029.599958 C420.225552 1029.094319 419.034629 1028.588679 417.843705 1028.083039 M334.435846 939.466926 C332.914114 938.158296 330.750375 937.635669 328.799092 938.105431 C327.639828 939.073437 328.782057 941.170711 330.280366 941.360442 C331.778676 941.550173 333.154406 940.590358 334.359138 939.679561 M429.828695 1034.043517 C431.655785 1033.413291 433.283686 1032.218357 434.432536 1030.664142 C432.935933 1030.096245 431.214868 1029.537281 429.797014 1030.280264 C428.379161 1031.023247 428.284610 1033.692801 429.873273 1033.888973 M342.803929 909.930562 C343.952968 909.577686 344.508856 907.997439 343.833801 907.002897 C342.041900 907.453062 340.067573 907.119981 338.522538 906.106855 C337.856746 908.371906 340.588602 910.799360 342.759649 909.871837 M334.854742 912.995662 C335.734723 913.556447 336.624016 911.755350 335.722112 911.230550 C334.183596 910.038194 331.991577 909.752236 330.198659 910.509994 C330.476794 912.483110 332.959164 913.778409 334.736726 912.877954 M401.853423 989.994824 C402.949672 990.402686 404.594954 989.678837 404.304802 988.545733 C402.451825 988.093401 400.598849 987.641072 398.745872 987.188743 C397.440612 988.653739 400.175442 991.176479 401.530540 989.757455 M357.381486 1054.682029 C355.705426 1055.355954 354.029366 1056.029879 352.353306 1056.703804 C353.542430 1057.831759 355.317210 1058.592192 356.824180 1057.947720 C358.331151 1057.303248 358.812716 1054.801210 357.353697 1054.054506 M442.900689 981.050669 C443.816271 982.609066 445.395348 983.762539 447.158381 984.160796 C447.041767 982.494219 446.221022 980.888288 444.938646 979.817498 C444.375233 979.347041 443.595982 978.966672 442.926650 979.267934 C442.257318 979.569196 442.244253 980.826378 442.976449 980.877893 M437.899468 1008.096567 C437.177095 1008.793431 437.092885 1010.049627 437.715784 1010.836672 C439.810032 1010.594680 441.543562 1008.583315 441.473862 1006.476283 C440.151631 1005.929657 438.443167 1006.760342 438.056491 1008.137867 M316.811079 994.815093 C315.433213 995.312673 316.170649 997.694435 317.612736 997.952288 C319.054822 998.210141 320.389568 997.210600 321.514014 996.271600 C320.479741 994.941011 318.443119 994.517362 316.964032 995.325135 M380.879493 1007.090845 C382.644836 1005.576566 382.917789 1002.620914 381.459622 1000.808946 C380.216832 1002.798352 379.673616 1005.215443 379.945698 1007.545302 M454.831578 944.967660 C453.347896 945.123016 451.864214 945.278373 450.380531 945.433730 C451.190215 947.078606 452.995448 948.181155 454.828549 948.150363 C455.512705 947.279511 455.559597 945.962952 454.939131 945.045635 M317.943705 895.585602 C319.281020 895.861698 320.541578 894.153064 319.883141 892.956777 C318.357378 893.117241 316.831613 893.277705 315.305848 893.438170 C315.213202 894.775676 316.471895 896.043199 317.810014 895.959907 M423.800564 959.986464 C422.643230 960.511706 421.485897 961.036948 420.328563 961.562190 C420.189403 962.514783 420.875894 963.515683 421.814680 963.728943 C422.826410 963.537190 423.935108 963.286928 424.547273 962.458906 C425.159438 961.630884 424.732542 960.093585 423.703367 960.127733 M380.651148 1019.190076 C380.077155 1018.799422 379.503163 1018.408768 378.929170 1018.018114 C377.694817 1018.911043 376.754700 1020.203952 376.285788 1021.653464 C377.901776 1022.214747 379.883390 1021.234468 380.417820 1019.609401 M323.864666 941.096142 C322.794262 942.650370 323.265958 945.048032 324.845338 946.080964 C325.344366 944.915313 325.843394 943.749660 326.342422 942.584008 C325.743091 941.790833 324.824102 941.246590 323.840482 941.102310 M318.844369 923.080950 C319.391593 921.649335 319.569861 920.078435 319.357343 918.560604 C318.069967 917.826994 316.188419 919.107045 316.398041 920.573872 C317.213504 921.410511 318.028970 922.247150 318.844435 923.083789 M318.090957 1044.670123 C318.823854 1046.645565 321.879272 1047.194983 323.254445 1045.598609 C321.803498 1044.548678 320.082635 1043.875060 318.304493 1043.660991 M312.775271 926.361733 C312.187617 925.237099 311.599964 924.112466 311.012311 922.987832 C310.446458 924.525235 309.880606 926.062637 309.314753 927.600040 C310.298394 928.271554 311.871303 927.687558 312.178374 926.536823 M336.269906 996.900772 C334.832456 994.645128 331.632561 994.245205 329.038106 994.895584 C331.103093 996.089381 333.466600 996.762150 335.850727 996.834785 M304.406144 1031.853798 C303.011877 1032.105320 302.117169 1033.844795 302.723431 1035.125300 C303.902930 1034.782495 305.222369 1034.322485 305.720482 1033.199712 C306.218595 1032.076940 304.918305 1030.444386 303.920638 1031.160901 M349.807473 1029.120242 C349.189830 1027.962969 347.398082 1027.674655 346.448577 1028.579754 C346.120335 1029.588423 346.872236 1030.801597 347.921606 1030.956453 C348.970977 1031.111308 350.041253 1030.167034 350.018360 1029.106546 M420.583872 1037.452251 C422.005882 1038.379890 423.952428 1038.430978 425.421139 1037.579205 C425.474110 1035.642605 422.405218 1035.949288 420.761601 1036.974831 M317.499583 1013.469807 C316.931895 1012.643561 315.474683 1013.451328 315.454438 1014.453596 C315.434192 1015.455865 316.223477 1016.266880 316.956159 1016.951079 C318.471358 1017.530550 318.452349 1014.658489 317.305867 1013.510800 M342.868607 948.107127 C340.884338 947.816417 339.874669 951.417733 341.813577 951.930055 C342.829498 950.952002 343.284065 949.427034 342.969450 948.052370 M404.840169 974.108283 C403.674721 973.877673 402.441860 973.999760 401.344278 974.454473 C402.534886 975.567444 404.185281 976.172725 405.813154 976.093430 C406.670637 975.505960 405.868146 973.832053 404.873148 974.132685 M383.858509 964.055805 C384.523340 965.172729 386.230279 965.482613 387.245286 964.670652 C386.779272 963.212266 384.609548 962.677932 383.519590 963.753132 M348.294495 942.548243 C348.889679 942.096941 347.881226 941.134156 347.241196 941.519226 C346.601167 941.904297 346.516687 942.781838 346.503479 943.528659 C346.995101 944.405799 348.675473 943.515444 348.225802 942.616080 z"/><path class="selected"  fill="#000000" opacity="1.000000" stroke="none" 
 	d="
M434.294576 862.717676 C432.966475 862.103722 431.638373 861.489768 430.310272 860.875815 C431.968181 860.037213 433.720340 859.177081 435.576515 859.257861 C437.432689 859.338642 439.371983 860.731259 439.357036 862.589131 C437.794479 863.321312 435.905304 863.317139 434.345996 862.578063 z"/><path class="selected"  fill="#000000" opacity="1.000000" stroke="none" 
 	d="
M337.825569 872.234972 C340.700724 872.657807 343.336563 874.480747 344.746831 877.021702 C340.957402 877.249063 337.143631 874.922395 335.612026 871.448834 C336.331061 870.930076 337.510806 871.322097 337.776366 872.168027 z"/><path class="selected"  fill="#000000" opacity="1.000000" stroke="none" 
 	d="
M403.318140 915.704238 C404.301233 915.987382 404.624746 917.494087 403.844536 918.155840 C401.688478 918.067796 399.532417 917.979749 397.376356 917.891703 C396.829226 916.531351 397.856700 914.888226 399.261388 914.467795 C400.666075 914.047364 402.223740 914.638285 403.298003 915.636217 z"/><path class="selected"  fill="#000000" opacity="1.000000" stroke="none" 
 	d="
M432.899820 884.203093 C434.843858 883.572653 437.516743 884.779577 437.399881 886.819940 C435.050353 888.511632 431.216531 887.320596 430.239187 884.595361 C431.003381 884.119821 431.948033 883.942683 432.832599 884.109052 z"/><path class="selected"  fill="#000000" opacity="1.000000" stroke="none" 
 	d="
M404.228246 870.450294 C401.938859 872.759955 398.307765 873.630922 395.219757 872.611104 C397.664727 870.767171 400.787385 869.843709 403.841998 870.061253 z"/><path class="selected"  fill="#000000" opacity="1.000000" stroke="none" 
 	d="
M447.385598 860.790811 C444.332091 861.702454 440.859111 858.630331 441.391314 855.488395 C443.805894 856.617043 445.971920 858.273842 447.693276 860.308785 z"/><path class="selected"  fill="#000000" opacity="1.000000" stroke="none" 
 	d="
M420.769254 896.788979 C419.477176 899.406973 415.183614 899.721665 413.523629 897.320038 C415.398642 895.805417 418.182912 895.524053 420.323042 896.632923 z"/><path class="selected"  fill="#000000" opacity="1.000000" stroke="none" 
 	d="
M452.242713 875.670936 C451.312195 874.569306 450.990493 872.983704 451.418086 871.606527 C452.006807 871.045941 452.952253 870.899934 453.682657 871.256806 C454.317237 872.375104 454.974221 873.641034 454.654068 874.886336 C454.333914 876.131638 452.454563 876.884701 451.742827 875.813857 z"/><path class="selected"  fill="#000000" opacity="1.000000" stroke="none" 
 	d="
M337.325279 883.310078 C338.397698 880.724647 343.223211 881.767084 343.132763 884.564647 C341.607003 885.698506 339.176590 885.311433 338.078541 883.759701 z"/><path class="selected"  fill="#000000" opacity="1.000000" stroke="none" 
 	d="
M423.953980 874.016882 C425.319244 876.298867 427.675575 877.963860 430.282491 878.488635 C427.275348 880.444441 422.555118 877.479393 423.011551 873.921335 z"/><path class="selected"  fill="#000000" opacity="1.000000" stroke="none" 
 	d="
M456.857091 880.079023 C455.754884 880.567412 455.186805 878.743520 455.363806 877.551021 C457.247358 876.816222 459.409147 876.823262 461.287876 877.570313 C460.393036 879.130903 458.643557 880.163972 456.844867 880.193914 z"/><path class="selected"  fill="#000000" opacity="1.000000" stroke="none" 
 	d="
M347.746038 869.226052 C345.580742 870.529831 342.377314 869.529907 341.338165 867.225885 C343.288527 866.364740 345.801339 867.064542 347.025818 868.809858 z"/><path class="selected"  fill="#000000" opacity="1.000000" stroke="none" 
 	d="
M418.910159 869.165902 C419.734987 868.491547 420.426975 870.284833 419.828999 871.166603 C417.634677 871.061232 415.440358 870.955859 413.246038 870.850486 C414.442010 869.167637 416.855284 868.478139 418.759779 869.275150 z"/><path class="selected"  fill="#000000" opacity="1.000000" stroke="none" 
 	d="
M325.330666 850.527342 C324.633798 851.249449 323.377971 851.333651 322.590941 850.711038 C322.831935 848.616729 324.843530 846.882734 326.950486 846.953110 C327.497066 848.275298 326.666346 849.983681 325.288854 850.370268 z"/><path class="selected"  fill="#000000" opacity="1.000000" stroke="none" 
 	d="
M371.366922 897.634971 C369.813884 899.341373 366.954197 899.651340 365.071604 898.317332 C366.668112 896.736978 369.392403 896.462462 371.272110 897.692529 z"/><path class="selected"  fill="#000000" opacity="1.000000" stroke="none" 
 	d="
M375.226525 904.006772 C373.380437 903.032658 375.188705 900.290842 376.966353 899.196810 C377.787787 900.707180 376.914234 902.866888 375.273750 903.381470 z"/><path class="selected"  fill="#000000" opacity="1.000000" stroke="none" 
 	d="
M472.276125 855.498336 C470.774920 856.731602 468.233130 856.346167 467.165028 854.723294 C468.715258 853.528841 471.245105 853.944567 472.331570 855.572305 z"/><path class="selected"  fill="#000000" opacity="1.000000" stroke="none" 
 	d="
M437.040985 910.683127 C438.195437 911.239522 439.349888 911.795916 440.504340 912.352311 C439.617018 913.488837 438.162850 914.458597 436.801594 913.983188 C435.440339 913.507778 435.348098 910.980502 436.787792 910.901046 z"/><path class="selected"  fill="#000000" opacity="1.000000" stroke="none" 
 	d="
M372.045330 905.064739 C372.177153 905.941436 372.308976 906.818133 372.440798 907.694830 C371.568640 907.866973 370.696484 908.039114 369.824328 908.211256 C369.002389 906.906584 370.294110 904.895133 371.822465 905.099782 z"/><path class="selected"  fill="#000000" opacity="1.000000" stroke="none" 
 	d="
M385.438296 881.626649 C386.300803 879.793959 389.431018 879.782001 390.307502 881.608048 C388.755314 882.323755 386.885504 882.311861 385.342543 881.576468 z"/><path class="selected"  fill="#000000" opacity="1.000000" stroke="none" 
 	d="
M450.864344 906.131265 C449.020220 906.178154 447.685484 903.702078 448.738354 902.187333 C450.256060 902.801693 451.270329 904.477244 451.110947 906.106808 z"/><path class="selected"  fill="#000000" opacity="1.000000" stroke="none" 
 	d="
M407.800532 865.180469 C406.647048 864.655932 405.493564 864.131396 404.340080 863.606859 C404.900944 862.795114 405.833301 862.251419 406.815996 862.163053 C407.921085 862.593549 408.467238 864.071114 407.907816 865.116865 z"/><path class="selected"  fill="#000000" opacity="1.000000" stroke="none" 
 	d="
M450.836307 881.020753 C452.364579 881.091471 453.826242 882.955079 452.837731 884.122752 C451.322807 884.076072 449.860937 882.218655 450.855545 881.075013 z"/><path class="selected"  fill="#000000" opacity="1.000000" stroke="none" 
 	d="
M445.820456 875.162628 C446.936330 874.918422 448.728656 875.515550 448.134242 876.490991 C447.435872 877.877688 444.826602 876.257660 445.759679 875.016692 z"/><path class="selected"  fill="#000000" opacity="1.000000" stroke="none" 
 	d="
M408.851565 850.176044 C409.951016 849.764079 411.625022 850.509811 411.274489 851.630362 C410.348128 851.852882 409.268188 852.044158 408.527991 851.444359 C407.787793 850.844560 408.233920 849.233049 409.146943 849.505153 z"/><path class="selected"  fill="#000000" opacity="1.000000" stroke="none" 
 	d="
M418.653694 880.393047 C417.910636 879.854802 417.167579 879.316556 416.424522 878.778311 C417.061473 877.320107 419.829360 878.778602 418.986677 880.128403 z"/><path class="selected"  fill="#000000" opacity="1.000000" stroke="none" 
 	d="
M380.025837 852.097315 C379.783577 853.539201 377.015178 853.007281 377.324528 851.578286 C378.052682 850.932093 379.381800 851.219414 379.778032 852.108672 z"/><path class="selected"  fill="#000000" opacity="1.000000" stroke="none" 
 	d="
M457.461483 891.818370 C458.756173 892.405234 460.050862 892.992097 461.345552 893.578961 C460.031010 894.662410 457.664985 893.755675 457.411201 892.071194 z"/></svg>