<svg enable-background="new 0 0 791.525574 791.525574" fill="none" height="791.525574" stroke="#000" stroke-linecap="round" stroke-linejoin="round" viewBox=".000005 -.000001 791.525574 1435.151978" width="791.525574" xmlns="http://www.w3.org/2000/svg"><g fill="#000" stroke="none"><path d="m411.435455 449.796191c-1.935935 3.745901-4.195442 7.791515-8.133221 9.299331-3.069524 1.175351-6.499163.530674-9.719273-.128351-95.518928-19.548803-191.037855-39.097607-286.556783-58.646411-2.551845-.522258-5.685883-1.677253-5.830199-4.277991-.057977-1.044956.430847-2.03341.906979-2.965388 64.074339-125.417843 128.148672-250.835688 192.223005-376.253533 1.02552-2.007333 2.167066-4.13574 4.160549-5.187928 2.357179-1.244148 5.221428-.642443 7.811046-.011511 98.169287 23.917943 196.338574 47.835881 294.507862 71.753818-63.123322 122.139321-126.246644 244.278643-189.369965 366.417964m82.889959-353.392954c-1.346352.685848-.565738 3.007628.89755 3.38424 1.463289.376612 2.938415-.451421 4.223174-1.246685-.169674-.855519-.339348-1.71104-.509023-2.566561-1.536471.143678-3.072942.287356-4.609413.431035m23.628608-21.32678c-.374786-2.37851-3.495834-3.825149-5.553052-2.573898.995226 1.903614 3.331126 2.999685 5.43129 2.548515m-35.494532-6.456215c1.722805 2.05466 5.347365 2.03654 7.049541-.035242-2.284225-.716495-4.774049-.763665-7.083772-.134206m-171.010469 28.263545c1.082392.526783 2.55515-.041995 3.002495-1.159562-1.035015-1.295526-2.886007-1.873209-4.474171-1.39636-.776606.861385.342863 2.505307 1.428882 2.098293m128.394188-41.06188c.704135 1.586636 1.874109 2.963165 3.326521 3.913808.406901-1.889929-1.19997-3.946161-3.132212-4.008135m39.832599 39.937665c.983496-1.034861-1.913116-1.812765-2.16672-.407815.280074.950654 1.74256 1.253912 2.37754.493006z"/><path d="m.014808 1047.411438c-.547947-11.282593 14.225011-16.758097 25.401925-15.122938 11.176914 1.635158 22.731811 6.730147 33.294314 2.726316.662763-18.152546 1.325526-36.305092 1.988288-54.457638.063572-1.741177.197729-3.655298 1.415312-4.901585 1.324439-1.355661 3.442633-1.434613 5.337856-1.42531 51.590178.253244 103.180356.506488 154.770534.759731 2.764266.01357 5.941575.222834 7.607373 2.428841 1.172327 1.552507 1.220998 3.651407 1.220857 5.59682-.001563 21.562718-.003127 43.125436-.00469 64.688154-.000369 5.088879 6.509056 7.097343 11.57166 7.613808 122.090248 12.454998 244.180493 24.910006 366.270738 37.365013 1.13526 5.19337 2.268339 10.621731.920899 15.764134-1.347441 5.142403-6.016338 9.835712-11.305838 9.305531-121.782389-12.206592-243.564778-24.413183-365.347167-36.619775-.358863 17.689624-.717725 35.379248-1.076588 53.068872-.047229 2.328093-.175781 4.873302-1.729357 6.607847-1.825196 2.037805-4.905107 2.201305-7.640755 2.215822-52.136511.276656-104.277161-.226962-156.3986-1.510628-2.160915-.05322-4.533418-.19049-6.107621-1.671797-1.825905-1.718155-1.877386-4.552735-1.800549-7.058743.570796-18.616287 1.141591-37.232574 1.712387-55.848861.25747-8.397275-8.677253-14.363772-17.018841-15.362998-8.341587-.999226-16.797857 1.164121-25.162909.385377-8.365051-.778744-17.511697-6.154661-17.919228-14.545993z"/><path d="m286.806117 1150.128081c1.873896.35509 3.187757 1.998821 4.318073 3.535037 13.438123 18.2638 25.638093 37.438449 36.488434 57.348739-41.862546 27.29821-83.725091 54.59642-125.587637 81.89463-2.161359 1.409403-4.772977 2.875947-7.177872 1.94087-1.688618-.656572-2.730063-2.321051-3.651971-3.880731-10.839834-18.338778-21.679668-36.677556-32.519503-55.016334-.657151-1.111766-1.33945-2.356875-1.088046-3.62363.277779-1.399628 1.585987-2.316616 2.788414-3.084916 40.347918-25.780487 80.695833-51.560979 121.043747-77.34147 1.633874-1.043972 3.481338-2.133182 5.386361-1.772195z"/><path d="m291.586861 1285.703235c-1.880603-9.786833-2.910579-19.736966-3.074515-29.701498-.014034-.852977-.007272-1.759924.448301-2.481188.681899-1.079584 2.100336-1.368785 3.36277-1.56049 27.971-4.24748 55.941999-8.494961 83.912999-12.742442 2.256421-.342645 4.812528-.610558 6.588371.823045 1.71431 1.383936 2.039934 3.825911 2.239092 6.0201.879992 9.695253 1.759987 19.390505 2.639982 29.085757.10981 1.209825.185779 2.546132-.548168 3.514149-.773486 1.020166-2.17391 1.27784-3.441085 1.460294-27.524709 3.963139-55.049417 7.926279-82.574126 11.889418-2.447873.352456-5.221984.620403-7.129705-.953415-1.543439-1.273295-2.046343-3.388808-2.423916-5.35373z"/><path d="m361.252007 1306.023683c-3.63202-2.867738-2.059018-9.199532 1.78629-11.774234s8.818525-2.493343 13.442918-2.31876c27.144657 1.024786 54.289315 2.049571 81.433973 3.074356 8.934265.337294 17.868531.674587 26.802796 1.01188 3.260572.123095 6.637939.275104 9.54977 1.747423 2.91183 1.472319 5.227933 4.658279 4.61627 7.863329-1.014565 5.316238-8.108503 6.309614-13.515054 6.062769-41.372324-1.888922-82.744644-3.777842-124.116963-5.666763z"/><path d="m299.224321 1091.814715c17.272301 2.605736 34.544602 5.211472 51.816904 7.817207 2.200564.331982 4.47943.660001 6.623722.064431 3.056283-.848881 6.296778-.583768 9.457087-.3119 19.274041 1.658065 38.548082 3.31613 57.822122 4.974195 1.013921 4.397743.873202 10.040066-3.102995 12.175022-1.780769.956155-3.907893.920899-5.928261.861847-35.739708-1.044619-71.479416-2.089238-107.219124-3.133857-2.477634-.072418-5.174103-.226728-7.037677-1.86105-1.830232-1.605081-2.356259-4.210206-2.620325-6.630187-.505921-4.636404-.442445-9.334663.188547-13.955708m106.564939 13.430203c-1.825997-.655629-4.006694-.183674-5.398198 1.168298 3.216283 2.672308 8.454684 2.450184 11.433201-.484802-1.825568-.920588-3.964584-1.204657-5.96715-.792462m-34.462312 5.382432c3.604265 1.376852 7.836815.988879 11.130703-1.020287-3.305074-2.35629-8.309083-1.897602-11.130704 1.020286m-21.6256-6.25202c-2.806233-1.252684-6.418417-.326137-8.275202 2.122641 2.973201 1.437749 6.833978.750993 9.128992-1.623862m67.219833 2.385589c-1.904853-.828274-3.562516 1.545463-4.299205 3.487573 1.110617 1.212176 3.203966 1.338465 4.452255.268601 1.248289-1.069865 1.443833-3.157884.415895-4.440919m-96.836756 3.028888c-.958235-2.255063-4.507273-2.768901-6.065739-.878213 1.591548 1.368966 3.916756 1.827247 5.908727 1.164568m41.420897-5.791886c-.874218.441241-.17473 1.962584.803882 1.998225.978611.035641 1.765434-.756528 2.416972-1.487589-.375395-1.326005-2.542877-1.588367-3.223804-.390228m30.498057 3.501711c1.911598.750944 4.113238.732289 6.011836-.050941-1.904151-.756334-4.102035-.74163-5.995898.040114z"/><path d="m433.527521 1338.630959c-.005432 11.695264-9.366018 22.685665-20.911354 24.55233s-23.892351-5.614023-27.582977-16.711703c-3.690626-11.097681 1.717256-24.482908 12.081095-29.902322 10.36384-5.419414 24.442104-2.223798 31.450552 7.138941 3.196137 4.269795 4.965162 9.589235 4.962684 14.922753z"/><path d="m789.502055 306.536164c-.388111-1.400076-.158552-3.595981 1.284674-3.42882 1.229293 2.565227.902365 5.804865-.81466 8.072763-.680866-1.416859-.904011-3.049342-.628359-4.596948z"/><path d="m785.43782 1258.564274c-.266754-1.973867-.32614-4.41774 1.371993-5.458726 1.284041 2.147599 1.226948 5.025694-.141253 7.120682-.523244-.460127-1.046487-.920253-1.56973-1.38038z"/><path d="m785.747647 1193.341993c2.233756.857699 2.919332 4.25311 1.193369 5.910325-1.70633-1.474618-2.18437-4.186817-1.085026-6.155951z"/><path d="m414.423661 8.671641c1.467134-1.242677 4.002269-.859863 5.037057.760613-1.703027 1.104168-4.084169 1.040596-5.725856-.15287z"/><path d="m390.803218 1.995322c-.823756.648053-1.613647-1.095095-.949175-1.905664 1.543915-.21735 3.142072-.037503 4.599063.517547-.326919 1.401013-2.280641 2.099839-3.421965 1.224z"/><path d="m406.29814 1217.461439c1.183514-.623761 1.954618 1.765737.825041 2.482564-1.129576.716826-2.602472.137357-3.804239-.45047.976281-.683321 1.95256-1.366644 2.92884-2.049967z"/><path d="m625.868533 1264.171385c.840286-.623463 1.683319 1.126739.932986 1.855977-.930092.295508-2.012406.045339-2.718474-.628352.507741-.508298 1.015483-1.016595 1.523225-1.524892z"/><path d="m786.875338 635.083764c-1.319766.502403-1.801391-1.806807-1.096372-3.030384 1.342246-.483934 1.825501 1.824395 1.157225 3.085039z"/><path d="m788.884366 1435.08142c-1.291732.496562-1.832299-1.746839-1.139251-2.944683 1.136081.402981 1.726569 1.899365 1.171824 2.969566z"/><path d="m303.987548 862.8353c5.555877-.541675 11.111753-1.08335 16.667629-1.625025-2.250002-1.354824-4.500005-2.709649-6.750007-4.064473 4.372705-1.942889 9.427331-.908351 14.09191.157986 3.101269.70896 6.760483 1.943562 7.488192 5.040485-2.660136-1.670881-6.448033-1.254583-8.681789.954151-.794938.786032-1.989089.967897-3.097974 1.109833-6.417783.821462-12.835566 1.642925-19.253349 2.464389-1.709433.218804-3.51332.425855-5.100617-.245356-.789409-2.182132 2.326425-3.566816 4.636005-3.791991z"/><path d="m434.196012 920.308554c-12.709425 3.018007-25.772229 4.545074-38.83507 4.539895-1.774906-.000704-4.12262-.547208-4.191897-2.320761 11.639648-.636559 23.241773-1.958529 34.726264-3.956785 2.960393-.515097 6.659506-.779435 8.300703 1.737651z"/><path d="m328.734141 875.029685c-1.864787-2.360903-5.510495-2.228985-8.357653-1.256886-2.847159.972099-5.612815 2.576889-8.618227 2.43981-2.611218-.119098-5.111381-1.676578-6.369442-3.967851 7.626519-3.417711 16.291177-4.475555 24.515943-2.993085.767658 1.932094.288516 4.297066-1.170621 5.778012z"/><path d="m378.291421 928.228653c-1.606302 2.243329-4.927715 2.52366-7.546213 1.654062-2.618497-.869598-4.848953-2.613605-7.345517-3.788295-4.457777-2.097484-9.78247-2.270184-14.366794-.46597-1.167744-.736488.10833-2.501872 1.373819-3.05376 9.02368-3.935254 19.256743.913574 27.884704 5.653964z"/><path d="m387.671592 910.058486c1.939178.922125 3.878356 1.84425 5.817534 2.766375-9.308782 5.076414-20.905108 5.740906-30.732833 1.761052 1.045106-1.512997 3.213019-1.588245 5.050164-1.508841 5.942184.256838 11.884368.513673 17.826551.770508.679528-1.263031 1.359056-2.526062 2.038584-3.789094z"/><path d="m439.371717 898.004171c-2.591296 1.56614-6.131193 1.37777-8.541645-.454531 1.207518-1.111123.728866-3.467415-.816478-4.019328-1.545344-.551912-3.408384.968055-3.177946 2.592738-.844831-3.229904-4.458126-5.096364-7.796428-5.054374-3.338302.041991-6.463304 1.540917-9.462073 3.008365-.680114-1.433067.197677-3.215539 1.527191-4.080773s2.976729-1.043517 4.555393-1.198625c6.039043-.593344 13.607048-.390405 16.269093 5.062632 1.32607 2.716372 4.435411 4.447526 7.442892 4.143898z"/><path d="m385.947939 909.017733c-3.029673-.563435-5.961879-1.647221-8.629698-3.189663l1.43211-2.422695c2.771156.482574 5.568106-.426796 8.284542-1.156974 2.716435-.730179 5.701238-1.270019 8.266453-.115961 2.565216 1.154058 4.192644 4.676359 2.473199 6.902497.408473.345031-.238789 1.034416-.742486.855013s-.73642-.740604-.967999-1.222545c-1.726622-3.593291-6.715898-5.148808-10.178677-3.173425.020852 1.174584.041704 2.349169.062556 3.523753z"/><path d="m429.221959 909.168728c-3.953562 1.264767-6.300243 6.310533-10.451104 6.33585-2.250733.013733-4.164633-1.517127-6.17144-2.536302-2.006808-1.019175-4.850997-1.366787-6.17351.454464.320967-2.532247 2.339693-4.760865 4.827959-5.329931 2.488266-.569067 5.275017.560537 6.66476 2.701547 1.225774 1.888404 4.096241.293495 5.738211-1.246807 1.641969-1.540301 4.966891-2.549239 5.565124-.378821z"/><path d="m355.977549 870.947789c7.055986.568803 13.912937 3.39292 19.322862 7.958353-7.229332.944837-14.855866-2.196243-19.322862-7.958352z"/><path d="m443.966922 892.717674c-2.016486.225786-4.892874-.300457-4.765727-2.325557 5.178711-2.315686 11.036883-3.086149 16.638239-2.188251.470905 1.008755.941809 2.017509 1.412714 3.026264-4.428409.495848-8.856817.991696-13.285226 1.487544z"/><path d="m424.34833 903.20461c-5.317617.207628-10.635235.415255-15.952853.622882-2.814924.10991-6.874331-1.390797-5.797827-3.994067 7.660368 1.320092 15.469185 1.776801 23.231211 1.358706 1.250027.161483-.221076 1.963304-1.480531 2.012479z"/><path d="m387.417567 887.445057c-2.709227 4.064027-8.203642 6.029604-12.87593 4.606247-1.145602-.348992-2.228148-.874705-3.305227-1.398248 4.681656-3.156183 10.649479-4.339334 16.181157-3.207999z"/><path d="m428.766735 871.645363c3.875711-4.316917 11.201647-4.92744 15.738451-1.311598-4.716264 2.702977-10.639835 3.196631-15.73845 1.3116z"/><path d="m448.822345 919.941159c-2.846778.384231-5.693556.768463-8.540334 1.152694.448003-1.770986 1.946646-3.232772 3.728236-3.636546 4.714697-1.068524 9.582578 4.727547 13.843483 2.443952.199847.925299.399692 1.8506.599538 2.775901-2.850047.478511-5.75787.611928-8.639761.39641-.312074-1.000379-.624148-2.000758-.936222-3.001136z"/><path d="m398.010005 892.196963c-4.862726 4.266866-11.75252 6.11256-18.097053 4.847984 4.137192-1.833442 8.274385-3.666884 12.411577-5.500326 1.895159.217446 3.790318.434893 5.685476.65234z"/><path d="m445.113459 905.800878c-5.44464.790365-11.036505.554295-16.395157-.69215 4.96502-2.984585 11.699354-2.700283 16.395157.69215z"/><path d="m455.344515 912.583859c1.01182 1.0178 2.023639 2.0356 3.035459 3.053399-3.323812 2.138605-8.514799-.22923-9.078689-4.141185 1.97468-.79734 4.407136-.289462 5.897793 1.231413z"/><path d="m361.487899 883.824247c-2.625788.088263-5.27331-.792455-7.322983-2.436046-1.843355-1.478148-3.194311-3.558384-3.802134-5.841678 4.12782 2.125879 7.902888 4.934746 11.125118 8.277723z"/><path d="m452.918805 853.15356c1.98665-2.409457 5.992911-2.784321 8.392065-.785241-1.815054 2.909657-6.389951 3.559256-8.943232 1.269865z"/><path d="m373.745184 859.651816c-3.568604.518548-7.262472.151898-10.659507-1.058054-.625763-.222884-.820196-1.493768-.265638-1.128088 3.612069-1.636087 8.220763-.713878 10.925145 2.186142z"/><path d="m455.785522 867.762475c-1.796161.375597-3.765926-.976048-4.061633-2.787077s1.141821-3.719021 2.964166-3.934258c1.282911 2.117373 1.975732 4.588155 1.980747 7.063859z"/><path d="m343.338171 859.555403c2.389756-2.924405 8.222727-.446751 7.777294 3.303537-2.81095-.455953-5.518222-1.540072-7.86695-3.150297z"/><path d="m301.663326 1056.854215c-1.587369-.15552-3.351487-.402313-4.350704-1.645492-.805782-1.002523-.885892-2.386824-.930947-3.672244-2.448972-69.872617-4.897947-139.745234-7.346922-209.61785-.046592-1.329334-.078523-2.727321.5362-3.906903 1.363505-2.616404 4.967432-2.812213 7.913676-2.656149 60.260143 3.192062 120.520285 6.384119 180.780427 9.576176 1.919983.101704 4.037333.28962 5.367503 1.6779 1.760217 1.837117 1.289376 4.791665.700558 7.266872-16.750966 70.415461-33.501927 140.830923-50.252887 211.246384-.298168 1.253398-.627729 2.567222-1.505333 3.510472-1.438643 1.546259-4.243554 1.478555-5.60592-.135314-1.362366-1.613868-.958422-4.390365.807326-5.549134-13.976571 4.782644-29.212472 3.398986-43.914292 1.958594-27.399561-2.684437-54.799123-5.368874-82.198685-8.053312m17.137949-78.303169c-.270848-3.496975-2.874214-6.993612-6.371485-7.260608-2.217465-.169291-4.335169.926354-6.150264 2.211359 4.65653-.456773 9.484596 1.490088 12.521749 5.049249m94.125937 14.300881c-7.211642 2.178018-15.335873.011653-22.304468 2.873511-1.0606.435566-2.224795 1.220314-2.190652 2.366361 8.425732.224906 16.898776-1.587605 24.49512-5.239871m-64.56572-82.736369c-1.989356 3.052081 3.837211 4.948481 7.342258 3.954809s9.353639.477982 7.664117 3.705713c-7.915971.27604-15.831943.552078-23.747914.828117 4.512341 4.540685 9.024682 9.08137 13.537023 13.622054-11.617779-.08129-23.235559-.16258-34.853338-.24387 11.628979 2.835362 23.565004 4.40957 35.531454 4.686142.302771 1.84006.605542 3.680119.908312 5.520179 1.707077-2.793082 3.414154-5.586165 5.12123-8.379248 17.760896 1.913329 35.639187 2.736287 53.50075 2.462698-11.5867 2.380809-23.1734 4.761617-34.760099 7.142426.441817-3.709889-3.52259-6.740259-7.258567-6.771013-3.735978-.030755-7.140274 1.994367-10.32122 3.953974 1.028233.907925 2.056465 1.815851 3.084698 2.723776 1.290502-2.534817 4.966062-3.465412 7.307314-1.850098-3.773715 3.05953-8.606753 4.786147-13.464846 4.810356-2.153127.805386 1.12704 3.453547 3.401864 3.122213 10.153694-1.478911 20.307388-2.957822 30.461082-4.436734-.858223 5.074895 7.618737 8.226633 10.284363 3.823731-.20478-2.043279-1.975973-3.819349-4.018681-4.029746 2.282204-3.736184 9.409148-1.613404 9.27511 2.762617 5.186462.866826 10.372923 1.733653 15.559384 2.60048-.213061-1.742443.6607-3.571864 2.149887-4.501284 3.22992 2.855556 5.896196 6.346185 7.801495 10.21354-9.261731-4.174269-20.093058-4.744514-29.741905-1.565844-7.766756 2.558645-16.581499 1.744867-23.748546-2.192466 4.402805 9.04645 17.415368 8.058177 27.205263 5.73849s22.885824-3.081208 27.039397 6.082352c.640576 1.413228 1.000013 2.991605 1.991177 4.1854 3.26572 3.933351 11.707611 2.106714 12.812466 7.098254.131131-2.730614.262261-5.461229.393391-8.191843-3.97935 1.050417-8.440174.067094-11.60908-2.559051 4.165738.197666 8.331476.395332 12.497214.592998 2.576705-1.76889 1.56747-6.616479-1.501085-7.210065-1.85139 3.329725-6.858981 4.345025-9.861069 1.999353-.46245-6.510182-3.407634-12.813422-8.104479-17.345087-4.178347-4.031404-13.27559-4.966923-13.945312.800422-.674275-2.476377-1.348551-4.952757-2.022826-7.429138 14.595636-.02989 29.194063 1.672885 43.391 5.06117 2.039209-1.483888 1.352217-4.956321-.661661-6.47441s-4.71866-1.63877-7.239913-1.698634c-15.276343-.362705-30.552685-.725413-45.829027-1.088122-6.693037-.158913-13.855389-.470318-19.250428-4.434604 20.755454 2.881257 42.03282 1.959287 62.461252-2.70651-2.423167 1.360157-4.440971 3.432345-5.736216 5.890822 5.117422-.059402 10.234843-.118804 15.352264-.178206 1.531486-.039877 2.386511-2.328676 1.256273-3.362891 5.07226-5.055172 7.59909-12.546294 6.625081-19.64093-2.423739.203255-4.847479.406509-7.271218.609764 2.600096-.309114 4.410199-3.473919 3.35834-5.871761 1.923971.45885 3.847942.917701 5.771914 1.376551 2.418756-3.816028 3.143125-8.664451 1.945348-13.0208-2.26857 1.21161-5.506049-.344477-5.97701-2.872838-.470961-2.52836 1.989121-5.145739 4.541785-4.832187-1.926609 1.774991-1.038188 5.570898 1.476025 6.306527 5.442755-12.326779 9.26315-25.368748 11.331718-38.683932-54.376185-2.903633-108.749708-5.857125-163.120477-8.860472.0524 2.965577 2.089135 5.796662 4.88421 6.789108-1.112515 1.756057-3.519229 2.561504-5.464638 1.828831-.92942-4.262282-5.279789-7.084581-9.606724-7.640026s-8.662415.670341-12.852778 1.883494c5.245655 4.974085 12.6857 7.544714 19.883131 6.869871-4.994376 3.501807-11.935749 3.998879-17.378134 1.24445 1.461089 2.781673 4.275198 4.811145 7.375883 5.319322-6.920571.667243-8.520519 9.960556-8.224973 16.906934.33461 7.864484.669219 15.728969 1.003828 23.593453 2.803977-1.779429 6.142124-2.704806 9.462057-2.623003.380454-2.936726.727923-6.082073-.616094-8.720771-1.344018-2.638698-5.102641-4.232611-7.367361-2.324693.879756-2.784925 1.759512-5.56985 2.639269-8.354775 4.214182-.8119 7.683021 3.004496 11.006133 5.720273 3.323111 2.715777 9.412127 3.905614 11.02748-.070458-3.147506-.509077-6.295012-1.018154-9.442519-1.52723 6.881307-4.574796 16.248237-5.115096 23.609918-1.361858-4.696541.233899-11.226153 3.359293-9.015368 7.50955-2.349604-.258855-4.746319 1.511356-5.189823 3.833197 9.854371-.900739 19.82172-.558303 29.591038 1.016623 6.192113-3.503935 12.91298-6.071517 19.864092-7.588706-.6141 7.568661-17.465693 6.022992-15.904338 13.454272-2.353105-2.301477-5.063951-4.756475-8.355439-4.75444-3.291488.002034-6.326428 4.238268-4.071774 6.636274 2.208601-3.331551 8.472928-1.984922 9.117334 1.959934-1.915853-1.368286-5.010501-.481064-5.910353 1.694474 2.676623 2.29875 6.628996.024893 9.988737-1.052457 3.359742-1.07735 8.559121 1.935566 6.320217 4.662442-3.783184 3.718286-9.588097 5.238851-14.708342 3.852771m28.587195 49.721286c1.627808.942323 3.607726 1.25884 5.448183.870967-2.379685-.437852-4.064632-2.527502-5.378602-4.559274s-2.603407-4.267218-4.770048-5.344382-5.467424-.192178-5.821021 2.201477c3.168089.757758 5.975141 2.912675 7.52577 5.777381-2.177201 1.461798-4.833301-.813107-6.761244-2.590771-1.927942-1.777665-5.791978-2.73227-6.540538-.218963-1.520451 5.104948-9.340346 6.765743-12.804355 2.719399 2.812894-1.295854 5.625789-2.591707 8.438684-3.88756-1.082301-.881658-2.164602-1.763316-3.246902-2.644974 1.609095-.640118 2.336582-2.862181 1.4176-4.329973-.918982-1.467791-3.235631-1.783926-4.514285-.616029-.556874.508636-.897291 1.205664-1.224813 1.885038-2.109236 4.375154-4.218474 8.750307-6.327712 13.12546 7.737831 4.10972 16.879221-1.399227 25.589626-2.344042-2.080229 1.103581-2.838495 4.124006-1.526176 6.079272-10.580599.992684-21.052601 3.138644-31.170829 6.387637.001735 2.252276.055716 4.673223 1.382705 6.493073s4.44199 2.45563 5.7575.627465c-1.444619 1.231085-3.887097-.743252-3.443366-2.588678.44373-1.845427 2.679216-2.775704 4.549009-2.449562 1.869793.326143 3.437694 1.552716 4.919263 2.739075 1.54737-.927836 2.769136-2.387331 3.410251-4.073808 7.433684-.087809 14.307237-3.713956 20.846954-7.249418 1.587154-.858037 3.174309-1.716075 4.761463-2.574113-.908768-.855486-1.13371-2.349558-.517116-3.434697m16.999629 29.302607c.274488-1.625591-2.044087-2.251453-3.690028-2.157812-6.673262.37966-13.323122 1.170203-19.899401 2.365663.31382-3.592734-.389502-8.500405-3.980988-8.828197-.764912-.069814-1.527493.116207-2.273074.300799-2.053401.508388-4.106802 1.016774-6.160203 1.525159 3.962035.438701 7.773436 2.148614 10.73549 4.816273-1.128567 2.92893-5.270521 3.231381-8.188387 2.07451s-5.556541-3.260587-8.688452-3.468974c-1.14434-.076141-2.47885.235967-2.979658 1.267715-1.089545 2.244646 2.605529 3.662388 5.069675 3.270567s6.128567-.081541 6.010179 2.410752c-4.558453 1.340295-9.378009 1.786279-14.105002 1.305223-.199927.88312-.399853 1.76624-.599779 2.649359 4.711041 1.207232 9.674326.259517 14.443721-.69137 5.726445-1.141699 11.452891-2.283396 17.179336-3.425094.82311-.164106 1.64622-.328212 2.469331-.492317 4.885747-.974086 9.771493-1.948171 14.65724-2.922256m-78.087003-30.17426c4.374025-.00494 8.74724.870374 12.782403 2.558443.548584-1.051839 1.097167-2.103678 1.645751-3.155516-2.553434-.192874-4.81281-2.375179-5.094154-4.920385-3.411942-.558748-6.823883-1.117495-10.235825-1.676242 1.351928 2.335536-1.985794 4.780965-4.682157 4.67111-2.696364-.109854-5.598905-1.241714-7.953676.076428-1.552347.868962-2.407263 2.607646-2.89224 4.319276-.681262 2.404382-.585697 5.4561 1.499291 6.833777 2.084989 1.377677 5.602195-1.467964 3.924389-3.320026-1.455576.455375-3.132769-1.011137-2.875689-2.514459.749942-2.495537 4.518697-2.482729 6.570573-.876515 2.051875 1.606214 3.245905 4.124045 5.325717 5.693916 2.079813 1.569871 5.878921 1.434256 6.496176-1.097367-2.161177-.970613-4.179341-2.258964-5.969487-3.810787.48631-.927218.972619-1.854436 1.458928-2.781653m119.617887 14.401344c-1.22636-2.160373-2.452719-4.320746-3.679079-6.481118-2.169944-3.655599-8.125614.663187-12.015873-1.050857-2.162449-.95277-3.056953-3.525521-4.806763-5.113641s-5.676846-.8813-5.097962 1.409738c-6.078336-.792087-12.413288.546143-17.651957 3.728898 6.661972 3.034029 14.55693-.752342 21.730103.708061 5.427711 1.105036 10.4352 5.192692 15.876045 4.154255-.116045.944258-.23209 1.888517-.348136 2.832777 1.551693 1.640088 4.547832 1.546053 5.993622-.188113m-60.735535 29.660514c.81802-.744536.295392-2.233804-.688278-2.739653s-2.163824-.333624-3.254411-.148936c-2.806414.475262-5.612828.950523-8.419241 1.425783 2.485119 1.754401 3.956473 4.85239 3.745881 7.887087-7.254803-4.406275-15.139012-7.774481-23.338155-9.970273-1.161964.442799-.701123 2.365659.418061 2.907562 1.119185.541903 2.444282.299097 3.674063.48314 1.551069.23212 2.90688 1.136019 4.204706 2.016554 4.987416 3.383812 9.974832 6.767624 14.962248 10.151436.228372-2.798118.484051-5.690765 1.832453-8.153167 1.348402-2.462403 4.105181-4.386649 6.862673-3.859533m66.846984 12.673933c-4.679075-3.689604-11.353282-3.065795-17.191347-1.872513s-12.095323 2.736898-17.573179.391686c-1.145972.30104-.155623 2.049857.938255 2.505168 4.267878 1.776436 9.039681 1.750171 13.662194 1.696473l14.026698-.162942c2.354877-.027356 5.229826-.384729 6.137381-2.55787m2.212954-71.536243c-1.258736 2.796868-3.102037 5.329038-5.376846 7.386252 3.866565 5.237756 12.560743 5.885382 17.160648 1.27829-.999795-1.868385-3.629036-1.822407-5.745611-1.719638-2.116576.102769-4.869584-.532949-5.102908-2.639133-.184978-1.669736.742142-4.397946-.935281-4.305773m-28.955479 33.924284c-.786473 1.546903-.786654 3.469232-.000472 5.016284 3.712452-.342336 7.291751-1.988558 9.967731-4.584444-2.257083-6.265481-10.167153-9.79268-16.336462-7.284632 3.730478 1.473803 7.460956 2.947606 11.191434 4.42141-.966168 1.638107-2.930677 2.628619-4.82223 2.431384m-4.296231 73.350134c3.423746 1.512031 7.025288 2.621009 10.706548 3.296734 3.73826.68619 9.107879-.459296 8.874629-4.252849-2.891507-.516554-5.778406.893559-8.715109.951881-2.936703.058321-6.389658-2.634827-5.092141-5.269988-2.657084.607981-4.92856 2.682872-5.773927 5.274222m32.53926-54.225861c.271148-3.479218-4.226468-5.14811-7.716172-5.169261-6.094928-.036933-12.193014 1.479678-17.560578 4.367368 3.752521-.179615 7.505041-.359229 11.257562-.538844 4.72779-.226295 9.627806-.425325 14.019188 1.340735m-62.551952 20.683316c6.515676 1.34719 13.399389.865904 19.664209-1.374855.811547-.290269 1.145112-1.453302.610775-2.129578-6.84744-1.734026-14.406867-.427415-20.274984 3.504433m52.310857-32.857436c2.835436.459157 5.585207 1.442012 8.069271 2.884215 1.490042-2.023429-.757168-5.421356-3.202384-4.842211-.060426-1.50248-.728445-2.97182-1.820878-4.005109-3.52991 1.472091-7.05982 2.944185-10.58973 4.416279 1.587363 2.258218 5.075031 2.883167 7.347745 1.316629m-58.919855-14.17104c-3.288823-.563875-6.834908.753984-8.957254 3.328855 5.020883.287931 10.041766.575862 15.062649.863792.54706.031372 1.11201.060288 1.62684-.127351 2.041255-.743968 1.330703-4.194336-.692697-4.985578-2.0234-.791243-4.272464.135527-6.243944 1.048479m-62.0756-37.345728c-4.452938-2.585233-9.53489-4.077999-14.678573-4.311667-.514065 1.063991-.658656 2.302237-.403564 3.456042 4.238957 3.264548 10.501162 3.619808 15.082137.855625m38.006211 79.446367c.876362 1.105116 2.656065 1.346589 3.79521.51494.500325-.365272.880331-.929369.915684-1.547832-2.056231-1.416695-4.177442-2.862646-6.611608-3.419381-2.434165-.556735-5.287879-.023434-6.819496 1.948688-1.531616 1.972122-.962815 5.437252 1.392151 6.267464-.529104-1.850345.407067-4.010813 2.118967-4.890089s4.013306-.38171 5.209092 1.12621m71.981269-2.731201c1.072858-.121666 2.219697-.275049 3.02688-.992184.633593-.562913.96837-1.444658.868023-2.286229-7.271834.931395-14.5952 1.460303-21.925401 1.583493 5.362815 2.993277 11.927993 2.386968 18.030498 1.69492m-39.666625 21.807642c-.179578 1.053284-.359155 2.106567-.538733 3.15985 5.54044.313912 11.08088.627824 16.621319.941736.470409-.731256.646024-1.646437.479705-2.499876-5.488374-.817834-11.018907-1.352682-16.562291-1.60171m-79.892714-87.876491c2.40503-2.193057 1.85417-6.738896-1.005062-8.294035-1.192979 3.635442-2.385959 7.270883-3.578938 10.906325-.593326 1.80808-.363458 4.726864 1.525748 4.498643 1.127073-2.226732 2.254145-4.453462 3.381216-6.680192m33.634721-50.269168c-2.859887 1.249188-5.719775 2.498375-8.579663 3.747563 3.61399 3.312824 9.490008 3.832303 13.629152 1.204907-1.460415-.56206-2.920829-1.124119-4.381243-1.686179.637205-1.043603.327623-2.556795-.668247-3.26629m37.5629 90.293338c6.302484 1.37455 13.259462-.80589 17.649952-5.531807-5.702982 1.196727-11.405963 2.393454-17.108944 3.590181-.658777.357672-.919901 1.294821-.541006 1.941625m29.771887 19.363653c-4.204943-2.615379-10.050874-2.252556-13.90015.862703 4.322029.560125 8.576987 1.635996 12.645815 3.197508.418111-1.353403.836223-2.706807 1.254334-4.060211m-85.488262-92.521301c1.949121 2.460062 4.742513 4.238209 7.796353 4.962805-1.06342-2.657019-3.43045-4.755487-6.195766-5.492801.964547-1.465451 2.398769-2.616533 4.038251-3.241031-1.857036-1.582426-4.263955-2.506562-6.702841-2.573552-.056344 2.156927.307086 4.324038 1.064003 6.344579m-8.886831 33.128227c-2.302387.19134-4.324987 2.178623-4.55685 4.477284-.231862 2.29866 1.353123 4.649835 3.570919 5.29712 1.743422-2.668788 2.118067-6.183266.976418-9.159605m-1.511666 59.467086c1.164108-3.42631-3.705319-6.297125-7.079425-4.989395 1.667256 2.242727 2.906778 4.80228 3.63251 7.500965 1.00539.000056 2.010779.000113 3.016168.000169.479177-.725283.650381-1.647124.463573-2.496093m120.66226 21.19879c3.437892 1.434663 7.803998.114162 9.870574-2.985292-5.611342.370422-11.222684.740846-16.834025 1.111269 2.075095 1.22164 4.428681 1.966997 6.828716 2.162586m-13.938545-36.867362c-.09591-1.438442-1.829292-2.498485-3.153458-1.928485-1.349504.580906-2.015502 2.395295-3.470809 2.597025 5.063162 1.138254 10.446446.813608 15.336124-.924867-2.357981-2.194555-6.486982-2.073069-8.711857.256327m-51.281588 43.800689c-3.540035-1.339224-7.641474-1.110784-11.010891.61328.231914 1.92076 2.236577 3.436292 4.147801 3.135754 2.287698-1.249676 4.575394-2.499355 6.86309-3.749033m40.658032-3.247935c1.693058.547059 3.680159.037737 4.901325-1.256278.602449-3.628046-3.33176-7.191467-6.882661-6.233993 1.92691 1.801426 2.693455 4.745738 1.889632 7.258105m-67.17375-66.036305c.7054-2.384154 2.285537-4.498893 4.371977-5.85113-1.328893-.677747-2.928835-.803743-4.347434-.342363-1.185046 1.559262-2.418619 3.24367-2.539765 5.198396s1.433233 4.130903 3.374869 3.87462c.59641-.849312.360542-2.166556-.49352-2.756147m2.882896 22.065071c-1.442077-1.264329-3.994568-.877539-4.997326.757267 3.406699 1.560473 6.351273 4.114257 8.377883 7.266008 1.103595-2.946327-.500342-6.62655-3.409841-7.823866m-41.387697-78.798181c-.442671.892493-.885343 1.784987-1.328014 2.677481 2.370392 2.088854 6.024308 2.577212 8.860066 1.184178-1.273528-2.757133-4.543368-4.432174-7.525042-3.85485m117.549625 96.488402c-.787911-3.100905-4.666244-4.978457-7.587284-3.673105-1.398071.624768-2.465927 1.793773-3.491227 2.931182 3.702399.054099 7.401961.301856 11.078511.741923m-112.38315-79.218447c1.603759-.997329-.276744-3.591701-2.165281-3.603454-1.888536-.011752-3.755854 1.072226-5.587617.612495.515123 3.233217 5.117034 4.901859 7.584705 2.750198m125.473581 81.481842c-.165224 1.924338 2.631808 2.991747 4.231303 1.90916 1.599496-1.082586 2.018564-3.282917 1.814523-5.203527-2.427308-.392539-5.032095 1.029355-6.014745 3.283312m-102.542309-34.325133c-1.221042-.781714-2.570824-1.595675-4.011721-1.434942-1.440898.160733-2.727584 1.860957-1.930689 3.072146 3.673439.537895 7.346879 1.07579 11.020319 1.613685-1.692636-1.08363-3.385272-2.167259-5.077909-3.250889m-12.05192 14.158894c3.174881 1.037905 6.677032 1.047651 9.85764.027432-2.51666-2.953518-7.419344-3.466104-10.492498-1.097011m75.206526 56.26251c-2.929989-1.089668-6.301014-.932502-9.116907.425055 2.458934 2.76251 7.271498 2.933799 9.920609.353097m-5.550429-16.052893c2.692724 1.528612 7.206532 2.358954 7.91763-.654642-2.155136-2.509904-6.76697-2.141522-8.496353.678667m-74.794621-120.760675c.151582.814721.303163 1.629441.454745 2.444161 1.804695-.772927 2.886652-2.938295 2.421153-4.845559-.465499-1.907265-2.423364-3.330715-4.381223-3.185333-.633001 1.948338.062013 4.255601 1.66584 5.530145m17.962579 23.360333c2.837557.078778 5.675114.157556 8.512671.236333.458643-.773725.6401-1.707975.504432-2.597131-3.106493-1.084672-6.769451-.383844-9.256144 1.770963m76.732857 127.765233c-1.527752-1.924024-5.285619-.809961-5.517887 1.63584 3.453081.341249 6.906161.682495 10.359241 1.023742-1.099317-1.518155-2.947517-2.465014-4.821886-2.470323m24.025513-11.452979c2.392797.349464 4.765375-2.045116 4.39384-4.434586-2.757729 1.510097-5.515457 3.020197-8.273185 4.530296.665226 1.382976 2.956685 1.513659 3.774831.215282m-106.99801-35.847671c-2.568731-.55743-6.333361-.278886-6.472038 2.34597 2.476189.828009 5.283551.611255 7.603293-.587043.300021-.74983-.293742-1.706941-1.098806-1.771214m52.043196 25.810886c1.554879.275657 3.19777.028577 4.602788-.69223-3.121522-1.764135-7.069033-1.984049-10.367189-.577555 1.444341 1.44152 3.798605 1.877313 5.663238 1.048312m-38.423641-22.35776c1.000161-.297672 2.000322-.595344 3.000482-.893016-2.974626-.946066-6.100258-1.415603-9.22156-1.385276.436615 2.588239 4.111133 3.916708 6.101945 2.206071m4.053904 23.734143c.651744 2.914744 4.265738 4.739706 6.998236 3.533907-1.194131-2.32428-3.801499-3.845854-6.412529-3.74214m55.002312-64.874542c-1.334539.00039-2.669078.00078-4.003618.00117-.428955-1.156269-1.134858-2.208725-2.041894-3.044336-.566972 1.033032-.680305 2.304938-.304913 3.421941 1.712341 2.100293 5.334576 2.205061 7.165451.207254m-80.400614-57.72696c-1.716684-.461525-3.682983.890055-3.867097 2.658137 1.690487.472127 3.704638.880365 5.036688-.26256 1.332051-1.142926.090642-4.108866-1.43949-3.249022m103.909736 116.186489c-1.065859.223957-1.991923 1.025027-2.367017 2.047532 1.131677 2.333116 5.351952 1.814872 5.885516-.722734-1.190923-.505639-2.381846-1.011279-3.57277-1.516919m-83.407859-88.616113c-1.521732-1.30863-3.685471-1.831257-5.636754-1.361495-1.159264.968006-.017035 3.06528 1.481274 3.255011 1.49831.189731 2.87404-.770084 4.078772-1.680881m95.469557 94.363956c1.82709-.630226 3.454991-1.82516 4.603841-3.379375-1.496603-.567897-3.217668-1.126861-4.635522-.383878-1.417853.742983-1.512404 3.412537.076259 3.608709m-87.069344-123.958411c1.149039-.352876 1.704927-1.933123 1.029872-2.927665-1.791901.450165-3.766228.117084-5.311263-.896042-.665792 2.265051 2.066064 4.692505 4.237111 3.764982m-7.904907 3.123825c.879981.560785 1.769274-1.240312.86737-1.765112-1.538516-1.192356-3.730535-1.478314-5.523453-.720556.278135 1.973116 2.760505 3.268415 4.538067 2.36796m67.116697 77.11687c1.096249.407862 2.741531-.315987 2.451379-1.449091-1.852977-.452332-3.705953-.904661-5.55893-1.35699-1.30526 1.464996 1.42957 3.987736 2.784668 2.568712m-44.149054 64.924574c-1.67606.673925-3.35212 1.34785-5.02818 2.021775 1.189124 1.127955 2.963904 1.888388 4.470874 1.243916 1.506971-.644472 1.988536-3.14651.529517-3.893214m85.546992-73.003837c.915582 1.558397 2.494659 2.71187 4.257692 3.110127-.116614-1.666577-.937359-3.272508-2.219735-4.343298-.563413-.470457-1.342664-.850826-2.011996-.549564s-.682397 1.558444.049799 1.609959m-5.076981 27.218674c-.722373.696864-.806583 1.95306-.183684 2.740105 2.094248-.241992 3.827778-2.253357 3.758078-4.360389-1.322231-.546626-3.030695.284059-3.417371 1.661584m-121.245412-13.322774c-1.377866.49758-.64043 2.879342.801657 3.137195 1.442086.257853 2.776832-.741688 3.901278-1.680688-1.034273-1.330589-3.070895-1.754238-4.549982-.946465m63.915461 11.76571c1.765343-1.514279 2.038296-4.469931.580129-6.281899-1.24279 1.989406-1.786006 4.406497-1.513924 6.736356m74.88588-62.577642c-1.483682.155356-2.967364.310713-4.451047.46607.809684 1.644876 2.614917 2.747425 4.448018 2.716633.684156-.870852.731048-2.187411.110582-3.104728m-136.995426-49.460033c1.337315.276096 2.597873-1.432538 1.939436-2.628825-1.525763.160464-3.051528.320928-4.577293.481393-.092646 1.337506 1.166047 2.605029 2.504166 2.521737m105.99055 64.026557c-1.157334.525242-2.314667 1.050484-3.472001 1.575726-.13916.952593.547331 1.953493 1.486117 2.166753 1.01173-.191753 2.120428-.442015 2.732593-1.270037s.185269-2.365321-.843906-2.331173m-43.052219 59.062343c-.573993-.390654-1.147985-.781308-1.721978-1.171962-1.234353.892929-2.17447 2.185838-2.643382 3.63535 1.615988.561283 3.597602-.418996 4.132032-2.044063m-56.553154-78.513259c-1.070404 1.554228-.598708 3.95189.980672 4.984822.499028-1.165651.998056-2.331304 1.497084-3.496956-.599331-.793175-1.51832-1.337418-2.50194-1.481698m-4.996113-18.02136c.547224-1.431615.725492-3.002515.512974-4.520346-1.287376-.73361-3.168924.546441-2.959302 2.013268.815463.836639 1.630929 1.673278 2.446394 2.509917m-.753478 121.586334c.732897 1.975442 3.788315 2.52486 5.163488.928486-1.450947-1.049931-3.17181-1.723549-4.949952-1.937618m-5.529222-117.299258c-.587654-1.124634-1.175307-2.249267-1.76296-3.373901-.565853 1.537403-1.131705 3.074805-1.697558 4.612208.983641.671514 2.55655.087518 2.863621-1.063217m24.091532 70.363949c-1.43745-2.255644-4.637345-2.655567-7.2318-2.005188 2.064987 1.193797 4.428494 1.866566 6.812621 1.939201m-31.444583 35.019013c-1.394267.251522-2.288975 1.990997-1.682713 3.271502 1.179499-.342805 2.498938-.802815 2.997051-1.925588.498113-1.122772-.802177-2.755326-1.799844-2.038811m45.886835-2.040659c-.617643-1.157273-2.409391-1.445587-3.358896-.540488-.328242 1.008669.423659 2.221843 1.473029 2.376699 1.049371.154855 2.119647-.789419 2.096754-1.849907m70.565512 8.345705c1.42201.927639 3.368556.978727 4.837267.126954.052971-1.9366-3.015921-1.629917-4.659538-.604374m-103.262018-23.505024c-.567688-.826246-2.0249-.018479-2.045145.983789-.020246 1.002269.769039 1.813284 1.501721 2.497483 1.515199.579471 1.49619-2.29259.349708-3.440279m25.56274-65.403673c-1.984269-.29071-2.993938 3.310606-1.05503 3.822928 1.015921-.978053 1.470488-2.503021 1.155873-3.877685m61.870719 26.055913c-1.165448-.23061-2.398309-.108523-3.495891.34619 1.190608 1.112971 2.841003 1.718252 4.468876 1.638957.857483-.58747.054992-2.261377-.940006-1.960745m-21.014639-10.07688c.664831 1.116924 2.37177 1.426808 3.386777.614847-.466014-1.458386-2.635738-1.99272-3.725696-.91752m-35.225095-21.204889c.595184-.451302-.413269-1.414087-1.053299-1.029017-.640029.385071-.724509 1.262612-.737717 2.009433.491622.87714 2.171994-.013215 1.722323-.912579z"/><path d="m434.294576 862.717676c-1.328101-.613954-2.656203-1.227908-3.984304-1.841861 1.657909-.838602 3.410068-1.698734 5.266243-1.617954 1.856174.080781 3.795468 1.473398 3.780521 3.33127-1.562557.732181-3.451732.728008-5.01104-.011068z"/><path d="m337.825569 872.234972c2.875155.422835 5.510994 2.245775 6.921262 4.78673-3.789429.227361-7.6032-2.099307-9.134805-5.572868.719035-.518758 1.89878-.126737 2.16434.719193z"/><path d="m403.31814 915.704238c.983093.283144 1.306606 1.789849.526396 2.451602-2.156058-.088044-4.312119-.176091-6.46818-.264137-.54713-1.360352.480344-3.003477 1.885032-3.423908 1.404687-.420431 2.962352.17049 4.036615 1.168422z"/><path d="m432.89982 884.203093c1.944038-.63044 4.616923.576484 4.500061 2.616847-2.349528 1.691692-6.18335.500656-7.160694-2.224579.764194-.47554 1.708846-.652678 2.593412-.486309z"/><path d="m404.228246 870.450294c-2.289387 2.309661-5.920481 3.180628-9.008489 2.16081 2.44497-1.843933 5.567628-2.767395 8.622241-2.549851z"/><path d="m447.385598 860.790811c-3.053507.911643-6.526487-2.16048-5.994284-5.302416 2.41458 1.128648 4.580606 2.785447 6.301962 4.82039z"/><path d="m420.769254 896.788979c-1.292078 2.617994-5.58564 2.932686-7.245625.531059 1.875013-1.514621 4.659283-1.795985 6.799413-.687115z"/><path d="m452.242713 875.670936c-.930518-1.10163-1.25222-2.687232-.824627-4.064409.588721-.560586 1.534167-.706593 2.264571-.349721.63458 1.118298 1.291564 2.384228.971411 3.62953-.320154 1.245302-2.199505 1.998365-2.911241.927521z"/><path d="m337.325279 883.310078c1.072419-2.585431 5.897932-1.542994 5.807484 1.254569-1.52576 1.133859-3.956173.746786-5.054222-.804946z"/><path d="m423.95398 874.016882c1.365264 2.281985 3.721595 3.946978 6.328511 4.471753-3.007143 1.955806-7.727373-1.009242-7.27094-4.5673z"/><path d="m456.857091 880.079023c-1.102207.488389-1.670286-1.335503-1.493285-2.528002 1.883552-.734799 4.045341-.727759 5.92407.019292-.89484 1.56059-2.644319 2.593659-4.443009 2.623601z"/><path d="m347.746038 869.226052c-2.165296 1.303779-5.368724.303855-6.407873-2.000167 1.950362-.861145 4.463174-.161343 5.687653 1.583973z"/><path d="m418.910159 869.165902c.824828-.674355 1.516816 1.118931.91884 2.000701-2.194322-.105371-4.388641-.210744-6.582961-.316117 1.195972-1.682849 3.609246-2.372347 5.513741-1.575336z"/><path d="m325.330666 850.527342c-.696868.722107-1.952695.806309-2.739725.183696.240994-2.094309 2.252589-3.828304 4.359545-3.757928.54658 1.322188-.28414 3.030571-1.661632 3.417158z"/><path d="m371.366922 897.634971c-1.553038 1.706402-4.412725 2.016369-6.295318.682361 1.596508-1.580354 4.320799-1.85487 6.200506-.624803z"/><path d="m375.226525 904.006772c-1.846088-.974114-.03782-3.71593 1.739828-4.809962.821434 1.51037-.052119 3.670078-1.692603 4.18466z"/><path d="m472.276125 855.498336c-1.501205 1.233266-4.042995.847831-5.111097-.775042 1.55023-1.194453 4.080077-.778727 5.166542.849011z"/><path d="m437.040985 910.683127c1.154452.556395 2.308903 1.112789 3.463355 1.669184-.887322 1.136526-2.34149 2.106286-3.702746 1.630877-1.361255-.47541-1.453496-3.002686-.013802-3.082142z"/><path d="m372.04533 905.064739c.131823.876697.263646 1.753394.395468 2.630091-.872158.172143-1.744314.344284-2.61647.516426-.821939-1.304672.469782-3.316123 1.998137-3.111474z"/><path d="m385.438296 881.626649c.862507-1.83269 3.992722-1.844648 4.869206-.018601-1.552188.715707-3.421998.703813-4.964959-.03158z"/><path d="m450.864344 906.131265c-1.844124.046889-3.17886-2.429187-2.12599-3.943932 1.517706.61436 2.531975 2.289911 2.372593 3.919475z"/><path d="m407.800532 865.180469c-1.153484-.524537-2.306968-1.049073-3.460452-1.57361.560864-.811745 1.493221-1.35544 2.475916-1.443806 1.105089.430496 1.651242 1.908061 1.09182 2.953812z"/><path d="m450.836307 881.020753c1.528272.070718 2.989935 1.934326 2.001424 3.101999-1.514924-.04668-2.976794-1.904097-1.982186-3.047739z"/><path d="m445.820456 875.162628c1.115874-.244206 2.9082.352922 2.313786 1.328363-.69837 1.386697-3.30764-.233331-2.374563-1.474299z"/><path d="m408.851565 850.176044c1.099451-.411965 2.773457.333767 2.422924 1.454318-.926361.22252-2.006301.413796-2.746498-.186003-.740198-.599799-.294071-2.21131.618952-1.939206z"/><path d="m418.653694 880.393047c-.743058-.538245-1.486115-1.076491-2.229172-1.614736.636951-1.458204 3.404838.000291 2.562155 1.350092z"/><path d="m380.025837 852.097315c-.24226 1.441886-3.010659.909966-2.701309-.519029.728154-.646193 2.057272-.358872 2.453504.530386z"/><path d="m457.461483 891.81837c1.29469.586864 2.589379 1.173727 3.884069 1.760591-1.314542 1.083449-3.680567.176714-3.934351-1.507767z"/></g></svg>